<?xml version="1.0" encoding="UTF-8" standalone="no"?>
<!-- Created with Inkscape (http://www.inkscape.org/) -->

<svg
   version="1.1"
   id="svg1"
   width="399.77332"
   height="274.75201"
   viewBox="0 0 399.77332 274.75201"
   sodipodi:docname="adc-processp2.svg"
   inkscape:version="1.3 (0e150ed6c4, 2023-07-21)"
   xmlns:inkscape="http://www.inkscape.org/namespaces/inkscape"
   xmlns:sodipodi="http://sodipodi.sourceforge.net/DTD/sodipodi-0.dtd"
   xmlns="http://www.w3.org/2000/svg"
   xmlns:svg="http://www.w3.org/2000/svg">
  <defs
     id="defs1" />
  <sodipodi:namedview
     id="namedview1"
     pagecolor="#ffffff"
     bordercolor="#666666"
     borderopacity="1.0"
     inkscape:showpageshadow="2"
     inkscape:pageopacity="0.0"
     inkscape:pagecheckerboard="0"
     inkscape:deskcolor="#d1d1d1"
     inkscape:zoom="4.2984216"
     inkscape:cx="199.95712"
     inkscape:cy="137.37601"
     inkscape:window-width="2560"
     inkscape:window-height="1377"
     inkscape:window-x="1912"
     inkscape:window-y="-8"
     inkscape:window-maximized="1"
     inkscape:current-layer="g1">
    <inkscape:page
       x="0"
       y="0"
       inkscape:label="2"
       id="page1"
       width="399.77332"
       height="274.75201"
       margin="0"
       bleed="0" />
  </sodipodi:namedview>
  <g
     id="g1"
     inkscape:groupmode="layer"
     inkscape:label="2">
    <path
       id="path1"
       d="m 0,52.02046 h 35.71689 c 17.00807,0 34.01613,102.04839 51.0242,102.04839 17.00806,0 34.01613,-119.05645 59.52821,-119.05645 17.00807,0 25.5121,17.00806 76.5363,17.00806 h 32.31536"
       style="fill:none;stroke:#e6e6e6;stroke-width:0.79701;stroke-linecap:butt;stroke-linejoin:miter;stroke-miterlimit:10;stroke-dasharray:none;stroke-opacity:1"
       transform="matrix(1.3333333,0,0,-1.3333333,32.798667,251.544)" />
    <path
       id="path2"
       d="M 8.50403,55.2762 V 46.77217"
       style="fill:none;stroke:#000000;stroke-width:0.3985;stroke-linecap:butt;stroke-linejoin:miter;stroke-miterlimit:10;stroke-dasharray:none;stroke-opacity:1"
       transform="matrix(1.3333333,0,0,-1.3333333,32.798667,251.544)" />
    <path
       id="path3"
       d="m 9.99844,51.02419 c 0,0.82534 -0.66906,1.49441 -1.49441,1.49441 -0.82535,0 -1.49442,-0.66907 -1.49442,-1.49441 0,-0.82535 0.66907,-1.49442 1.49442,-1.49442 0.82535,0 1.49441,0.66907 1.49441,1.49442 z"
       style="fill:#000000;fill-opacity:1;fill-rule:nonzero;stroke:none"
       transform="matrix(1.3333333,0,0,-1.3333333,32.798667,251.544)" />
    <path
       id="path4"
       d="M 17.00806,55.2762 V 46.77217"
       style="fill:none;stroke:#000000;stroke-width:0.3985;stroke-linecap:butt;stroke-linejoin:miter;stroke-miterlimit:10;stroke-dasharray:none;stroke-opacity:1"
       transform="matrix(1.3333333,0,0,-1.3333333,32.798667,251.544)" />
    <path
       id="path5"
       d="m 18.50247,51.02419 c 0,0.82534 -0.66907,1.49441 -1.49441,1.49441 -0.82535,0 -1.49442,-0.66907 -1.49442,-1.49441 0,-0.82535 0.66907,-1.49442 1.49442,-1.49442 0.82534,0 1.49441,0.66907 1.49441,1.49442 z"
       style="fill:#000000;fill-opacity:1;fill-rule:nonzero;stroke:none"
       transform="matrix(1.3333333,0,0,-1.3333333,32.798667,251.544)" />
    <path
       id="path6"
       d="M 25.51208,55.2762 V 46.77217"
       style="fill:none;stroke:#000000;stroke-width:0.3985;stroke-linecap:butt;stroke-linejoin:miter;stroke-miterlimit:10;stroke-dasharray:none;stroke-opacity:1"
       transform="matrix(1.3333333,0,0,-1.3333333,32.798667,251.544)" />
    <path
       id="path7"
       d="m 27.0065,51.02419 c 0,0.82534 -0.66907,1.49441 -1.49442,1.49441 -0.82534,0 -1.49441,-0.66907 -1.49441,-1.49441 0,-0.82535 0.66907,-1.49442 1.49441,-1.49442 0.82535,0 1.49442,0.66907 1.49442,1.49442 z"
       style="fill:#000000;fill-opacity:1;fill-rule:nonzero;stroke:none"
       transform="matrix(1.3333333,0,0,-1.3333333,32.798667,251.544)" />
    <path
       id="path8"
       d="M 34.01613,55.2762 V 46.77217"
       style="fill:none;stroke:#000000;stroke-width:0.3985;stroke-linecap:butt;stroke-linejoin:miter;stroke-miterlimit:10;stroke-dasharray:none;stroke-opacity:1"
       transform="matrix(1.3333333,0,0,-1.3333333,32.798667,251.544)" />
    <path
       id="path9"
       d="m 35.51054,51.02419 c 0,0.82534 -0.66908,1.49441 -1.49441,1.49441 -0.82535,0 -1.49442,-0.66907 -1.49442,-1.49441 0,-0.82535 0.66907,-1.49442 1.49442,-1.49442 0.82533,0 1.49441,0.66907 1.49441,1.49442 z"
       style="fill:#000000;fill-opacity:1;fill-rule:nonzero;stroke:none"
       transform="matrix(1.3333333,0,0,-1.3333333,32.798667,251.544)" />
    <path
       id="path10"
       d="M 42.52016,63.78023 V 55.27621"
       style="fill:none;stroke:#000000;stroke-width:0.3985;stroke-linecap:butt;stroke-linejoin:miter;stroke-miterlimit:10;stroke-dasharray:none;stroke-opacity:1"
       transform="matrix(1.3333333,0,0,-1.3333333,32.798667,251.544)" />
    <path
       id="path11"
       d="m 44.01457,59.52821 c 0,0.82535 -0.66907,1.49442 -1.49441,1.49442 -0.82535,0 -1.49442,-0.66907 -1.49442,-1.49442 0,-0.82534 0.66907,-1.49441 1.49442,-1.49441 0.82534,0 1.49441,0.66907 1.49441,1.49441 z"
       style="fill:#000000;fill-opacity:1;fill-rule:nonzero;stroke:none"
       transform="matrix(1.3333333,0,0,-1.3333333,32.798667,251.544)" />
    <path
       id="path12"
       d="M 51.02419,80.78828 V 72.28427"
       style="fill:none;stroke:#000000;stroke-width:0.3985;stroke-linecap:butt;stroke-linejoin:miter;stroke-miterlimit:10;stroke-dasharray:none;stroke-opacity:1"
       transform="matrix(1.3333333,0,0,-1.3333333,32.798667,251.544)" />
    <path
       id="path13"
       d="m 52.5186,76.53629 c 0,0.82534 -0.66907,1.49441 -1.49441,1.49441 -0.82535,0 -1.49442,-0.66907 -1.49442,-1.49441 0,-0.82535 0.66907,-1.49442 1.49442,-1.49442 0.82534,0 1.49441,0.66907 1.49441,1.49442 z"
       style="fill:#000000;fill-opacity:1;fill-rule:nonzero;stroke:none"
       transform="matrix(1.3333333,0,0,-1.3333333,32.798667,251.544)" />
    <path
       id="path14"
       d="M 59.52821,106.30038 V 97.79637"
       style="fill:none;stroke:#000000;stroke-width:0.3985;stroke-linecap:butt;stroke-linejoin:miter;stroke-miterlimit:10;stroke-dasharray:none;stroke-opacity:1"
       transform="matrix(1.3333333,0,0,-1.3333333,32.798667,251.544)" />
    <path
       id="path15"
       d="m 61.02263,102.04839 c 0,0.82534 -0.66907,1.49441 -1.49442,1.49441 -0.82534,0 -1.49441,-0.66907 -1.49441,-1.49441 0,-0.82535 0.66907,-1.49442 1.49441,-1.49442 0.82535,0 1.49442,0.66907 1.49442,1.49442 z"
       style="fill:#000000;fill-opacity:1;fill-rule:nonzero;stroke:none"
       transform="matrix(1.3333333,0,0,-1.3333333,32.798667,251.544)" />
    <path
       id="path16"
       d="m 68.03226,123.30846 v -8.50402"
       style="fill:none;stroke:#000000;stroke-width:0.3985;stroke-linecap:butt;stroke-linejoin:miter;stroke-miterlimit:10;stroke-dasharray:none;stroke-opacity:1"
       transform="matrix(1.3333333,0,0,-1.3333333,32.798667,251.544)" />
    <path
       id="path17"
       d="m 69.52667,119.05644 c 0,0.82535 -0.66908,1.49442 -1.49441,1.49442 -0.82535,0 -1.49442,-0.66907 -1.49442,-1.49442 0,-0.82534 0.66907,-1.49441 1.49442,-1.49441 0.82533,0 1.49441,0.66907 1.49441,1.49441 z"
       style="fill:#000000;fill-opacity:1;fill-rule:nonzero;stroke:none"
       transform="matrix(1.3333333,0,0,-1.3333333,32.798667,251.544)" />
    <path
       id="path18"
       d="m 76.53629,131.81248 v -8.50401"
       style="fill:none;stroke:#000000;stroke-width:0.3985;stroke-linecap:butt;stroke-linejoin:miter;stroke-miterlimit:10;stroke-dasharray:none;stroke-opacity:1"
       transform="matrix(1.3333333,0,0,-1.3333333,32.798667,251.544)" />
    <path
       id="path19"
       d="m 78.0307,127.56047 c 0,0.82535 -0.66907,1.49442 -1.49441,1.49442 -0.82535,0 -1.49442,-0.66907 -1.49442,-1.49442 0,-0.82533 0.66907,-1.49441 1.49442,-1.49441 0.82534,0 1.49441,0.66908 1.49441,1.49441 z"
       style="fill:#000000;fill-opacity:1;fill-rule:nonzero;stroke:none"
       transform="matrix(1.3333333,0,0,-1.3333333,32.798667,251.544)" />
    <path
       id="path20"
       d="m 85.04031,131.81248 v -8.50401"
       style="fill:none;stroke:#000000;stroke-width:0.3985;stroke-linecap:butt;stroke-linejoin:miter;stroke-miterlimit:10;stroke-dasharray:none;stroke-opacity:1"
       transform="matrix(1.3333333,0,0,-1.3333333,32.798667,251.544)" />
    <path
       id="path21"
       d="m 86.53473,127.56047 c 0,0.82535 -0.66907,1.49442 -1.49442,1.49442 -0.82534,0 -1.49441,-0.66907 -1.49441,-1.49442 0,-0.82533 0.66907,-1.49441 1.49441,-1.49441 0.82535,0 1.49442,0.66908 1.49442,1.49441 z"
       style="fill:#000000;fill-opacity:1;fill-rule:nonzero;stroke:none"
       transform="matrix(1.3333333,0,0,-1.3333333,32.798667,251.544)" />
    <path
       id="path22"
       d="m 93.54434,131.81248 v -8.50401"
       style="fill:none;stroke:#000000;stroke-width:0.3985;stroke-linecap:butt;stroke-linejoin:miter;stroke-miterlimit:10;stroke-dasharray:none;stroke-opacity:1"
       transform="matrix(1.3333333,0,0,-1.3333333,32.798667,251.544)" />
    <path
       id="path23"
       d="m 95.03876,127.56047 c 0,0.82535 -0.66907,1.49442 -1.49442,1.49442 -0.82533,0 -1.49441,-0.66907 -1.49441,-1.49442 0,-0.82533 0.66908,-1.49441 1.49441,-1.49441 0.82535,0 1.49442,0.66908 1.49442,1.49441 z"
       style="fill:#000000;fill-opacity:1;fill-rule:nonzero;stroke:none"
       transform="matrix(1.3333333,0,0,-1.3333333,32.798667,251.544)" />
    <path
       id="path24"
       d="m 102.04839,131.81248 v -8.50401"
       style="fill:none;stroke:#000000;stroke-width:0.3985;stroke-linecap:butt;stroke-linejoin:miter;stroke-miterlimit:10;stroke-dasharray:none;stroke-opacity:1"
       transform="matrix(1.3333333,0,0,-1.3333333,32.798667,251.544)" />
    <path
       id="path25"
       d="m 103.5428,127.56047 c 0,0.82535 -0.66907,1.49442 -1.49441,1.49442 -0.82535,0 -1.49442,-0.66907 -1.49442,-1.49442 0,-0.82533 0.66907,-1.49441 1.49442,-1.49441 0.82534,0 1.49441,0.66908 1.49441,1.49441 z"
       style="fill:#000000;fill-opacity:1;fill-rule:nonzero;stroke:none"
       transform="matrix(1.3333333,0,0,-1.3333333,32.798667,251.544)" />
    <path
       id="path26"
       d="M 110.55241,106.30038 V 97.79637"
       style="fill:none;stroke:#000000;stroke-width:0.3985;stroke-linecap:butt;stroke-linejoin:miter;stroke-miterlimit:10;stroke-dasharray:none;stroke-opacity:1"
       transform="matrix(1.3333333,0,0,-1.3333333,32.798667,251.544)" />
    <path
       id="path27"
       d="m 112.04683,102.04839 c 0,0.82534 -0.66907,1.49441 -1.49442,1.49441 -0.82534,0 -1.49441,-0.66907 -1.49441,-1.49441 0,-0.82535 0.66907,-1.49442 1.49441,-1.49442 0.82535,0 1.49442,0.66907 1.49442,1.49442 z"
       style="fill:#000000;fill-opacity:1;fill-rule:nonzero;stroke:none"
       transform="matrix(1.3333333,0,0,-1.3333333,32.798667,251.544)" />
    <path
       id="path28"
       d="M 119.05644,80.78828 V 72.28427"
       style="fill:none;stroke:#000000;stroke-width:0.3985;stroke-linecap:butt;stroke-linejoin:miter;stroke-miterlimit:10;stroke-dasharray:none;stroke-opacity:1"
       transform="matrix(1.3333333,0,0,-1.3333333,32.798667,251.544)" />
    <path
       id="path29"
       d="m 120.55086,76.53629 c 0,0.82534 -0.66907,1.49441 -1.49442,1.49441 -0.82534,0 -1.49441,-0.66907 -1.49441,-1.49441 0,-0.82535 0.66907,-1.49442 1.49441,-1.49442 0.82535,0 1.49442,0.66907 1.49442,1.49442 z"
       style="fill:#000000;fill-opacity:1;fill-rule:nonzero;stroke:none"
       transform="matrix(1.3333333,0,0,-1.3333333,32.798667,251.544)" />
    <path
       id="path30"
       d="M 127.56047,63.78023 V 55.27621"
       style="fill:none;stroke:#000000;stroke-width:0.3985;stroke-linecap:butt;stroke-linejoin:miter;stroke-miterlimit:10;stroke-dasharray:none;stroke-opacity:1"
       transform="matrix(1.3333333,0,0,-1.3333333,32.798667,251.544)" />
    <path
       id="path31"
       d="m 129.05489,59.52821 c 0,0.82535 -0.66907,1.49442 -1.49442,1.49442 -0.82533,0 -1.49441,-0.66907 -1.49441,-1.49442 0,-0.82534 0.66908,-1.49441 1.49441,-1.49441 0.82535,0 1.49442,0.66907 1.49442,1.49441 z"
       style="fill:#000000;fill-opacity:1;fill-rule:nonzero;stroke:none"
       transform="matrix(1.3333333,0,0,-1.3333333,32.798667,251.544)" />
    <path
       id="path32"
       d="M 136.06451,46.77216 V 38.26814"
       style="fill:none;stroke:#000000;stroke-width:0.3985;stroke-linecap:butt;stroke-linejoin:miter;stroke-miterlimit:10;stroke-dasharray:none;stroke-opacity:1"
       transform="matrix(1.3333333,0,0,-1.3333333,32.798667,251.544)" />
    <path
       id="path33"
       d="m 137.55893,42.52016 c 0,0.82534 -0.66907,1.49441 -1.49442,1.49441 -0.82534,0 -1.49441,-0.66907 -1.49441,-1.49441 0,-0.82535 0.66907,-1.49442 1.49441,-1.49442 0.82535,0 1.49442,0.66907 1.49442,1.49442 z"
       style="fill:#000000;fill-opacity:1;fill-rule:nonzero;stroke:none"
       transform="matrix(1.3333333,0,0,-1.3333333,32.798667,251.544)" />
    <path
       id="path34"
       d="M 144.56854,38.26813 V 29.76411"
       style="fill:none;stroke:#000000;stroke-width:0.3985;stroke-linecap:butt;stroke-linejoin:miter;stroke-miterlimit:10;stroke-dasharray:none;stroke-opacity:1"
       transform="matrix(1.3333333,0,0,-1.3333333,32.798667,251.544)" />
    <path
       id="path35"
       d="m 146.06296,34.01613 c 0,0.82533 -0.66907,1.49441 -1.49442,1.49441 -0.82534,0 -1.49441,-0.66908 -1.49441,-1.49441 0,-0.82535 0.66907,-1.49442 1.49441,-1.49442 0.82535,0 1.49442,0.66907 1.49442,1.49442 z"
       style="fill:#000000;fill-opacity:1;fill-rule:nonzero;stroke:none"
       transform="matrix(1.3333333,0,0,-1.3333333,32.798667,251.544)" />
    <path
       id="path36"
       d="M 153.07257,38.26813 V 29.76411"
       style="fill:none;stroke:#000000;stroke-width:0.3985;stroke-linecap:butt;stroke-linejoin:miter;stroke-miterlimit:10;stroke-dasharray:none;stroke-opacity:1"
       transform="matrix(1.3333333,0,0,-1.3333333,32.798667,251.544)" />
    <path
       id="path37"
       d="m 154.56699,34.01613 c 0,0.82533 -0.66907,1.49441 -1.49442,1.49441 -0.82535,0 -1.49441,-0.66908 -1.49441,-1.49441 0,-0.82535 0.66906,-1.49442 1.49441,-1.49442 0.82535,0 1.49442,0.66907 1.49442,1.49442 z"
       style="fill:#000000;fill-opacity:1;fill-rule:nonzero;stroke:none"
       transform="matrix(1.3333333,0,0,-1.3333333,32.798667,251.544)" />
    <path
       id="path38"
       d="M 161.5766,46.77216 V 38.26814"
       style="fill:none;stroke:#000000;stroke-width:0.3985;stroke-linecap:butt;stroke-linejoin:miter;stroke-miterlimit:10;stroke-dasharray:none;stroke-opacity:1"
       transform="matrix(1.3333333,0,0,-1.3333333,32.798667,251.544)" />
    <path
       id="path39"
       d="m 163.07101,42.52016 c 0,0.82534 -0.66906,1.49441 -1.49441,1.49441 -0.82533,0 -1.49442,-0.66907 -1.49442,-1.49441 0,-0.82535 0.66909,-1.49442 1.49442,-1.49442 0.82535,0 1.49441,0.66907 1.49441,1.49442 z"
       style="fill:#000000;fill-opacity:1;fill-rule:nonzero;stroke:none"
       transform="matrix(1.3333333,0,0,-1.3333333,32.798667,251.544)" />
    <path
       id="path40"
       d="M 170.08064,46.77216 V 38.26814"
       style="fill:none;stroke:#000000;stroke-width:0.3985;stroke-linecap:butt;stroke-linejoin:miter;stroke-miterlimit:10;stroke-dasharray:none;stroke-opacity:1"
       transform="matrix(1.3333333,0,0,-1.3333333,32.798667,251.544)" />
    <path
       id="path41"
       d="m 171.57506,42.52016 c 0,0.82534 -0.66907,1.49441 -1.49442,1.49441 -0.82534,0 -1.49441,-0.66907 -1.49441,-1.49441 0,-0.82535 0.66907,-1.49442 1.49441,-1.49442 0.82535,0 1.49442,0.66907 1.49442,1.49442 z"
       style="fill:#000000;fill-opacity:1;fill-rule:nonzero;stroke:none"
       transform="matrix(1.3333333,0,0,-1.3333333,32.798667,251.544)" />
    <path
       id="path42"
       d="M 178.58467,46.77216 V 38.26814"
       style="fill:none;stroke:#000000;stroke-width:0.3985;stroke-linecap:butt;stroke-linejoin:miter;stroke-miterlimit:10;stroke-dasharray:none;stroke-opacity:1"
       transform="matrix(1.3333333,0,0,-1.3333333,32.798667,251.544)" />
    <path
       id="path43"
       d="m 180.07909,42.52016 c 0,0.82534 -0.66907,1.49441 -1.49442,1.49441 -0.82535,0 -1.49441,-0.66907 -1.49441,-1.49441 0,-0.82535 0.66906,-1.49442 1.49441,-1.49442 0.82535,0 1.49442,0.66907 1.49442,1.49442 z"
       style="fill:#000000;fill-opacity:1;fill-rule:nonzero;stroke:none"
       transform="matrix(1.3333333,0,0,-1.3333333,32.798667,251.544)" />
    <path
       id="path44"
       d="M 187.0887,55.2762 V 46.77217"
       style="fill:none;stroke:#000000;stroke-width:0.3985;stroke-linecap:butt;stroke-linejoin:miter;stroke-miterlimit:10;stroke-dasharray:none;stroke-opacity:1"
       transform="matrix(1.3333333,0,0,-1.3333333,32.798667,251.544)" />
    <path
       id="path45"
       d="m 188.58311,51.02419 c 0,0.82534 -0.66906,1.49441 -1.49441,1.49441 -0.82535,0 -1.49442,-0.66907 -1.49442,-1.49441 0,-0.82535 0.66907,-1.49442 1.49442,-1.49442 0.82535,0 1.49441,0.66907 1.49441,1.49442 z"
       style="fill:#000000;fill-opacity:1;fill-rule:nonzero;stroke:none"
       transform="matrix(1.3333333,0,0,-1.3333333,32.798667,251.544)" />
    <path
       id="path46"
       d="M 195.59274,55.2762 V 46.77217"
       style="fill:none;stroke:#000000;stroke-width:0.3985;stroke-linecap:butt;stroke-linejoin:miter;stroke-miterlimit:10;stroke-dasharray:none;stroke-opacity:1"
       transform="matrix(1.3333333,0,0,-1.3333333,32.798667,251.544)" />
    <path
       id="path47"
       d="m 197.08716,51.02419 c 0,0.82534 -0.66908,1.49441 -1.49442,1.49441 -0.82534,0 -1.49441,-0.66907 -1.49441,-1.49441 0,-0.82535 0.66907,-1.49442 1.49441,-1.49442 0.82534,0 1.49442,0.66907 1.49442,1.49442 z"
       style="fill:#000000;fill-opacity:1;fill-rule:nonzero;stroke:none"
       transform="matrix(1.3333333,0,0,-1.3333333,32.798667,251.544)" />
    <path
       id="path48"
       d="M 204.09677,55.2762 V 46.77217"
       style="fill:none;stroke:#000000;stroke-width:0.3985;stroke-linecap:butt;stroke-linejoin:miter;stroke-miterlimit:10;stroke-dasharray:none;stroke-opacity:1"
       transform="matrix(1.3333333,0,0,-1.3333333,32.798667,251.544)" />
    <path
       id="path49"
       d="m 205.59119,51.02419 c 0,0.82534 -0.66907,1.49441 -1.49442,1.49441 -0.82535,0 -1.49441,-0.66907 -1.49441,-1.49441 0,-0.82535 0.66906,-1.49442 1.49441,-1.49442 0.82535,0 1.49442,0.66907 1.49442,1.49442 z"
       style="fill:#000000;fill-opacity:1;fill-rule:nonzero;stroke:none"
       transform="matrix(1.3333333,0,0,-1.3333333,32.798667,251.544)" />
    <path
       id="path50"
       d="M 212.6008,55.2762 V 46.77217"
       style="fill:none;stroke:#000000;stroke-width:0.3985;stroke-linecap:butt;stroke-linejoin:miter;stroke-miterlimit:10;stroke-dasharray:none;stroke-opacity:1"
       transform="matrix(1.3333333,0,0,-1.3333333,32.798667,251.544)" />
    <path
       id="path51"
       d="m 214.09521,51.02419 c 0,0.82534 -0.66906,1.49441 -1.49441,1.49441 -0.82535,0 -1.49442,-0.66907 -1.49442,-1.49441 0,-0.82535 0.66907,-1.49442 1.49442,-1.49442 0.82535,0 1.49441,0.66907 1.49441,1.49442 z"
       style="fill:#000000;fill-opacity:1;fill-rule:nonzero;stroke:none"
       transform="matrix(1.3333333,0,0,-1.3333333,32.798667,251.544)" />
    <path
       id="path52"
       d="M 221.10483,55.2762 V 46.77217"
       style="fill:none;stroke:#000000;stroke-width:0.3985;stroke-linecap:butt;stroke-linejoin:miter;stroke-miterlimit:10;stroke-dasharray:none;stroke-opacity:1"
       transform="matrix(1.3333333,0,0,-1.3333333,32.798667,251.544)" />
    <path
       id="path53"
       d="m 222.59924,51.02419 c 0,0.82534 -0.66906,1.49441 -1.49441,1.49441 -0.82535,0 -1.49442,-0.66907 -1.49442,-1.49441 0,-0.82535 0.66907,-1.49442 1.49442,-1.49442 0.82535,0 1.49441,0.66907 1.49441,1.49442 z"
       style="fill:#000000;fill-opacity:1;fill-rule:nonzero;stroke:none"
       transform="matrix(1.3333333,0,0,-1.3333333,32.798667,251.544)" />
    <path
       id="path54"
       d="M 229.60887,55.2762 V 46.77217"
       style="fill:none;stroke:#000000;stroke-width:0.3985;stroke-linecap:butt;stroke-linejoin:miter;stroke-miterlimit:10;stroke-dasharray:none;stroke-opacity:1"
       transform="matrix(1.3333333,0,0,-1.3333333,32.798667,251.544)" />
    <path
       id="path55"
       d="m 231.10329,51.02419 c 0,0.82534 -0.66909,1.49441 -1.49442,1.49441 -0.82535,0 -1.49441,-0.66907 -1.49441,-1.49441 0,-0.82535 0.66906,-1.49442 1.49441,-1.49442 0.82533,0 1.49442,0.66907 1.49442,1.49442 z"
       style="fill:#000000;fill-opacity:1;fill-rule:nonzero;stroke:none"
       transform="matrix(1.3333333,0,0,-1.3333333,32.798667,251.544)" />
    <path
       id="path56"
       d="M 238.1129,55.2762 V 46.77217"
       style="fill:none;stroke:#000000;stroke-width:0.3985;stroke-linecap:butt;stroke-linejoin:miter;stroke-miterlimit:10;stroke-dasharray:none;stroke-opacity:1"
       transform="matrix(1.3333333,0,0,-1.3333333,32.798667,251.544)" />
    <path
       id="path57"
       d="m 239.60732,51.02419 c 0,0.82534 -0.66907,1.49441 -1.49442,1.49441 -0.82535,0 -1.49442,-0.66907 -1.49442,-1.49441 0,-0.82535 0.66907,-1.49442 1.49442,-1.49442 0.82535,0 1.49442,0.66907 1.49442,1.49442 z"
       style="fill:#000000;fill-opacity:1;fill-rule:nonzero;stroke:none"
       transform="matrix(1.3333333,0,0,-1.3333333,32.798667,251.544)" />
    <path
       id="path58"
       d="M 246.61693,55.2762 V 46.77217"
       style="fill:none;stroke:#000000;stroke-width:0.3985;stroke-linecap:butt;stroke-linejoin:miter;stroke-miterlimit:10;stroke-dasharray:none;stroke-opacity:1"
       transform="matrix(1.3333333,0,0,-1.3333333,32.798667,251.544)" />
    <path
       id="path59"
       d="m 248.11134,51.02419 c 0,0.82534 -0.66906,1.49441 -1.49441,1.49441 -0.82535,0 -1.49442,-0.66907 -1.49442,-1.49441 0,-0.82535 0.66907,-1.49442 1.49442,-1.49442 0.82535,0 1.49441,0.66907 1.49441,1.49442 z"
       style="fill:#000000;fill-opacity:1;fill-rule:nonzero;stroke:none"
       transform="matrix(1.3333333,0,0,-1.3333333,32.798667,251.544)" />
    <path
       id="path60"
       d="M 255.12096,55.2762 V 46.77217"
       style="fill:none;stroke:#000000;stroke-width:0.3985;stroke-linecap:butt;stroke-linejoin:miter;stroke-miterlimit:10;stroke-dasharray:none;stroke-opacity:1"
       transform="matrix(1.3333333,0,0,-1.3333333,32.798667,251.544)" />
    <path
       id="path61"
       d="m 256.61537,51.02419 c 0,0.82534 -0.66907,1.49441 -1.49441,1.49441 -0.82535,0 -1.49442,-0.66907 -1.49442,-1.49441 0,-0.82535 0.66907,-1.49442 1.49442,-1.49442 0.82534,0 1.49441,0.66907 1.49441,1.49442 z"
       style="fill:#000000;fill-opacity:1;fill-rule:nonzero;stroke:none"
       transform="matrix(1.3333333,0,0,-1.3333333,32.798667,251.544)" />
    <path
       id="path62"
       d="M 0,0 H 260.2511"
       style="fill:none;stroke:#000000;stroke-width:0.79701;stroke-linecap:butt;stroke-linejoin:miter;stroke-miterlimit:10;stroke-dasharray:none;stroke-opacity:1"
       transform="matrix(1.3333333,0,0,-1.3333333,32.798667,251.544)" />
    <path
       id="path63"
       d="M 5.44046,0 1.28699,1.5706 2.66432,0 1.28699,-1.5706 Z"
       style="fill:#000000;fill-opacity:1;fill-rule:nonzero;stroke:#000000;stroke-width:0.79701;stroke-linecap:butt;stroke-linejoin:round;stroke-miterlimit:10;stroke-dasharray:none;stroke-opacity:1"
       transform="matrix(1.3333333,0,0,-1.3333333,376.51337,251.544)" />
    <path
       id="path64"
       d="m 2.2489063,-4.3606562 h 1.0195312 c 0.2226563,0 0.328125,0 0.328125,-0.2226563 C 3.5965625,-4.7005 3.4910938,-4.7005 3.291875,-4.7005 H 2.3309375 C 2.729375,-6.247375 2.77625,-6.4700312 2.77625,-6.5403437 c 0,-0.1757813 -0.1289062,-0.2929688 -0.3164062,-0.2929688 -0.023437,0 -0.328125,0.011719 -0.4335938,0.3984375 L 1.604375,-4.7005 h -1.03125 c -0.2109375,0 -0.328125,0 -0.328125,0.1992188 0,0.140625 0.09375,0.140625 0.3046875,0.140625 H 1.510625 c -0.78515625,3.09375 -0.8203125,3.28125 -0.8203125,3.4804687 0,0.5859375 0.4101563,0.99609375 0.9960938,0.99609375 1.1132812,0 1.734375,-1.59374995 1.734375,-1.67578125 0,-0.1054687 -0.082031,-0.1054687 -0.1289063,-0.1054687 -0.09375,0 -0.1054687,0.023437 -0.1640625,0.1523437 -0.46875,1.125 -1.0429687,1.39453125 -1.4179687,1.39453125 -0.2226563,0 -0.3398438,-0.140625 -0.3398438,-0.50390625 0,-0.2578125 0.023437,-0.33984375 0.070312,-0.5273437 z m 0,0"
       style="fill:#000000;fill-opacity:1;fill-rule:nonzero;stroke:none"
       aria-label="t"
       transform="matrix(1.3333333,0,0,1.3333333,389.67333,256.01733)" />
    <path
       id="path65"
       d="m 0,-17.00806 v 183.7148"
       style="fill:none;stroke:#000000;stroke-width:0.79701;stroke-linecap:butt;stroke-linejoin:miter;stroke-miterlimit:10;stroke-dasharray:none;stroke-opacity:1"
       transform="matrix(1.3333333,0,0,-1.3333333,32.798667,251.544)" />
    <path
       id="path66"
       d="M 5.44046,0 1.28699,1.5706 2.66432,0 1.28699,-1.5706 Z"
       style="fill:#000000;fill-opacity:1;fill-rule:nonzero;stroke:#000000;stroke-width:0.79701;stroke-linecap:butt;stroke-linejoin:round;stroke-miterlimit:10;stroke-dasharray:none;stroke-opacity:1"
       transform="matrix(0,-1.3333333,-1.3333333,0,32.798667,32.555107)" />
    <g
       id="g66"
       aria-label="U[V]"
       transform="matrix(1.3333333,0,0,1.3333333,15.928,15.756)">
      <path
         id="path67"
         d="m 6.9270469,-6.3033281 c 0.1054687,-0.4453125 0.3046875,-0.7734375 1.1835937,-0.8085938 0.046875,0 0.1875,-0.011719 0.1875,-0.2226562 0,-0.011719 0,-0.1171875 -0.1523437,-0.1171875 -0.3515625,0 -0.7382813,0.035156 -1.1132813,0.035156 -0.3632812,0 -0.7734375,-0.035156 -1.125,-0.035156 -0.070312,0 -0.1992187,0 -0.1992187,0.2226562 0,0.1171875 0.1054687,0.1171875 0.1992187,0.1171875 0.6210938,0.011719 0.7382813,0.234375 0.7382813,0.4804688 0,0.035156 -0.023437,0.1992187 -0.035156,0.234375 l -0.984375,3.890625 c -0.3632812,1.4648437 -1.6171875,2.41406248 -2.7070312,2.41406248 -0.75,0 -1.3359375,-0.48046875 -1.3359375,-1.41796878 0,-0.023437 0,-0.375 0.1171875,-0.8554687 l 1.0664062,-4.2421875 c 0.09375,-0.3984375 0.1171875,-0.5039063 0.9140625,-0.5039063 0.28125,0 0.3632813,0 0.3632813,-0.2226562 0,-0.1171875 -0.1171875,-0.1171875 -0.1523438,-0.1171875 -0.3046875,0 -1.0898437,0.035156 -1.3945312,0.035156 -0.3164063,0 -1.0898438,-0.035156 -1.40625,-0.035156 -0.082031,0 -0.21093752,0 -0.21093752,0.2226562 0,0.1171875 0.10546875,0.1171875 0.30468752,0.1171875 0.023437,0 0.234375,0 0.421875,0.023437 0.1992187,0.023437 0.2929687,0.035156 0.2929687,0.1757813 0,0.058594 -0.1171875,0.515625 -0.1875,0.7734375 l -0.234375,0.9609375 c -0.1054687,0.421875 -0.62109372,2.484375 -0.66796872,2.6953125 -0.0820313,0.3046875 -0.0820313,0.46875 -0.0820313,0.6328125 0,1.32421873 0.99609382,2.08593748 2.14453132,2.08593748 1.3710936,0 2.7304686,-1.23046875 3.0820311,-2.67187498 z m 0,0"
         style="fill:#000000;fill-opacity:1;fill-rule:nonzero;stroke:none" />
      <path
         id="path68"
         d="M 13.234664,2.7318281 V 2.2982344 H 12.179977 V -7.7447344 h 1.054687 V -8.1783281 H 11.746383 V 2.7318281 Z m 0,0"
         style="fill:#000000;fill-opacity:1;fill-rule:nonzero;stroke:none" />
      <path
         id="path69"
         d="m 20.342086,-6.2095781 c 0.527344,-0.84375 0.984375,-0.8789063 1.394531,-0.9023438 0.128906,-0.011719 0.140625,-0.1992187 0.140625,-0.2109375 0,-0.082031 -0.05859,-0.1289062 -0.140625,-0.1289062 -0.28125,0 -0.597656,0.035156 -0.902344,0.035156 -0.351562,0 -0.726562,-0.035156 -1.078125,-0.035156 -0.05859,0 -0.199218,0 -0.199218,0.2109375 0,0.1171875 0.09375,0.1289062 0.175781,0.1289062 0.292969,0.023437 0.492187,0.1289063 0.492187,0.3632813 0,0.1640625 -0.164062,0.3984375 -0.164062,0.4101562 l -3.339844,5.3203125 -0.75,-5.765625 c 0,-0.1875 0.257813,-0.328125 0.761719,-0.328125 0.152344,0 0.269531,0 0.269531,-0.2226562 0,-0.09375 -0.09375,-0.1171875 -0.152344,-0.1171875 -0.433593,0 -0.914062,0.035156 -1.359375,0.035156 -0.1875,0 -0.398437,-0.011719 -0.597656,-0.011719 -0.199219,0 -0.398437,-0.023437 -0.585937,-0.023437 -0.08203,0 -0.210938,0 -0.210938,0.2109375 0,0.1289062 0.105469,0.1289062 0.269531,0.1289062 0.621094,0 0.621094,0.09375 0.65625,0.375 l 0.867188,6.72656253 c 0.03516,0.22265625 0.07031,0.24609375 0.210937,0.24609375 0.175782,0 0.222657,-0.046875 0.316407,-0.1875 z m 0,0"
         style="fill:#000000;fill-opacity:1;fill-rule:nonzero;stroke:none" />
      <path
         id="path70"
         d="m 24.010055,-8.1783281 h -1.5 v 0.4335937 h 1.066406 V 2.2982344 h -1.066406 v 0.4335937 h 1.5 z m 0,0"
         style="fill:#000000;fill-opacity:1;fill-rule:nonzero;stroke:none" />
    </g>
    <path
       id="path71"
       d="M 0,0 H -2.98883"
       style="fill:none;stroke:#000000;stroke-width:0.79701;stroke-linecap:butt;stroke-linejoin:miter;stroke-miterlimit:10;stroke-dasharray:none;stroke-opacity:1"
       transform="matrix(1.3333333,0,0,-1.3333333,32.798667,251.544)" />
    <path
       id="path72"
       d="M -16.114,-7.1512 H -3.38733 V 7.15121 H -16.114 Z"
       style="fill:#ffffff;fill-opacity:1;fill-rule:nonzero;stroke:none"
       transform="matrix(1.3333333,0,0,-1.3333333,32.798667,251.544)" />
    <path
       id="path73"
       d="m 5.0147422,-3.4923359 c 0,-0.8671875 -0.046875,-1.7460938 -0.4335938,-2.5546875 -0.5039062,-1.0429688 -1.3945312,-1.21875 -1.8515625,-1.21875 -0.65625,0 -1.453125,0.28125 -1.89843746,1.3007812 -0.3515625,0.75 -0.41015625,1.6054688 -0.41015625,2.4726563 0,0.8203125 0.046875,1.8046875 0.4921875,2.62499996 0.46875001,0.890625 1.26562501,1.1015625 1.80468751,1.1015625 0.5859375,0 1.4179687,-0.22265625 1.8984375,-1.26562496 0.3515625,-0.75 0.3984375,-1.59375 0.3984375,-2.4609375 z m -2.296875,3.4921874625 c -0.421875,0 -1.0664063,-0.2695312525 -1.265625,-1.3242187625 -0.1171875,-0.65625 -0.1171875,-1.6523437 -0.1171875,-2.296875 0,-0.703125 0,-1.4179687 0.082031,-2.0039062 0.2109375,-1.3007813 1.03125,-1.40625 1.3007813,-1.40625 0.3632812,0 1.078125,0.1992187 1.2890625,1.2773437 0.1054687,0.609375 0.1054687,1.4414063 0.1054687,2.1328125 0,0.8203125 0,1.5585938 -0.1171875,2.2617188 -0.1640625,1.03124996 -0.7851562,1.3593749625 -1.2773435,1.3593749625 z m 0,0"
       style="fill:#000000;fill-opacity:1;fill-rule:nonzero;stroke:none"
       aria-label="0"
       transform="matrix(1.3333333,0,0,1.3333333,16.161333,256.23067)" />
    <path
       id="path74"
       d="M 0,127.56047 H -2.98883"
       style="fill:none;stroke:#000000;stroke-width:0.79701;stroke-linecap:butt;stroke-linejoin:miter;stroke-miterlimit:10;stroke-dasharray:none;stroke-opacity:1"
       transform="matrix(1.3333333,0,0,-1.3333333,32.798667,251.544)" />
    <path
       id="path75"
       d="m -24.59895,120.40927 h 21.21162 v 14.30241 h -21.21162 z"
       style="fill:#ffffff;fill-opacity:1;fill-rule:nonzero;stroke:none"
       transform="matrix(1.3333333,0,0,-1.3333333,32.798667,251.544)" />
    <path
       id="path76"
       d="m 3.1638047,-3.8434922 c 0.890625,-0.2929687 1.5234375,-1.0546875 1.5234375,-1.921875 0,-0.890625 -0.9609375,-1.5 -2.0039063,-1.5 -1.1015625,0 -1.93359371,0.65625 -1.93359371,1.4882813 0,0.3515625 0.24609375,0.5625 0.56250001,0.5625 0.3398437,0 0.5507812,-0.234375 0.5507812,-0.5507813 0,-0.5507812 -0.515625,-0.5507812 -0.6796875,-0.5507812 0.3398438,-0.5390625 1.0664063,-0.6796875 1.453125,-0.6796875 0.4453125,0 1.0546875,0.2460937 1.0546875,1.2304687 0,0.1289063 -0.023437,0.7617188 -0.3046875,1.2421875 -0.328125,0.515625 -0.703125,0.5507813 -0.9726562,0.5625 -0.09375,0.011719 -0.3515625,0.035156 -0.4335938,0.035156 -0.082031,0.011719 -0.1640625,0.023437 -0.1640625,0.1289062 0,0.1171875 0.082031,0.1171875 0.2695313,0.1171875 h 0.4804687 c 0.890625,0 1.3007813,0.75 1.3007813,1.8164063 0,1.47656246 -0.7617188,1.79296871 -1.2421875,1.79296871 -0.46875,0 -1.2773438,-0.17578125 -1.66406251,-0.8203125 0.38671871,0.046875 0.71484371,-0.18750001 0.71484371,-0.60937501 0,-0.3867187 -0.2929687,-0.609375 -0.609375,-0.609375 -0.25781246,0 -0.60937496,0.1523438 -0.60937496,0.6328125 0,0.99609376 1.01953126,1.71093751 2.20312496,1.71093751 1.3359375,0 2.3203125,-0.984375 2.3203125,-2.09765621 0,-0.9023438 -0.6796875,-1.7460938 -1.8164062,-1.9804685 z m 4.3886719,3.26953126 c 0,-0.31640625 -0.2695313,-0.58593746 -0.5859375,-0.58593746 -0.3164063,0 -0.5742188,0.26953121 -0.5742188,0.58593746 0,0.31640625 0.2578125,0.5742187525 0.5742188,0.5742187525 0.3164062,0 0.5859375,-0.2578125025 0.5859375,-0.5742187525 z M 11.64818,-3.8434922 c 0.890625,-0.2929687 1.523437,-1.0546875 1.523437,-1.921875 0,-0.890625 -0.960937,-1.5 -2.003906,-1.5 -1.101563,0 -1.9335938,0.65625 -1.9335938,1.4882813 0,0.3515625 0.2460937,0.5625 0.5625,0.5625 0.3398438,0 0.5507808,-0.234375 0.5507808,-0.5507813 0,-0.5507812 -0.5156246,-0.5507812 -0.6796871,-0.5507812 0.3398441,-0.5390625 1.0664061,-0.6796875 1.4531251,-0.6796875 0.445312,0 1.054687,0.2460937 1.054687,1.2304687 0,0.1289063 -0.02344,0.7617188 -0.304687,1.2421875 -0.328125,0.515625 -0.703125,0.5507813 -0.972656,0.5625 -0.09375,0.011719 -0.351563,0.035156 -0.433594,0.035156 -0.08203,0.011719 -0.164063,0.023437 -0.164063,0.1289062 0,0.1171875 0.08203,0.1171875 0.269532,0.1171875 h 0.480468 c 0.890625,0 1.300782,0.75 1.300782,1.8164063 0,1.47656246 -0.761719,1.79296871 -1.242188,1.79296871 -0.46875,0 -1.2773436,-0.17578125 -1.6640623,-0.8203125 0.3867187,0.046875 0.7148433,-0.18750001 0.7148433,-0.60937501 0,-0.3867187 -0.2929683,-0.609375 -0.6093746,-0.609375 -0.2578125,0 -0.609375,0.1523438 -0.609375,0.6328125 0,0.99609376 1.0195313,1.71093751 2.2031246,1.71093751 1.335938,0 2.320313,-0.984375 2.320313,-2.09765621 0,-0.9023438 -0.679688,-1.7460938 -1.816406,-1.9804685 z m 0,0"
       style="fill:#000000;fill-opacity:1;fill-rule:nonzero;stroke:none"
       aria-label="3.3"
       transform="matrix(1.3333333,0,0,1.3333333,4.848,86.152)" />
  </g>
</svg>
