<?xml version="1.0" encoding="UTF-8" standalone="no"?>
<svg
   viewBox="0 0 500 500"
   version="1.1"
   id="svg11"
   sodipodi:docname="ECPC_logo_simple_text-as-object.svg"
   inkscape:version="1.4 (e7c3feb1, 2024-10-09)"
   xmlns:inkscape="http://www.inkscape.org/namespaces/inkscape"
   xmlns:sodipodi="http://sodipodi.sourceforge.net/DTD/sodipodi-0.dtd"
   xmlns="http://www.w3.org/2000/svg"
   xmlns:svg="http://www.w3.org/2000/svg">
  <sodipodi:namedview
     id="namedview11"
     pagecolor="#ffffff"
     bordercolor="#000000"
     borderopacity="0.25"
     inkscape:showpageshadow="2"
     inkscape:pageopacity="0.0"
     inkscape:pagecheckerboard="0"
     inkscape:deskcolor="#d1d1d1"
     inkscape:zoom="0.97902731"
     inkscape:cx="287.53028"
     inkscape:cy="257.39834"
     inkscape:window-width="1512"
     inkscape:window-height="831"
     inkscape:window-x="0"
     inkscape:window-y="39"
     inkscape:window-maximized="0"
     inkscape:current-layer="svg11" />
  <defs
     id="defs1">
    <style
       id="style1">
      .cls-1 {
        fill: #0071bc;
        stroke: #0071bc;
        stroke-miterlimit: 10;
        stroke-width: 7px;
      }

      .cls-2 {
        fill: #00addc;
        stroke-width: 0px;
      }

      .cls-3 {
        fill: #fff;
        font-family: FiraCodeRoman-Bold, 'Fira Code';
        font-size: 226.53px;
        font-variation-settings: 'wght' 700;
        font-weight: 700;
      }
    </style>
  </defs>
  <g
     id="shadow">
    <rect
       class="cls-1"
       x="5.35"
       y="12.37"
       width="214.23"
       height="225.26"
       rx="28"
       ry="28"
       id="rect1" />
    <rect
       class="cls-1"
       x="250.57"
       y="12.68"
       width="214.23"
       height="225.26"
       rx="28"
       ry="28"
       id="rect2" />
    <g
       id="g4">
      <rect
         class="cls-1"
         x="33.45"
         y="261.69"
         width="214.23"
         height="225.26"
         rx="28"
         ry="28"
         id="rect3" />
      <rect
         class="cls-1"
         x="281.6"
         y="261.69"
         width="214.23"
         height="225.26"
         rx="28"
         ry="28"
         id="rect4" />
    </g>
  </g>
  <g
     id="front">
    <rect
       class="cls-2"
       x="247.14"
       y="9.23"
       width="210.3"
       height="210.3"
       rx="28"
       ry="28"
       id="rect5" />
    <rect
       class="cls-2"
       x="1.83"
       y="8.81"
       width="210.3"
       height="210.3"
       rx="28"
       ry="28"
       id="rect6" />
    <rect
       class="cls-2"
       x="29.64"
       y="258.13"
       width="210.3"
       height="210.3"
       rx="28"
       ry="28"
       id="rect7" />
    <rect
       class="cls-2"
       x="278.13"
       y="258.13"
       width="210.3"
       height="210.3"
       rx="28"
       ry="28"
       id="rect8" />
  </g>
  <path
     d="M 173.57331,195.31 H 54.445967 V 30.611185 H 173.57331 V 62.466966 H 96.699121 v 28.42686 H 168.0428 V 122.74961 H 96.699121 v 40.70461 h 76.874189 z"
     id="text8"
     class="cls-3"
     style="font-weight:700;font-size:226.53px;font-family:FiraCodeRoman-Bold, 'Fira Code';font-variation-settings:'wght' 700;fill:#ffffff"
     aria-label="E" />
  <path
     d="m 373.52674,195.66771 q -18.36132,0 -33.95738,-5.41991 -15.48545,-5.41991 -26.65709,-16.14911 -11.17165,-10.72921 -17.36583,-26.76771 -6.08357,-16.0385 -6.08357,-37.05446 0,-19.578036 5.86235,-35.505927 5.86235,-15.92789 17.034,-27.320756 10.7292,-10.950425 26.54648,-16.923384 15.92789,-5.972959 34.73165,-5.972959 10.39737,0 18.69315,1.216714 8.40639,1.106103 15.48545,2.986479 7.41089,2.101597 13.38385,4.756245 6.08357,2.544038 10.6186,4.756245 v 39.930337 h -4.86686 q -3.09709,-2.654648 -7.85334,-6.30479 -4.64563,-3.650141 -10.61859,-7.189673 -6.08357,-3.539531 -13.16263,-5.972959 -7.07906,-2.433427 -15.15362,-2.433427 -8.95944,0 -17.03399,2.875869 -8.07456,2.765259 -14.9324,9.291269 -6.52601,6.30479 -10.61859,16.702163 -3.98198,10.397373 -3.98198,25.219164 0,15.48545 4.31381,25.88282 4.42441,10.39737 11.06103,16.37033 6.74723,6.08357 15.04301,8.73822 8.29578,2.54404 16.37033,2.54404 7.74273,0 15.26423,-2.32282 7.63211,-2.32282 14.04751,-6.30479 5.41991,-3.2077 10.06555,-6.85784 4.64563,-3.65014 7.63211,-6.30479 h 4.42442 v 39.37728 q -6.19418,2.76526 -11.83531,5.19869 -5.64113,2.43343 -11.83531,4.20319 -8.07456,2.32282 -15.15362,3.53953 -7.07906,1.21672 -19.46742,1.21672 z"
     id="text9"
     class="cls-3"
     style="font-weight:700;font-size:226.53px;font-family:FiraCodeRoman-Bold, 'Fira Code';font-variation-settings:'wght' 700;fill:#ffffff"
     aria-label="C" />
  <path
     d="m 403.72672,449.3977 q -18.36132,0 -33.95738,-5.4199 -15.48544,-5.41991 -26.65709,-16.14912 -11.17165,-10.7292 -17.36583,-26.7677 -6.08356,-16.0385 -6.08356,-37.05447 0,-19.57803 5.86234,-35.50592 5.86235,-15.92789 17.034,-27.32076 10.7292,-10.95042 26.54648,-16.92338 15.92789,-5.97296 34.73165,-5.97296 10.39738,0 18.69315,1.21671 8.40639,1.10611 15.48545,2.98648 7.41089,2.1016 13.38385,4.75625 6.08357,2.54404 10.6186,4.75624 v 39.93034 h -4.86686 q -3.09709,-2.65465 -7.85333,-6.30479 -4.64564,-3.65014 -10.6186,-7.18967 -6.08357,-3.53953 -13.16263,-5.97296 -7.07906,-2.43343 -15.15362,-2.43343 -8.95944,0 -17.03399,2.87587 -8.07456,2.76526 -14.9324,9.29127 -6.52601,6.30479 -10.61859,16.70216 -3.98197,10.39737 -3.98197,25.21916 0,15.48545 4.3138,25.88282 4.42441,10.39738 11.06103,16.37034 6.74724,6.08357 15.04301,8.73821 8.29578,2.54404 16.37033,2.54404 7.74273,0 15.26423,-2.32282 7.63212,-2.32281 14.04752,-6.30479 5.4199,-3.2077 10.06554,-6.85784 4.64563,-3.65014 7.63211,-6.30479 h 4.42442 v 39.37729 q -6.19418,2.76526 -11.83531,5.19868 -5.64113,2.43343 -11.83531,4.2032 -8.07455,2.32281 -15.15362,3.53953 -7.07906,1.21671 -19.46742,1.21671 z"
     id="text10"
     class="cls-3"
     style="font-weight:700;font-size:226.53px;font-family:FiraCodeRoman-Bold, 'Fira Code';font-variation-settings:'wght' 700;fill:#ffffff"
     aria-label="C" />
  <path
     d="m 228.64609,332.66806 q 0,11.06103 -3.87136,21.67963 -3.87136,10.50798 -11.06104,17.69765 -9.84432,9.73371 -22.01146,14.71118 -12.05653,4.97746 -30.08601,4.97746 H 135.18034 V 445.38 H 92.705969 V 280.68119 h 69.905741 q 15.70667,0 26.43587,2.76526 10.83982,2.65465 19.1356,8.07456 9.95493,6.52601 15.15361,16.70216 5.3093,10.17615 5.3093,24.44489 z m -43.91231,0.99549 q 0,-6.96845 -3.76075,-11.94592 -3.76075,-5.08807 -8.73822,-7.07906 -6.63662,-2.65465 -12.94141,-2.87587 -6.30479,-0.33183 -16.81277,-0.33183 h -7.30029 v 49.33222 h 12.16714 q 10.83982,0 17.80827,-1.32733 7.07906,-1.32732 11.83531,-5.30929 4.09258,-3.53954 5.86235,-8.40639 1.88037,-4.97747 1.88037,-12.05653 z"
     id="text11"
     class="cls-3"
     style="font-weight:700;font-size:226.53px;font-family:FiraCodeRoman-Bold, 'Fira Code';font-variation-settings:'wght' 700;fill:#ffffff"
     aria-label="P" />
</svg>
