<?xml version="1.0" encoding="UTF-8" standalone="no"?>
<!-- Created with Inkscape (http://www.inkscape.org/) -->

<svg
   version="1.1"
   id="svg2"
   width="276.50705"
   height="83.66703"
   viewBox="0 0 276.50705 83.66703"
   xmlns="http://www.w3.org/2000/svg"
   xmlns:svg="http://www.w3.org/2000/svg">
  <defs
     id="defs6">
    <clipPath
       clipPathUnits="userSpaceOnUse"
       id="clipPath18">
      <path
         d="M 0,2 V 7338 H 7528 V 2 Z"
         id="path16" />
    </clipPath>
  </defs>
  <g
     id="g8"
     transform="matrix(1.3333333,0,0,-1.3333333,-505.99645,567.00481)">
    <g
       id="g10"
       transform="scale(0.1)">
      <g
         id="g12">
        <g
           id="g14"
           clip-path="url(#clipPath18)">
          <path
             d="m 3799.97,3630.03 432.71,249.82 -432.71,249.83 432.71,-249.83 105.99,-105.99 105.99,105.99 106,-105.99 105.99,105.99 105.99,-105.99 105.99,105.99 106,-105.99 105.99,105.99 105.99,-105.99 105.99,105.99 432.71,-249.82 -432.71,249.82 432.71,249.83"
             style="fill:none;stroke:#000000;stroke-width:9.993;stroke-linecap:round;stroke-linejoin:round;stroke-miterlimit:10;stroke-dasharray:none;stroke-opacity:1"
             id="path20" />
          <path
             d="m 5863.78,4209.62 -27.3,7.32 -29.62,-28.64 -40.96,10.97 2.32,35.96 -18.65,12.31 -10.97,-40.95 -39.61,-11.34 -24.63,-37.29 -40.95,10.97 -7.31,-27.3 35.95,-2.32 2.68,-44.61 37.29,-24.62 -15.97,-32.3 27.31,-7.32 10.97,40.96 44.61,2.67 29.62,28.64 40.95,-10.97 -1.34,22.31 -32.29,15.97 10.97,40.95 39.61,11.33 7.32,27.3"
             style="fill:#000000;fill-opacity:1;fill-rule:evenodd;stroke:none"
             id="path22" />
          <path
             d="m 5863.78,4209.62 -27.3,7.32 -29.62,-28.64 -40.96,10.97 2.32,35.96 -18.65,12.31 -10.97,-40.95 -39.61,-11.34 -24.63,-37.29 -40.95,10.97 -7.31,-27.3 35.95,-2.32 2.68,-44.61 37.29,-24.62 -15.97,-32.3 27.31,-7.32 10.97,40.96 44.61,2.67 29.62,28.64 40.95,-10.97 -1.34,22.31 -32.29,15.97 10.97,40.95 39.61,11.33 7.32,27.3"
             style="fill:none;stroke:#000000;stroke-width:9.993;stroke-linecap:round;stroke-linejoin:round;stroke-miterlimit:10;stroke-dasharray:none;stroke-opacity:1"
             id="path24" />
        </g>
      </g>
    </g>
  </g>
</svg>
