<?xml version="1.0" encoding="UTF-8" standalone="no"?>
<!-- Created with Inkscape (http://www.inkscape.org/) -->

<svg
   version="1.1"
   id="svg1"
   width="282.55066"
   height="181.23466"
   viewBox="0 0 282.55066 181.23466"
   sodipodi:docname="I,U-curve-resistor.svg"
   inkscape:version="1.3 (0e150ed6c4, 2023-07-21)"
   xmlns:inkscape="http://www.inkscape.org/namespaces/inkscape"
   xmlns:sodipodi="http://sodipodi.sourceforge.net/DTD/sodipodi-0.dtd"
   xmlns="http://www.w3.org/2000/svg"
   xmlns:svg="http://www.w3.org/2000/svg">
  <defs
     id="defs1" />
  <sodipodi:namedview
     id="namedview1"
     pagecolor="#ffffff"
     bordercolor="#666666"
     borderopacity="1.0"
     inkscape:showpageshadow="2"
     inkscape:pageopacity="0.0"
     inkscape:pagecheckerboard="0"
     inkscape:deskcolor="#d1d1d1"
     inkscape:zoom="6.5164132"
     inkscape:cx="141.25869"
     inkscape:cy="90.617335"
     inkscape:window-width="2560"
     inkscape:window-height="1377"
     inkscape:window-x="1912"
     inkscape:window-y="-8"
     inkscape:window-maximized="1"
     inkscape:current-layer="g1">
    <inkscape:page
       x="0"
       y="0"
       inkscape:label="1"
       id="page1"
       width="282.55066"
       height="181.23466"
       margin="0"
       bleed="0" />
  </sodipodi:namedview>
  <g
     id="g1"
     inkscape:groupmode="layer"
     inkscape:label="1">
    <path
       id="path1"
       d="M 21.2601,27.6382 V 14.882"
       style="fill:none;stroke:#000000;stroke-width:0.3985;stroke-linecap:butt;stroke-linejoin:miter;stroke-miterlimit:10;stroke-dasharray:none;stroke-opacity:1"
       transform="matrix(1.3333333,0,0,-1.3333333,17.234667,161.9)" />
    <path
       id="path2"
       d="m 22.75452,21.2601 c 0,0.82535 -0.66907,1.49442 -1.49442,1.49442 -0.82535,0 -1.49441,-0.66907 -1.49441,-1.49442 0,-0.82535 0.66906,-1.49441 1.49441,-1.49441 0.82535,0 1.49442,0.66906 1.49442,1.49441 z"
       style="fill:#ffffff;fill-opacity:1;fill-rule:nonzero;stroke:#000000;stroke-width:0.3985;stroke-linecap:butt;stroke-linejoin:miter;stroke-miterlimit:10;stroke-dasharray:none;stroke-opacity:1"
       transform="matrix(1.3333333,0,0,-1.3333333,17.234667,161.9)" />
    <path
       id="path3"
       d="M 42.5202,31.89014 V 19.13396"
       style="fill:none;stroke:#000000;stroke-width:0.3985;stroke-linecap:butt;stroke-linejoin:miter;stroke-miterlimit:10;stroke-dasharray:none;stroke-opacity:1"
       transform="matrix(1.3333333,0,0,-1.3333333,17.234667,161.9)" />
    <path
       id="path4"
       d="m 44.01462,25.51204 c 0,0.82535 -0.66907,1.49441 -1.49442,1.49441 -0.82535,0 -1.49441,-0.66906 -1.49441,-1.49441 0,-0.82535 0.66906,-1.49442 1.49441,-1.49442 0.82535,0 1.49442,0.66907 1.49442,1.49442 z"
       style="fill:#ffffff;fill-opacity:1;fill-rule:nonzero;stroke:#000000;stroke-width:0.3985;stroke-linecap:butt;stroke-linejoin:miter;stroke-miterlimit:10;stroke-dasharray:none;stroke-opacity:1"
       transform="matrix(1.3333333,0,0,-1.3333333,17.234667,161.9)" />
    <path
       id="path5"
       d="M 63.7803,59.52834 V 46.77216"
       style="fill:none;stroke:#000000;stroke-width:0.3985;stroke-linecap:butt;stroke-linejoin:miter;stroke-miterlimit:10;stroke-dasharray:none;stroke-opacity:1"
       transform="matrix(1.3333333,0,0,-1.3333333,17.234667,161.9)" />
    <path
       id="path6"
       d="m 65.27472,53.15024 c 0,0.82535 -0.66907,1.49441 -1.49442,1.49441 -0.82534,0 -1.49441,-0.66906 -1.49441,-1.49441 0,-0.82534 0.66907,-1.49442 1.49441,-1.49442 0.82535,0 1.49442,0.66908 1.49442,1.49442 z"
       style="fill:#ffffff;fill-opacity:1;fill-rule:nonzero;stroke:#000000;stroke-width:0.3985;stroke-linecap:butt;stroke-linejoin:miter;stroke-miterlimit:10;stroke-dasharray:none;stroke-opacity:1"
       transform="matrix(1.3333333,0,0,-1.3333333,17.234667,161.9)" />
    <path
       id="path7"
       d="M 85.04042,74.41037 V 61.65417"
       style="fill:none;stroke:#000000;stroke-width:0.3985;stroke-linecap:butt;stroke-linejoin:miter;stroke-miterlimit:10;stroke-dasharray:none;stroke-opacity:1"
       transform="matrix(1.3333333,0,0,-1.3333333,17.234667,161.9)" />
    <path
       id="path8"
       d="m 86.53484,68.03227 c 0,0.82533 -0.66907,1.49442 -1.49442,1.49442 -0.82535,0 -1.49442,-0.66909 -1.49442,-1.49442 0,-0.82535 0.66907,-1.49441 1.49442,-1.49441 0.82535,0 1.49442,0.66906 1.49442,1.49441 z"
       style="fill:#ffffff;fill-opacity:1;fill-rule:nonzero;stroke:#000000;stroke-width:0.3985;stroke-linecap:butt;stroke-linejoin:miter;stroke-miterlimit:10;stroke-dasharray:none;stroke-opacity:1"
       transform="matrix(1.3333333,0,0,-1.3333333,17.234667,161.9)" />
    <path
       id="path9"
       d="M 106.30052,74.41037 V 61.65417"
       style="fill:none;stroke:#000000;stroke-width:0.3985;stroke-linecap:butt;stroke-linejoin:miter;stroke-miterlimit:10;stroke-dasharray:none;stroke-opacity:1"
       transform="matrix(1.3333333,0,0,-1.3333333,17.234667,161.9)" />
    <path
       id="path10"
       d="m 107.79494,68.03227 c 0,0.82533 -0.66907,1.49442 -1.49442,1.49442 -0.82535,0 -1.49442,-0.66909 -1.49442,-1.49442 0,-0.82535 0.66907,-1.49441 1.49442,-1.49441 0.82535,0 1.49442,0.66906 1.49442,1.49441 z"
       style="fill:#ffffff;fill-opacity:1;fill-rule:nonzero;stroke:#000000;stroke-width:0.3985;stroke-linecap:butt;stroke-linejoin:miter;stroke-miterlimit:10;stroke-dasharray:none;stroke-opacity:1"
       transform="matrix(1.3333333,0,0,-1.3333333,17.234667,161.9)" />
    <path
       id="path11"
       d="M 127.56062,95.67047 V 82.91428"
       style="fill:none;stroke:#000000;stroke-width:0.3985;stroke-linecap:butt;stroke-linejoin:miter;stroke-miterlimit:10;stroke-dasharray:none;stroke-opacity:1"
       transform="matrix(1.3333333,0,0,-1.3333333,17.234667,161.9)" />
    <path
       id="path12"
       d="m 129.05504,89.29237 c 0,0.82535 -0.66907,1.49442 -1.49442,1.49442 -0.82533,0 -1.49441,-0.66907 -1.49441,-1.49442 0,-0.82534 0.66908,-1.49441 1.49441,-1.49441 0.82535,0 1.49442,0.66907 1.49442,1.49441 z"
       style="fill:#ffffff;fill-opacity:1;fill-rule:nonzero;stroke:#000000;stroke-width:0.3985;stroke-linecap:butt;stroke-linejoin:miter;stroke-miterlimit:10;stroke-dasharray:none;stroke-opacity:1"
       transform="matrix(1.3333333,0,0,-1.3333333,17.234667,161.9)" />
    <path
       id="path13"
       d="m 0,0 6.20062,4.42874 6.20066,4.42908 6.20065,4.42908 6.20064,4.42877 6.20065,4.42906 6.20065,4.42907 6.20066,4.42911 6.20063,4.42875 6.20066,4.42907 6.20063,4.42908 6.20067,4.42909 6.20064,4.42874 6.20065,4.4291 6.20066,4.42909 6.20063,4.42874 6.20066,4.42908 6.20064,4.42907 6.20065,4.4291 6.20065,4.42875 6.20064,4.42908 6.20067,4.42909 6.20064,4.42908 6.20065,4.42874 6.20064,4.42909"
       style="fill:none;stroke:#000000;stroke-width:1.19553;stroke-linecap:butt;stroke-linejoin:miter;stroke-miterlimit:10;stroke-dasharray:none;stroke-opacity:1"
       transform="matrix(1.3333333,0,0,-1.3333333,17.234667,161.9)" />
    <path
       id="path14"
       d="m 1.8160625,-3.6203672 v -1.2070312 l -1.51171875,0.1289062 v 0.3398438 c 0.76171875,0 0.85546875,0.070312 0.85546875,0.609375 v 2.91796871 c 0,0.4921875 -0.1289062,0.4921875 -0.85546875,0.4921875 V 7.265625e-4 C 0.72621875,-0.01099219 1.2418438,-0.03442969 1.5465313,-0.03442969 c 0.4335937,0 0.9492187,0 1.3828125,0.0351562525 V -0.33911719 H 2.7066875 c -0.8085937,0 -0.8320312,-0.1171875 -0.8320312,-0.515625 V -2.5305234 c 0,-1.078125 0.4570312,-2.0507813 1.2890625,-2.0507813 0.082031,0 0.09375,0 0.1171875,0.011719 -0.035156,0.011719 -0.2460938,0.140625 -0.2460938,0.421875 0,0.3046875 0.2226563,0.46875 0.46875,0.46875 0.1992188,0 0.46875,-0.1289063 0.46875,-0.4804688 0,-0.3515625 -0.3398437,-0.6679687 -0.8085937,-0.6679687 -0.796875,0 -1.1835938,0.7382812 -1.3476563,1.207031 z m 4.5556641,3.04687501 c 0,-0.31640625 -0.2695313,-0.58593751 -0.5859375,-0.58593751 -0.3164063,0 -0.5742188,0.26953126 -0.5742188,0.58593751 0,0.31640625 0.2578125,0.5742187525 0.5742188,0.5742187525 0.3164062,0 0.5859375,-0.2578125025 0.5859375,-0.5742187525 z M 8.5807109,-2.3781797 c 0,-1.78125 0.890625,-2.2382812 1.4765621,-2.2382812 0.09375,0 0.785157,0.011719 1.160157,0.4101562 -0.445313,0.023437 -0.515625,0.3515625 -0.515625,0.4921875 0,0.2929688 0.199218,0.5039063 0.503906,0.5039063 0.292969,0 0.503906,-0.1875 0.503906,-0.5039063 0,-0.75 -0.832031,-1.171875 -1.664062,-1.171875 -1.3710941,0 -2.3671878,1.171875 -2.3671878,2.53125 0,1.39453126 1.078125,2.47265626 2.3437498,2.47265626 1.464844,0 1.804688,-1.30078126 1.804688,-1.41796876 0,-0.1054687 -0.105469,-0.1054687 -0.140625,-0.1054687 -0.09375,0 -0.117188,0.046875 -0.140625,0.1054687 -0.316407,1.01953126 -1.019532,1.14843751 -1.429688,1.14843751 -0.5742186,0 -1.5351561,-0.46875 -1.5351561,-2.22656251 z m 5.6689451,1.80468751 c 0,-0.31640625 -0.269531,-0.58593751 -0.585937,-0.58593751 -0.316406,0 -0.574219,0.26953126 -0.574219,0.58593751 0,0.31640625 0.257813,0.5742187525 0.574219,0.5742187525 0.316406,0 0.585937,-0.2578125025 0.585937,-0.5742187525 z M 27.527,-3.5617734 c 0.164063,0 0.363281,0 0.363281,-0.2226563 0,-0.2226562 -0.199218,-0.2226562 -0.351562,-0.2226562 h -6.539063 c -0.152343,0 -0.363281,0 -0.363281,0.2226562 0,0.2226563 0.210938,0.2226563 0.375,0.2226563 z m 0.01172,2.109375 c 0.152344,0 0.351562,0 0.351562,-0.2109375 0,-0.2226563 -0.199218,-0.2226563 -0.363281,-0.2226563 h -6.515625 c -0.164062,0 -0.375,0 -0.375,0.2226563 0,0.2109375 0.210938,0.2109375 0.363281,0.2109375 z m 9.870117,-12.9111326 c 0,-0.257813 0,-0.28125 -0.257813,-0.28125 -0.667968,0.703125 -1.628906,0.703125 -1.980468,0.703125 v 0.328125 c 0.210937,0 0.855468,0 1.429687,-0.28125 v 5.6484372 c 0,0.3984375 -0.03516,0.5273438 -1.019531,0.5273438 h -0.351563 v 0.3398437 c 0.386719,-0.035156 1.335938,-0.035156 1.769532,-0.035156 0.445312,0 1.394531,0 1.769531,0.035156 V -7.719 h -0.351563 c -0.972656,0 -1.007812,-0.1171875 -1.007812,-0.5273438 z m 0,0"
       style="fill:#000000;fill-opacity:1;fill-rule:nonzero;stroke:none"
       aria-label="r.c.=&#10;1"
       transform="matrix(1.3333333,0,0,1.3333333,221.29733,24.792)" />
    <path
       id="path15"
       d="M 0,0 H 8.367"
       style="fill:none;stroke:#000000;stroke-width:0.398;stroke-linecap:butt;stroke-linejoin:miter;stroke-miterlimit:10;stroke-dasharray:none;stroke-opacity:1"
       transform="matrix(1.3333333,0,0,-1.3333333,264.952,21.156)" />
    <path
       id="path16"
       d="M 4.0906875,-6.7029766 C 4.161,-6.9607891 4.1961563,-7.0662578 4.395375,-7.1014141 c 0.1054688,-0.011719 0.4453125,-0.011719 0.6679688,-0.011719 0.7734375,0 1.9804687,0 1.9804687,1.078125 0,0.375 -0.1640625,1.125 -0.5976562,1.546875 -0.28125,0.2929687 -0.8554688,0.6328125 -1.8398438,0.6328125 h -1.21875 z M 5.661,-3.7146953 c 1.1015625,-0.234375 2.4023438,-0.9960938 2.4023438,-2.0976563 0,-0.9375 -0.984375,-1.640625 -2.4140625,-1.640625 H 2.5438125 c -0.2226562,0 -0.3164062,0 -0.3164062,0.2226563 0,0.1171875 0.09375,0.1171875 0.3046875,0.1171875 0.023437,0 0.234375,0 0.4101562,0.023437 0.1992188,0.023437 0.3046875,0.035156 0.3046875,0.1757812 0,0.035156 -0.011719,0.070312 -0.046875,0.1992188 l -1.4648437,5.85937499 c -0.1054688,0.43359375 -0.1289063,0.515625 -0.9960938,0.515625 -0.1875,0 -0.29296875,0 -0.29296875,0.22265625 0,0.1171874975 0.12890625,0.1171874975 0.15234375,0.1171874975 0.3046875,0 1.0664063,-0.0351562475 1.3828125,-0.0351562475 0.3046875,0 1.078125,0.0351562475 1.3828125,0.0351562475 0.082031,0 0.2109375,0 0.2109375,-0.2226562475 0,-0.1171875 -0.09375,-0.1171875 -0.3046875,-0.1171875 -0.3984375,0 -0.703125,0 -0.703125,-0.19921875 0,-0.0585938 0.023437,-0.1171875 0.035156,-0.17578125 L 3.31725,-3.6092266 h 1.3007813 c 0.9960937,0 1.1835937,0.609375 1.1835937,0.9960938 0,0.1640625 -0.082031,0.4921875 -0.1523437,0.75 -0.070312,0.3046875 -0.1757813,0.703125 -0.1757813,0.92578124 0,1.171875 1.3125,1.171875 1.453125,1.171875 0.9257813,0 1.3125,-1.1015625 1.3125,-1.25390624 0,-0.1289063 -0.1171875,-0.1289063 -0.1289062,-0.1289063 -0.1054688,0 -0.1289063,0.082031 -0.140625,0.15234379 -0.28125,0.80859375 -0.75,0.9960937475 -0.9960938,0.9960937475 -0.3632812,0 -0.4335937,-0.2343749975 -0.4335937,-0.6679687475 0,-0.33984379 0.058594,-0.89062499 0.1054687,-1.24218749 0.023437,-0.1523438 0.046875,-0.3632813 0.046875,-0.515625 0,-0.8320313 -0.7382812,-1.171875 -1.03125,-1.2890625 z m 0,0"
       style="fill:#000000;fill-opacity:1;fill-rule:nonzero;stroke:none"
       aria-label="R"
       transform="matrix(1.3333333,0,0,1.3333333,264.952,34.769333)" />
    <path
       id="path17"
       d="M 0,0 H 148.11337"
       style="fill:none;stroke:#000000;stroke-width:0.79701;stroke-linecap:butt;stroke-linejoin:miter;stroke-miterlimit:10;stroke-dasharray:none;stroke-opacity:1"
       transform="matrix(1.3333333,0,0,-1.3333333,17.234667,161.9)" />
    <path
       id="path18"
       d="M -1.55415,2.0722 C -1.42464,1.29512 0,0.1295 0.38852,0 0,-0.1295 -1.42464,-1.29512 -1.55415,-2.0722"
       style="fill:none;stroke:#000000;stroke-width:0.6376;stroke-linecap:round;stroke-linejoin:round;stroke-miterlimit:10;stroke-dasharray:none;stroke-opacity:1"
       transform="matrix(1.3333333,0,0,-1.3333333,214.71916,161.9)" />
    <path
       id="path19"
       d="m 6.9260781,-6.3033672 c 0.1054688,-0.4453125 0.3046875,-0.7734375 1.1835938,-0.8085937 0.046875,0 0.1875,-0.011719 0.1875,-0.2226563 0,-0.011719 0,-0.1171875 -0.1523438,-0.1171875 -0.3515625,0 -0.7382812,0.035156 -1.1132812,0.035156 -0.3632813,0 -0.7734375,-0.035156 -1.125,-0.035156 -0.070312,0 -0.1992188,0 -0.1992188,0.2226563 0,0.1171875 0.1054688,0.1171875 0.1992188,0.1171875 0.6210937,0.011719 0.7382812,0.234375 0.7382812,0.4804687 0,0.035156 -0.023437,0.1992188 -0.035156,0.234375 l -0.984375,3.890625 c -0.3632813,1.4648438 -1.6171875,2.41406251 -2.7070313,2.41406251 -0.75,0 -1.3359375,-0.48046875 -1.3359375,-1.41796871 0,-0.023437 0,-0.375 0.1171875,-0.8554688 l 1.0664063,-4.2421875 c 0.09375,-0.3984375 0.1171875,-0.5039062 0.9140625,-0.5039062 0.28125,0 0.3632812,0 0.3632812,-0.2226563 0,-0.1171875 -0.1171875,-0.1171875 -0.1523437,-0.1171875 -0.3046875,0 -1.0898438,0.035156 -1.3945313,0.035156 -0.3164062,0 -1.0898437,-0.035156 -1.40625,-0.035156 -0.082031,0 -0.21093747,0 -0.21093747,0.2226563 0,0.1171875 0.10546875,0.1171875 0.30468747,0.1171875 0.023437,0 0.234375,0 0.421875,0.023437 0.1992188,0.023437 0.2929688,0.035156 0.2929688,0.1757812 0,0.058594 -0.1171875,0.515625 -0.1875,0.7734375 l -0.234375,0.9609375 c -0.1054688,0.421875 -0.62109377,2.484375 -0.66796877,2.6953125 -0.0820313,0.3046875 -0.0820313,0.46875 -0.0820313,0.6328125 0,1.32421876 0.99609377,2.08593751 2.14453127,2.08593751 1.3710938,0 2.7304688,-1.23046875 3.0820313,-2.67187501 z m 0,0"
       style="fill:#000000;fill-opacity:1;fill-rule:nonzero;stroke:none"
       aria-label="U"
       transform="matrix(1.3333333,0,0,1.3333333,221.03867,166.86933)" />
    <path
       id="path20"
       d="M 0,0 V 105.59315"
       style="fill:none;stroke:#000000;stroke-width:0.79701;stroke-linecap:butt;stroke-linejoin:miter;stroke-miterlimit:10;stroke-dasharray:none;stroke-opacity:1"
       transform="matrix(1.3333333,0,0,-1.3333333,17.234667,161.9)" />
    <path
       id="path21"
       d="M -1.55415,2.0722 C -1.42464,1.29512 0,0.1295 0.38852,0 0,-0.1295 -1.42464,-1.29512 -1.55415,-2.0722"
       style="fill:none;stroke:#000000;stroke-width:0.6376;stroke-linecap:round;stroke-linejoin:round;stroke-miterlimit:10;stroke-dasharray:none;stroke-opacity:1"
       transform="matrix(0,-1.3333333,-1.3333333,0,17.234667,21.109133)" />
    <path
       id="path22"
       d="m 4.0767578,-6.6085781 c 0.1054688,-0.3984375 0.1289063,-0.5039063 0.9960938,-0.5039063 0.2578125,0 0.3515625,0 0.3515625,-0.2109375 0,-0.1289062 -0.1289063,-0.1289062 -0.1640625,-0.1289062 -0.3164063,0 -1.125,0.035156 -1.4414063,0.035156 -0.328125,0 -1.125,-0.035156 -1.453125,-0.035156 -0.070312,0 -0.2226562,0 -0.2226562,0.2226562 0,0.1171875 0.1054687,0.1171875 0.3046875,0.1171875 0.46875,0 0.7617187,0 0.7617187,0.2109375 0,0.046875 0,0.070312 -0.023437,0.1757813 l -1.4765625,5.87109372 c -0.09375,0.41015625 -0.1289062,0.515625 -0.99609374,0.515625 -0.24609375,0 -0.33984375,0 -0.33984375,0.22265625 0,0.117187505 0.12890625,0.117187505 0.1640625,0.117187505 0.31640625,0 1.11328129,-0.035156255 1.42968749,-0.035156255 0.328125,0 1.125,0.035156255 1.453125,0.035156255 0.09375,0 0.2226563,0 0.2226563,-0.210937505 0,-0.12890625 -0.082031,-0.12890625 -0.328125,-0.12890625 -0.1992188,0 -0.2460938,0 -0.46875,-0.0234375 -0.234375,-0.0234375 -0.2695313,-0.0585938 -0.2695313,-0.1875 0,-0.0820313 0.023437,-0.1640625 0.035156,-0.24609375 z m 0,0"
       style="fill:#000000;fill-opacity:1;fill-rule:nonzero;stroke:none"
       aria-label="I"
       transform="matrix(1.3333333,0,0,1.3333333,13.466667,14.788)" />
    <path
       id="path23"
       d="m 5.0153672,-3.4921484 c 0,-0.8671875 -0.046875,-1.7460938 -0.4335938,-2.5546875 -0.5039062,-1.0429688 -1.3945312,-1.21875 -1.8515625,-1.21875 -0.65625,0 -1.453125,0.28125 -1.89843746,1.3007812 -0.3515625,0.75 -0.41015625,1.6054688 -0.41015625,2.4726563 0,0.8203125 0.046875,1.8046875 0.4921875,2.62499996 0.46875001,0.890625 1.26562501,1.1015625 1.80468751,1.1015625 0.5859375,0 1.4179687,-0.22265625 1.8984375,-1.26562496 0.3515625,-0.75 0.3984375,-1.59375 0.3984375,-2.4609375 z M 2.7184922,3.90625e-5 c -0.421875,0 -1.0664063,-0.2695312525 -1.265625,-1.3242187625 -0.1171875,-0.65625 -0.1171875,-1.6523437 -0.1171875,-2.296875 0,-0.703125 0,-1.4179687 0.082031,-2.0039062 0.2109375,-1.3007813 1.03125,-1.40625 1.3007813,-1.40625 0.3632812,0 1.078125,0.1992187 1.2890625,1.2773437 0.1054687,0.609375 0.1054687,1.4414063 0.1054687,2.1328125 0,0.8203125 0,1.5585938 -0.1171875,2.2617188 C 3.8317734,-0.32808594 3.2106797,3.90625e-5 2.7184922,3.90625e-5 Z m 0,0"
       style="fill:#000000;fill-opacity:1;fill-rule:nonzero;stroke:none"
       aria-label="0"
       transform="matrix(1.3333333,0,0,1.3333333,4.848,176.38667)" />
  </g>
</svg>
