<?xml version="1.0" encoding="UTF-8" standalone="no"?>
<!-- Created with Inkscape (http://www.inkscape.org/) -->

<svg
   version="1.1"
   id="svg1"
   width="159.93333"
   height="186.5"
   viewBox="0 0 159.93333 186.5"
   sodipodi:docname="layout-schematic_p4.svg"
   inkscape:version="1.3 (0e150ed6c4, 2023-07-21)"
   xmlns:inkscape="http://www.inkscape.org/namespaces/inkscape"
   xmlns:sodipodi="http://sodipodi.sourceforge.net/DTD/sodipodi-0.dtd"
   xmlns="http://www.w3.org/2000/svg"
   xmlns:svg="http://www.w3.org/2000/svg">
  <defs
     id="defs1" />
  <sodipodi:namedview
     id="namedview1"
     pagecolor="#ffffff"
     bordercolor="#666666"
     borderopacity="1.0"
     inkscape:showpageshadow="2"
     inkscape:pageopacity="0.0"
     inkscape:pagecheckerboard="0"
     inkscape:deskcolor="#d1d1d1"
     inkscape:zoom="6.3324397"
     inkscape:cx="546.9456"
     inkscape:cy="80.616638"
     inkscape:window-width="2560"
     inkscape:window-height="1377"
     inkscape:window-x="1912"
     inkscape:window-y="-8"
     inkscape:window-maximized="1"
     inkscape:current-layer="g16">
    <inkscape:page
       x="0"
       y="0"
       inkscape:label="1"
       id="page1"
       width="159.93333"
       height="186.5"
       margin="0"
       bleed="0" />
    <inkscape:page
       x="179.93333"
       y="0"
       inkscape:label="2"
       id="page2"
       width="159.93333"
       height="186.5" />
    <inkscape:page
       x="359.86667"
       y="0"
       inkscape:label="3"
       id="page7"
       width="159.93333"
       height="186.5" />
    <inkscape:page
       x="539.8"
       y="0"
       inkscape:label="4"
       id="page16"
       width="159.93333"
       height="186.5" />
  </sodipodi:namedview>
  <g
     id="g1"
     inkscape:groupmode="layer"
     inkscape:label="1">
    <path
       id="path1"
       d="M 0,0 V -139.47876 H 119.55322 V 0 Z"
       style="fill:none;stroke:#000000;stroke-width:0.3985;stroke-linecap:butt;stroke-linejoin:miter;stroke-miterlimit:10;stroke-dasharray:none;stroke-opacity:1"
       transform="matrix(1.3333333,0,0,-1.3333333,0.26533333,0.26533333)" />
    <path
       id="path2"
       d="m 5.0861172,-1.1824453 c 0,-0.3164063 -0.3164063,-0.3164063 -0.3867188,-0.3164063 -0.1757812,0 -0.28125,0.023437 -0.3515625,0.2460938 -0.070312,0.140625 -0.28125,0.65624999 -1.0898437,0.65624999 -0.9257813,0 -1.7109375,-0.76171879 -1.7109375,-1.75781249 0,-0.5273438 0.3046875,-1.78125 1.78125,-1.78125 0.234375,0 0.65625,0 0.65625,0.1054687 0.011719,0.375 0.2109375,0.5273438 0.4804687,0.5273438 0.2578125,0 0.4921875,-0.1875 0.4921875,-0.5039063 0,-0.796875 -1.1367187,-0.796875 -1.6289062,-0.796875 -1.875,0 -2.53125001,1.4882813 -2.53125001,2.4492188 0,1.3125 1.01953121,2.42578124 2.40234371,2.42578124 1.5117188,0 1.8867188,-1.07812504 1.8867188,-1.25390624 z m 5.2705078,-0.9023438 c 0.222656,0 0.433594,0 0.433594,-0.3984375 0,-1.2421875 -0.703125,-2.3203125 -2.121094,-2.3203125 -1.2890625,0 -2.34375,1.0898438 -2.34375,2.4375 0,1.3359375 1.1015625,2.43750004 2.5078125,2.43750004 1.4414065,0 1.9570315,-0.984375 1.9570315,-1.25390624 0,-0.3164063 -0.316406,-0.3164063 -0.386719,-0.3164063 -0.1875,0 -0.28125,0.035156 -0.351562,0.2460938 -0.2460942,0.55078124 -0.8320317,0.65624999 -1.1367192,0.65624999 -0.8203125,0 -1.640625,-0.55078129 -1.8164063,-1.48828129 z m -3.2460937,-0.65625 c 0.1523437,-0.796875 0.796875,-1.3945312 1.5585937,-1.3945312 0.5742188,0 1.2539063,0.2695312 1.347656,1.3945312 z m 6.1611327,-1.453125 c 0,-0.3398437 0,-0.5039062 -0.445312,-0.5039062 h -0.796875 c -0.175782,0 -0.445313,0 -0.445313,0.3398437 0,0.328125 0.28125,0.328125 0.433594,0.328125 h 0.492187 v 3.36328129 h -0.480468 c -0.175782,0 -0.445313,0 -0.445313,0.33984375 0,0.328125 0.28125,0.328125 0.433594,0.328125 h 1.734375 c 0.152344,0 0.445312,0 0.445312,-0.328125 0,-0.33984375 -0.28125,-0.33984375 -0.445312,-0.33984375 H 13.271664 V -2.6004141 c 0,-1.0898437 0.796875,-1.5 1.359375,-1.5 0.574219,0 0.726563,0.3046875 0.726563,0.9609375 v 2.47265629 h -0.421875 c -0.175782,0 -0.445313,0 -0.445313,0.33984375 0,0.328125 0.292969,0.328125 0.445313,0.328125 h 1.664062 c 0.152344,0 0.445313,0 0.445313,-0.328125 0,-0.33984375 -0.28125,-0.33984375 -0.445313,-0.33984375 H 16.11932 V -3.1980703 c 0,-1.1015625 -0.5625,-1.5703125 -1.417968,-1.5703125 -0.738282,0 -1.230469,0.375 -1.429688,0.5742187 z m 6.336914,0.1640625 h 1.78125 c 0.164063,0 0.445313,0 0.445313,-0.328125 0,-0.3398437 -0.269532,-0.3398437 -0.445313,-0.3398437 h -1.78125 v -0.9023438 c 0,-0.1992187 0,-0.4453125 -0.375,-0.4453125 -0.386719,0 -0.386719,0.234375 -0.386719,0.4453125 v 0.9023438 h -0.949218 c -0.164063,0 -0.445313,0 -0.445313,0.3398437 0,0.328125 0.28125,0.328125 0.445313,0.328125 h 0.949218 v 2.6601563 c 0,1.04296874 0.75,1.44140624 1.546875,1.44140624 0.808594,0 1.6875,-0.46875 1.6875,-1.44140624 0,-0.1992188 0,-0.4335938 -0.386718,-0.4335938 -0.351563,0 -0.363282,0.234375 -0.363282,0.421875 -0.01172,0.66796879 -0.632812,0.78515629 -0.890625,0.78515629 -0.832031,0 -0.832031,-0.57421879 -0.832031,-0.84374999 z m 5.727539,2.0039063 c 0,-1.03125 0.644531,-2.0742188 1.957031,-2.0742188 0.01172,0.2578125 0.199219,0.4804688 0.46875,0.4804688 0.246094,0 0.457032,-0.1757813 0.457032,-0.46875 0,-0.2226563 -0.128907,-0.6796875 -1.03125,-0.6796875 -0.5625,0 -1.253907,0.1992187 -1.851563,0.890625 v -0.375 c 0,-0.3398438 -0.07031,-0.4453125 -0.445312,-0.4453125 h -1.195313 c -0.164062,0 -0.433594,0 -0.433594,0.328125 0,0.3398437 0.257813,0.3398437 0.433594,0.3398437 h 0.878906 v 3.36328129 h -0.878906 c -0.164062,0 -0.433594,0 -0.433594,0.328125 0,0.33984375 0.257813,0.33984375 0.433594,0.33984375 h 2.847656 c 0.164063,0 0.445313,0 0.445313,-0.328125 0,-0.33984375 -0.28125,-0.33984375 -0.445313,-0.33984375 h -1.207031 z m 7.294922,1.67578124 c 0.234375,0.33984375 0.761719,0.3515625 1.171875,0.3515625 0.304688,0 0.550781,0 0.550781,-0.33984375 0,-0.328125 -0.269531,-0.328125 -0.433593,-0.328125 -0.457032,0 -0.574219,-0.046875 -0.65625,-0.0820313 V -3.1043203 c 0,-0.7734375 -0.597657,-1.6992188 -2.167969,-1.6992188 -0.46875,0 -1.582031,0 -1.582031,0.796875 0,0.328125 0.234375,0.5039063 0.492187,0.5039063 0.164063,0 0.46875,-0.09375 0.480469,-0.5039063 0,-0.082031 0.01172,-0.09375 0.234375,-0.1171875 0.152344,-0.011719 0.292969,-0.011719 0.386719,-0.011719 0.832031,0 1.40625,0.3398437 1.40625,1.1132812 -1.933594,0.035156 -3.28125,0.5742188 -3.28125,1.6289063 0,0.74999999 0.691406,1.46484374 1.804687,1.46484374 0.398438,0 1.078125,-0.08203125 1.59375,-0.4218747 z M 32.513852,-2.3777578 v 0.9140625 c 0,0.2578125 0,0.48046874 -0.433594,0.67968749 -0.386719,0.1875 -0.878906,0.1875 -0.972656,0.1875 -0.667969,0 -1.125,-0.375 -1.125,-0.79687499 0,-0.5390625 0.949218,-0.9375 2.53125,-0.984375 z m 5.094726,-3.84375 c 0,-0.3398438 -0.07031,-0.4453125 -0.445312,-0.4453125 h -1.722657 c -0.175781,0 -0.445312,0 -0.445312,0.3398437 0,0.328125 0.28125,0.328125 0.433594,0.328125 h 1.417968 v 5.33203129 h -1.40625 c -0.175781,0 -0.445312,0 -0.445312,0.33984375 0,0.328125 0.28125,0.328125 0.433594,0.328125 h 3.597656 c 0.164062,0 0.433594,0 0.433594,-0.328125 0,-0.33984375 -0.269532,-0.33984375 -0.433594,-0.33984375 h -1.417969 z m 13.189453,2.1914062 c 0.328125,0 0.5625,0 0.5625,-0.3398437 0,-0.328125 -0.257812,-0.328125 -0.457031,-0.328125 h -1.253906 c -0.199219,0 -0.457032,0 -0.457032,0.328125 0,0.3398437 0.246094,0.3398437 0.457032,0.3398437 h 0.527343 l -0.539062,3.24609379 h -0.01172 c -0.04687,-0.28124999 -0.1875,-0.78515629 -0.316406,-1.23046879 -0.199219,-0.6914062 -0.234375,-0.8085937 -0.609375,-0.8085937 -0.117188,0 -0.316406,0 -0.433594,0.234375 -0.03516,0.082031 -0.46875,1.5820312 -0.515625,1.80468749 h -0.01172 L 47.165219,-4.0301016 h 0.539062 c 0.199219,0 0.457031,0 0.457031,-0.328125 0,-0.3398437 -0.246093,-0.3398437 -0.457031,-0.3398437 h -1.253906 c -0.199219,0 -0.457031,0 -0.457031,0.328125 0,0.3398437 0.222656,0.3398437 0.550781,0.3398437 l 0.65625,3.65625004 c 0.04687,0.2578125 0.08203,0.421875 0.515625,0.421875 0.433594,0 0.46875,-0.10546875 0.667969,-0.76171875 0.269531,-0.96093749 0.28125,-1.11328129 0.316406,-1.35937499 h 0.01172 c 0.04687,0.5742187 0.457031,1.83984374 0.503906,1.93359374 0.128906,0.1875 0.316406,0.1875 0.457031,0.1875 0.398438,0 0.433594,-0.17578125 0.480469,-0.421875 z m 4.122071,-0.2226562 c 0,-0.3398438 -0.07031,-0.4453125 -0.445313,-0.4453125 h -1.546875 c -0.164062,0 -0.445312,0 -0.445312,0.328125 0,0.3398437 0.28125,0.3398437 0.445312,0.3398437 h 1.230469 v 3.36328129 h -1.3125 c -0.175781,0 -0.445313,0 -0.445313,0.33984375 0,0.328125 0.28125,0.328125 0.445313,0.328125 h 3.210937 c 0.164063,0 0.457032,0 0.457032,-0.328125 0,-0.33984375 -0.292969,-0.33984375 -0.457032,-0.33984375 h -1.136718 z m 0,-1.875 c 0,-0.3046875 -0.246094,-0.5507813 -0.550782,-0.5507813 -0.304687,0 -0.539062,0.2460938 -0.539062,0.5507813 0,0.3046875 0.234375,0.5390625 0.539062,0.5390625 0.304688,0 0.550782,-0.234375 0.550782,-0.5390625 z m 6.254882,5.57812499 c 0,0.3984375 0,0.55078125 0.445313,0.55078125 h 0.796875 c 0.164062,0 0.445312,0 0.445312,-0.33984375 0,-0.328125 -0.292968,-0.328125 -0.445312,-0.328125 H 61.936703 V -6.2215078 c 0,-0.3398438 -0.07031,-0.4453125 -0.445312,-0.4453125 h -0.796875 c -0.175782,0 -0.445313,0 -0.445313,0.3398437 0,0.328125 0.28125,0.328125 0.433594,0.328125 h 0.492187 v 1.7226563 c -0.351562,-0.3164063 -0.808593,-0.4921875 -1.277343,-0.4921875 -1.183594,0 -2.226563,1.0429687 -2.226563,2.4257812 0,1.34765629 0.972656,2.41406254 2.132813,2.41406254 0.609375,0 1.066406,-0.3046875 1.371093,-0.62109375 z m 0,-2.34374999 v 0.7734375 c 0,0.6210937 -0.492187,1.52343749 -1.324218,1.52343749 -0.773438,0 -1.429688,-0.77343749 -1.429688,-1.74609379 0,-1.0546875 0.761719,-1.7578125 1.523438,-1.7578125 0.703125,0 1.230468,0.609375 1.230468,1.2070313 z m 4.368164,0.9726562 c -0.585937,0 -1.042968,-0.515625 -1.042968,-1.0898437 0,-0.6210938 0.480468,-1.1015625 1.042968,-1.1015625 0.585938,0 1.042969,0.515625 1.042969,1.0898437 0,0.6210938 -0.480469,1.1015625 -1.042969,1.1015625 z m -0.984375,0.3867188 c 0.03516,0.023437 0.445313,0.2695312 0.984375,0.2695312 1.007813,0 1.804688,-0.7851562 1.804688,-1.7578125 0,-0.328125 -0.105469,-0.6445312 -0.292969,-0.9492187 0.234375,-0.1289063 0.492188,-0.1757813 0.632813,-0.1875 0.07031,0.2929687 0.316406,0.375 0.433593,0.375 0.175782,0 0.433594,-0.1289063 0.433594,-0.4453125 0,-0.2578125 -0.210937,-0.5976563 -0.796875,-0.5976563 -0.117187,0 -0.65625,0.011719 -1.160156,0.3867188 -0.175781,-0.1171875 -0.550781,-0.328125 -1.054688,-0.328125 -1.03125,0 -1.804687,0.8203125 -1.804687,1.7460937 0,0.46875 0.1875,0.8320313 0.351562,1.0429688 -0.117187,0.1640625 -0.222656,0.4101562 -0.222656,0.7382812 0,0.37500004 0.164063,0.65625004 0.257813,0.78515629 -0.808594,0.4921875 -0.808594,1.23046875 -0.808594,1.34765625 0,0.93749996 1.148437,1.60546876 2.542969,1.60546876 1.394531,0 2.542968,-0.6796875 2.542968,-1.60546876 0,-0.3984375 -0.199218,-0.94921875 -0.75,-1.2421875 -0.140625,-0.0703125 -0.609375,-0.31640625 -1.582031,-0.31640625 h -0.773437 c -0.08203,0 -0.222657,0 -0.316407,-0.0234375 -0.164062,0 -0.222656,0 -0.351562,-0.15234375 C 64.50018,-0.99494531 64.50018,-1.2058828 64.50018,-1.2293203 c 0,-0.046875 0.01172,-0.1992188 0.05859,-0.3046875 z m 1.300782,3.375 c -1.089844,0 -1.910157,-0.46875 -1.910157,-0.94921876 0,-0.1875 0.09375,-0.5390625 0.445313,-0.76171875 0.269531,-0.17578125 0.375,-0.17578125 1.171875,-0.17578125 0.972656,0 2.203125,0 2.203125,0.9375 0,0.48046876 -0.820313,0.94921876 -1.910156,0.94921876 z m 7.49707,-3.9257813 c 0.222656,0 0.433594,0 0.433594,-0.3984375 0,-1.2421875 -0.703125,-2.3203125 -2.121094,-2.3203125 -1.289062,0 -2.34375,1.0898438 -2.34375,2.4375 0,1.3359375 1.101563,2.43750004 2.507813,2.43750004 1.441406,0 1.957031,-0.984375 1.957031,-1.25390624 0,-0.3164063 -0.316406,-0.3164063 -0.386719,-0.3164063 -0.1875,0 -0.28125,0.035156 -0.351562,0.2460938 -0.246094,0.55078124 -0.832032,0.65624999 -1.136719,0.65624999 -0.820313,0 -1.640625,-0.55078129 -1.816406,-1.48828129 z m -3.246094,-0.65625 c 0.152344,-0.796875 0.796875,-1.3945312 1.558594,-1.3945312 0.574219,0 1.253906,0.2695312 1.347656,1.3945312 z m 6.770508,-1.2890625 h 1.78125 c 0.164063,0 0.445313,0 0.445313,-0.328125 0,-0.3398437 -0.269532,-0.3398437 -0.445313,-0.3398437 h -1.78125 v -0.9023438 c 0,-0.1992187 0,-0.4453125 -0.375,-0.4453125 -0.386719,0 -0.386719,0.234375 -0.386719,0.4453125 v 0.9023438 h -0.949218 c -0.164063,0 -0.445313,0 -0.445313,0.3398437 0,0.328125 0.28125,0.328125 0.445313,0.328125 h 0.949218 v 2.6601563 c 0,1.04296874 0.75,1.44140624 1.546875,1.44140624 0.808594,0 1.6875,-0.46875 1.6875,-1.44140624 0,-0.1992188 0,-0.4335938 -0.386718,-0.4335938 -0.351563,0 -0.363282,0.234375 -0.363282,0.421875 -0.01172,0.66796879 -0.632812,0.78515629 -0.890625,0.78515629 -0.832031,0 -0.832031,-0.57421879 -0.832031,-0.84374999 z m 0,0"
       style="fill:#000000;fill-opacity:1;fill-rule:nonzero;stroke:none"
       aria-label="centralwidget"
       transform="matrix(1.3333333,0,0,1.3333333,5.3786667,14.268)" />
  </g>
  <g
     id="g2"
     inkscape:groupmode="layer"
     inkscape:label="2">
    <path
       id="path3"
       d="M 0,0 V -139.47876 H 119.55322 V 0 Z"
       style="fill:none;stroke:#000000;stroke-width:0.3985;stroke-linecap:butt;stroke-linejoin:miter;stroke-miterlimit:10;stroke-dasharray:none;stroke-opacity:1"
       transform="matrix(1.3333333,0,0,-1.3333333,180.19867,0.26533333)" />
    <path
       id="path4"
       d="m 4.6876797,-4.0301016 h 0.328125 c 0.1640625,0 0.4335937,0 0.4335937,-0.328125 0,-0.3398437 -0.2578125,-0.3398437 -0.4335937,-0.3398437 H 3.7384609 c -0.1640625,0 -0.4335937,0 -0.4335937,0.328125 0,0.3398437 0.2578125,0.3398437 0.4335937,0.3398437 H 4.0431484 L 2.8595547,-0.52619531 1.6642422,-4.0301016 h 0.3164062 c 0.1523438,0 0.4335938,0 0.4335938,-0.328125 0,-0.3398437 -0.2695313,-0.3398437 -0.4335938,-0.3398437 H 0.70330469 c -0.17578125,0 -0.4453125,0 -0.4453125,0.3398437 0,0.328125 0.28125,0.328125 0.4453125,0.328125 H 1.0314297 l 1.2539062,3.70312504 c 0.1289063,0.375 0.3398438,0.375 0.5742188,0.375 0.2109375,0 0.4570312,0 0.5742187,-0.36328125 z M 7.544125,-4.2293203 v -1.9921875 c 0,-0.3398438 -0.070312,-0.4453125 -0.4453125,-0.4453125 h -0.796875 c -0.1757812,0 -0.4453125,0 -0.4453125,0.3398437 0,0.328125 0.28125,0.328125 0.4335938,0.328125 h 0.4921875 v 5.55468754 c 0,0.2109375 0,0.4453125 0.3867187,0.4453125 0.375,0 0.375,-0.22265625 0.375,-0.4921875 0.4453125,0.45703125 0.9140625,0.5625 1.265625,0.5625 1.1835938,0 2.238281,-1.04296875 2.238281,-2.42578124 0,-1.3476563 -0.972656,-2.4140625 -2.1210935,-2.4140625 -0.5273437,0 -1.0195312,0.1992187 -1.3828125,0.5390625 z m 0,2.1445312 v -0.796875 c 0,-0.6445312 0.6328125,-1.21875 1.3125,-1.21875 0.8085938,0 1.441406,0.796875 1.441406,1.7460938 0,1.0429687 -0.7617185,1.75781249 -1.5234372,1.75781249 -0.8554688,0 -1.2304688,-0.96093749 -1.2304688,-1.48828129 z m 9.008789,-0.2695312 c 0,-1.359375 -1.019531,-2.4492188 -2.238281,-2.4492188 -1.21875,0 -2.238281,1.0898438 -2.238281,2.4492188 0,1.38281249 1.042968,2.42578124 2.238281,2.42578124 1.195312,0 2.238281,-1.0546875 2.238281,-2.42578124 z m -2.238281,1.75781249 c -0.808594,0 -1.488281,-0.82031249 -1.488281,-1.83984379 0,-0.984375 0.714843,-1.6992187 1.488281,-1.6992187 0.785156,0 1.488281,0.7148437 1.488281,1.6992187 0,1.0195313 -0.679687,1.83984379 -1.488281,1.83984379 z m 5.99707,-1.82812499 1.242188,-1.6054688 h 0.445312 c 0.152344,0 0.445313,0 0.445313,-0.328125 0,-0.3398437 -0.28125,-0.3398437 -0.445313,-0.3398437 h -1.277344 c -0.164062,0 -0.445312,0 -0.445312,0.328125 0,0.3398437 0.246094,0.3398437 0.539062,0.3398437 l -0.808593,1.1015625 -0.832032,-1.1015625 c 0.292969,0 0.527344,0 0.527344,-0.3398437 0,-0.328125 -0.269531,-0.328125 -0.433594,-0.328125 h -1.277343 c -0.164063,0 -0.445313,0 -0.445313,0.3398437 0,0.328125 0.292969,0.328125 0.445313,0.328125 h 0.433593 l 1.289063,1.6054688 -1.347656,1.75781249 h -0.445313 c -0.164062,0 -0.445312,0 -0.445312,0.33984375 0,0.328125 0.292968,0.328125 0.445312,0.328125 h 1.277344 c 0.164062,0 0.433594,0 0.433594,-0.328125 0,-0.33984375 -0.222657,-0.33984375 -0.5625,-0.33984375 l 0.9375,-1.33593749 0.972656,1.33593749 c -0.304688,0 -0.550781,0 -0.550781,0.33984375 0,0.328125 0.28125,0.328125 0.445312,0.328125 h 1.277344 c 0.152344,0 0.445312,0 0.445312,-0.328125 0,-0.33984375 -0.28125,-0.33984375 -0.445312,-0.33984375 h -0.445313 z m 0,0"
       style="fill:#000000;fill-opacity:1;fill-rule:nonzero;stroke:none"
       aria-label="vbox"
       transform="matrix(1.3333333,0,0,1.3333333,185.312,14.268)" />
    <path
       id="path5"
       d="m 9.96277,-39.85107 h 99.62768"
       style="fill:none;stroke:#bfbfbf;stroke-width:4.98138;stroke-linecap:round;stroke-linejoin:miter;stroke-miterlimit:10;stroke-dasharray:none;stroke-opacity:1"
       transform="matrix(1.3333333,0,0,-1.3333333,180.19867,0.26533333)" />
    <path
       id="path6"
       d="m 9.96277,-79.70215 h 99.62768"
       style="fill:none;stroke:#bfbfbf;stroke-width:4.98138;stroke-linecap:round;stroke-linejoin:miter;stroke-miterlimit:10;stroke-dasharray:none;stroke-opacity:1"
       transform="matrix(1.3333333,0,0,-1.3333333,180.19867,0.26533333)" />
    <path
       id="path7"
       d="m 9.96277,-119.55322 h 99.62768"
       style="fill:none;stroke:#bfbfbf;stroke-width:4.98138;stroke-linecap:round;stroke-linejoin:miter;stroke-miterlimit:10;stroke-dasharray:none;stroke-opacity:1"
       transform="matrix(1.3333333,0,0,-1.3333333,180.19867,0.26533333)" />
  </g>
  <g
     id="g7"
     inkscape:groupmode="layer"
     inkscape:label="3">
    <path
       id="path8"
       d="M 0,0 V -139.47876 H 119.55322 V 0 Z"
       style="fill:none;stroke:#bfbfbf;stroke-width:0.3985;stroke-linecap:butt;stroke-linejoin:miter;stroke-miterlimit:10;stroke-dasharray:none;stroke-opacity:1"
       transform="matrix(1.3333333,0,0,-1.3333333,360.132,0.26533333)" />
    <path
       id="path9"
       d="m 9.96277,-9.96277 v -89.66492 h 99.62768 v 89.66492 z"
       style="fill:none;stroke:#000000;stroke-width:0.3985;stroke-linecap:butt;stroke-linejoin:miter;stroke-miterlimit:10;stroke-dasharray:none;stroke-opacity:1"
       transform="matrix(1.3333333,0,0,-1.3333333,360.132,0.26533333)" />
    <path
       id="path10"
       d="m 2.4268281,-4.0311641 h 1.78125 c 0.1640625,0 0.4453125,0 0.4453125,-0.328125 0,-0.3398437 -0.2695312,-0.3398437 -0.4453125,-0.3398437 h -1.78125 v -0.9023438 c 0,-0.1992187 0,-0.4453125 -0.375,-0.4453125 -0.3867187,0 -0.3867187,0.234375 -0.3867187,0.4453125 v 0.9023438 H 0.71589063 c -0.1640625,0 -0.4453125,0 -0.4453125,0.3398437 0,0.328125 0.28125,0.328125 0.4453125,0.328125 H 1.6651094 v 2.6601563 c 0,1.04296874 0.75,1.44140624 1.546875,1.44140624 0.8085937,0 1.6875,-0.46875 1.6875,-1.44140624 0,-0.1992188 0,-0.4335938 -0.3867188,-0.4335938 -0.3515625,0 -0.3632812,0.234375 -0.3632812,0.421875 -0.011719,0.66796879 -0.6328125,0.78515629 -0.890625,0.78515629 -0.8320313,0 -0.8320313,-0.57421879 -0.8320313,-0.84374999 z m 7.9306639,1.9453125 c 0.222656,0 0.433594,0 0.433594,-0.3984375 0,-1.2421875 -0.703125,-2.3203125 -2.1210938,-2.3203125 -1.2890625,0 -2.34375,1.0898438 -2.34375,2.4375 0,1.3359375 1.1015625,2.43750004 2.5078125,2.43750004 1.4414063,0 1.9570313,-0.984375 1.9570313,-1.25390624 0,-0.3164063 -0.316406,-0.3164063 -0.386719,-0.3164063 -0.1875,0 -0.28125,0.035156 -0.351562,0.2460938 -0.2460941,0.55078124 -0.8320316,0.65624999 -1.1367191,0.65624999 -0.8203125,0 -1.640625,-0.55078129 -1.8164062,-1.48828129 z m -3.2460936,-0.65625 c 0.1523438,-0.796875 0.796875,-1.3945312 1.5585938,-1.3945312 0.5742187,0 1.2539062,0.2695312 1.3476558,1.3945312 z m 7.4707036,0.3164063 1.242187,-1.6054688 h 0.445313 c 0.152343,0 0.445312,0 0.445312,-0.328125 0,-0.3398437 -0.28125,-0.3398437 -0.445312,-0.3398437 h -1.277344 c -0.164063,0 -0.445313,0 -0.445313,0.328125 0,0.3398437 0.246094,0.3398437 0.539063,0.3398437 l -0.808594,1.1015625 -0.832031,-1.1015625 c 0.292969,0 0.527344,0 0.527344,-0.3398437 0,-0.328125 -0.269532,-0.328125 -0.433594,-0.328125 h -1.277344 c -0.164062,0 -0.445312,0 -0.445312,0.3398437 0,0.328125 0.292968,0.328125 0.445312,0.328125 h 0.433594 l 1.289062,1.6054688 -1.347656,1.75781249 h -0.445312 c -0.164063,0 -0.445313,0 -0.445313,0.33984375 0,0.3281249975 0.292969,0.3281249975 0.445313,0.3281249975 h 1.277343 c 0.164063,0 0.433594,0 0.433594,-0.3281249975 0,-0.33984375 -0.222656,-0.33984375 -0.5625,-0.33984375 l 0.9375,-1.33593749 0.972656,1.33593749 c -0.304687,0 -0.550781,0 -0.550781,0.33984375 0,0.3281249975 0.28125,0.3281249975 0.445313,0.3281249975 h 1.277343 c 0.152344,0 0.445313,0 0.445313,-0.3281249975 0,-0.33984375 -0.28125,-0.33984375 -0.445313,-0.33984375 h -0.445312 z m 5.024414,-1.6054688 h 1.78125 c 0.164062,0 0.445312,0 0.445312,-0.328125 0,-0.3398437 -0.269531,-0.3398437 -0.445312,-0.3398437 h -1.78125 v -0.9023438 c 0,-0.1992187 0,-0.4453125 -0.375,-0.4453125 -0.386719,0 -0.386719,0.234375 -0.386719,0.4453125 v 0.9023438 h -0.949219 c -0.164062,0 -0.445312,0 -0.445312,0.3398437 0,0.328125 0.28125,0.328125 0.445312,0.328125 h 0.949219 v 2.6601563 c 0,1.04296874 0.75,1.44140624 1.546875,1.44140624 0.808594,0 1.6875,-0.46875 1.6875,-1.44140624 0,-0.1992188 0,-0.4335938 -0.386719,-0.4335938 -0.351562,0 -0.363281,0.234375 -0.363281,0.421875 -0.01172,0.66796879 -0.632813,0.78515629 -0.890625,0.78515629 -0.832031,0 -0.832031,-0.57421879 -0.832031,-0.84374999 z m 5.118164,-0.1992187 v -1.9921875 c 0,-0.3398438 -0.07031,-0.4453125 -0.445313,-0.4453125 h -0.796875 c -0.175781,0 -0.445312,0 -0.445312,0.3398437 0,0.328125 0.28125,0.328125 0.433593,0.328125 h 0.492188 v 5.55468754 c 0,0.2109375 0,0.4453124975 0.386719,0.4453124975 0.375,0 0.375,-0.2226562475 0.375,-0.4921874975 0.445312,0.45703125 0.914062,0.5625 1.265625,0.5625 1.183593,0 2.238281,-1.04296875 2.238281,-2.42578124 0,-1.3476563 -0.972656,-2.4140625 -2.121094,-2.4140625 -0.527344,0 -1.019531,0.1992187 -1.382812,0.5390625 z m 0,2.1445312 v -0.796875 c 0,-0.6445312 0.632812,-1.21875 1.3125,-1.21875 0.808593,0 1.441406,0.796875 1.441406,1.7460938 0,1.0429687 -0.761719,1.75781249 -1.523438,1.75781249 -0.855468,0 -1.230468,-0.96093749 -1.230468,-1.48828129 z m 9.008789,-0.2695312 c 0,-1.359375 -1.019532,-2.4492188 -2.238281,-2.4492188 -1.21875,0 -2.238282,1.0898438 -2.238282,2.4492188 0,1.38281249 1.042969,2.42578124 2.238282,2.42578124 1.195312,0 2.238281,-1.0546875 2.238281,-2.42578124 z m -2.238281,1.75781249 c -0.808594,0 -1.488282,-0.82031249 -1.488282,-1.83984379 0,-0.984375 0.714844,-1.6992187 1.488282,-1.6992187 0.785156,0 1.488281,0.7148437 1.488281,1.6992187 0,1.0195313 -0.679688,1.83984379 -1.488281,1.83984379 z m 5.99707,-1.82812499 1.242187,-1.6054688 h 0.445313 c 0.152344,0 0.445312,0 0.445312,-0.328125 0,-0.3398437 -0.28125,-0.3398437 -0.445312,-0.3398437 h -1.277344 c -0.164062,0 -0.445312,0 -0.445312,0.328125 0,0.3398437 0.246093,0.3398437 0.539062,0.3398437 l -0.808594,1.1015625 -0.832031,-1.1015625 c 0.292969,0 0.527344,0 0.527344,-0.3398437 0,-0.328125 -0.269531,-0.328125 -0.433594,-0.328125 h -1.277344 c -0.164062,0 -0.445312,0 -0.445312,0.3398437 0,0.328125 0.292969,0.328125 0.445312,0.328125 h 0.433594 l 1.289063,1.6054688 -1.347657,1.75781249 h -0.445312 c -0.164063,0 -0.445313,0 -0.445313,0.33984375 0,0.3281249975 0.292969,0.3281249975 0.445313,0.3281249975 h 1.277344 c 0.164062,0 0.433593,0 0.433593,-0.3281249975 0,-0.33984375 -0.222656,-0.33984375 -0.5625,-0.33984375 l 0.9375,-1.33593749 0.972657,1.33593749 c -0.304688,0 -0.550782,0 -0.550782,0.33984375 0,0.3281249975 0.28125,0.3281249975 0.445313,0.3281249975 h 1.277344 c 0.152343,0 0.445312,0 0.445312,-0.3281249975 0,-0.33984375 -0.28125,-0.33984375 -0.445312,-0.33984375 h -0.445313 z m 0,0"
       style="fill:#000000;fill-opacity:1;fill-rule:nonzero;stroke:none"
       aria-label="textbox"
       transform="matrix(1.3333333,0,0,1.3333333,378.52933,27.550667)" />
    <path
       id="path11"
       d="m 26.56737,-114.57184 v -9.96276"
       style="fill:none;stroke:#bfbfbf;stroke-width:4.98138;stroke-linecap:round;stroke-linejoin:miter;stroke-miterlimit:10;stroke-dasharray:none;stroke-opacity:1"
       transform="matrix(1.3333333,0,0,-1.3333333,360.132,0.26533333)" />
    <path
       id="path12"
       d="m 59.77661,-114.57184 v -9.96276"
       style="fill:none;stroke:#bfbfbf;stroke-width:4.98138;stroke-linecap:round;stroke-linejoin:miter;stroke-miterlimit:10;stroke-dasharray:none;stroke-opacity:1"
       transform="matrix(1.3333333,0,0,-1.3333333,360.132,0.26533333)" />
    <path
       id="path13"
       d="m 92.98582,-114.57184 v -9.96276"
       style="fill:none;stroke:#bfbfbf;stroke-width:4.98138;stroke-linecap:round;stroke-linejoin:miter;stroke-miterlimit:10;stroke-dasharray:none;stroke-opacity:1"
       transform="matrix(1.3333333,0,0,-1.3333333,360.132,0.26533333)" />
    <path
       id="path14"
       d="m 9.96277,-109.59045 v -19.92554 h 99.62768 v 19.92554 z"
       style="fill:none;stroke:#000000;stroke-width:0.3985;stroke-linecap:butt;stroke-linejoin:miter;stroke-miterlimit:10;stroke-dasharray:none;stroke-opacity:1"
       transform="matrix(1.3333333,0,0,-1.3333333,360.132,0.26533333)" />
    <path
       id="path15"
       d="M 10.16202,-123.72849 H 40.3432 v 13.93878 H 10.16202 Z"
       style="fill:#ffffff;fill-opacity:1;fill-rule:nonzero;stroke:none"
       transform="matrix(1.3333333,0,0,-1.3333333,360.132,0.26533333)" />
    <path
       id="path16"
       d="m 4.6651094,-3.1991797 c 0,-1.1015625 -0.5625,-1.5703125 -1.4179688,-1.5703125 -0.7382812,0 -1.2304687,0.375 -1.4296875,0.5742188 v -2.0273438 c 0,-0.3398437 -0.070312,-0.4453125 -0.4453125,-0.4453125 H 0.57526563 c -0.17578125,0 -0.4453125,0 -0.4453125,0.3398438 0,0.328125 0.28125,0.328125 0.43359375,0.328125 H 1.0557344 v 5.33203121 H 0.57526563 c -0.17578125,0 -0.4453125,0 -0.4453125,0.33984375 0,0.3281250025 0.28125,0.3281250025 0.43359375,0.3281250025 H 2.2979219 c 0.1523437,0 0.4453125,0 0.4453125,-0.3281250025 0,-0.33984375 -0.28125,-0.33984375 -0.4453125,-0.33984375 H 1.8174531 V -2.6015234 c 0,-1.0898438 0.796875,-1.5 1.359375,-1.5 0.5742188,0 0.7265625,0.3046875 0.7265625,0.9609375 v 2.47265621 h -0.421875 c -0.1757812,0 -0.4453125,0 -0.4453125,0.33984375 0,0.3281250025 0.2929688,0.3281250025 0.4453125,0.3281250025 h 1.6640625 c 0.1523438,0 0.4453125,0 0.4453125,-0.3281250025 0,-0.33984375 -0.28125,-0.33984375 -0.4453125,-0.33984375 H 4.6651094 Z m 2.8798828,-1.03125 v -1.9921875 c 0,-0.3398437 -0.070312,-0.4453125 -0.4453125,-0.4453125 h -0.796875 c -0.1757813,0 -0.4453125,0 -0.4453125,0.3398438 0,0.328125 0.28125,0.328125 0.4335937,0.328125 h 0.4921875 v 5.55468746 c 0,0.2109375 0,0.4453125025 0.3867188,0.4453125025 0.375,0 0.375,-0.2226562525 0.375,-0.4921875025 0.4453125,0.45703125 0.9140625,0.5625 1.265625,0.5625 1.1835937,0 2.2382808,-1.04296875 2.2382808,-2.42578126 0,-1.3476562 -0.972656,-2.4140625 -2.1210933,-2.4140625 -0.5273438,0 -1.0195313,0.1992188 -1.3828125,0.5390625 z m 0,2.1445313 v -0.796875 c 0,-0.6445313 0.6328125,-1.21875 1.3125,-1.21875 0.8085937,0 1.4414058,0.796875 1.4414058,1.7460937 0,1.0429688 -0.7617183,1.75781251 -1.5234371,1.75781251 -0.8554687,0 -1.2304687,-0.96093751 -1.2304687,-1.48828121 z m 9.0058598,-0.2695313 c 0,-1.359375 -1.019532,-2.4492187 -2.238282,-2.4492187 -1.21875,0 -2.238281,1.0898437 -2.238281,2.4492187 0,1.38281251 1.042969,2.42578126 2.238281,2.42578126 1.195313,0 2.238282,-1.0546875 2.238282,-2.42578126 z m -2.238282,1.75781251 c -0.808593,0 -1.488281,-0.82031251 -1.488281,-1.83984371 0,-0.984375 0.714844,-1.6992188 1.488281,-1.6992188 0.785157,0 1.488282,0.7148438 1.488282,1.6992188 0,1.0195312 -0.679688,1.83984371 -1.488282,1.83984371 z m 5.997071,-1.82812501 1.242187,-1.6054687 h 0.445313 c 0.152343,0 0.445312,0 0.445312,-0.328125 0,-0.3398438 -0.28125,-0.3398438 -0.445312,-0.3398438 h -1.277344 c -0.164063,0 -0.445313,0 -0.445313,0.328125 0,0.3398438 0.246094,0.3398438 0.539063,0.3398438 l -0.808594,1.1015625 -0.832031,-1.1015625 c 0.292969,0 0.527344,0 0.527344,-0.3398438 0,-0.328125 -0.269532,-0.328125 -0.433594,-0.328125 h -1.277344 c -0.164062,0 -0.445312,0 -0.445312,0.3398438 0,0.328125 0.292968,0.328125 0.445312,0.328125 h 0.433594 l 1.289062,1.6054687 -1.347656,1.75781251 h -0.445312 c -0.164063,0 -0.445313,0 -0.445313,0.33984375 0,0.3281250025 0.292969,0.3281250025 0.445313,0.3281250025 h 1.277343 c 0.164063,0 0.433594,0 0.433594,-0.3281250025 0,-0.33984375 -0.222656,-0.33984375 -0.5625,-0.33984375 l 0.9375,-1.33593751 0.972656,1.33593751 c -0.304687,0 -0.550781,0 -0.550781,0.33984375 0,0.3281250025 0.28125,0.3281250025 0.445313,0.3281250025 h 1.277343 c 0.152344,0 0.445313,0 0.445313,-0.3281250025 0,-0.33984375 -0.28125,-0.33984375 -0.445313,-0.33984375 h -0.445312 z m 0,0"
       style="fill:#000000;fill-opacity:1;fill-rule:nonzero;stroke:none"
       aria-label="hbox"
       transform="matrix(1.3333333,0,0,1.3333333,378.52933,160.38667)" />
  </g>
  <g
     id="g16"
     inkscape:groupmode="layer"
     inkscape:label="4">
    <path
       id="path17"
       d="M 0,0 V -139.47876 H 119.55322 V 0 Z"
       style="fill:none;stroke:#bfbfbf;stroke-width:0.3985;stroke-linecap:butt;stroke-linejoin:miter;stroke-miterlimit:10;stroke-dasharray:none;stroke-opacity:1"
       transform="matrix(1.3333333,0,0,-1.3333333,540.06533,0.26533333)" />
    <path
       id="path18"
       d="m 9.96277,-9.96277 v -89.66492 h 99.62768 v 89.66492 z"
       style="fill:none;stroke:#bfbfbf;stroke-width:0.3985;stroke-linecap:butt;stroke-linejoin:miter;stroke-miterlimit:10;stroke-dasharray:none;stroke-opacity:1"
       transform="matrix(1.3333333,0,0,-1.3333333,540.06533,0.26533333)" />
    <path
       id="path19"
       d="m 15.04845,-126.52261 h 41.63574 v 13.93878 H 15.04845 Z"
       style="fill:none;stroke:#000000;stroke-width:0.3985;stroke-linecap:butt;stroke-linejoin:miter;stroke-miterlimit:10;stroke-dasharray:none;stroke-opacity:1"
       transform="matrix(1.3333333,0,0,-1.3333333,540.06533,0.26533333)" />
    <path
       id="path20"
       d="m 1.8152422,-4.2295078 v -1.9921875 c 0,-0.3398438 -0.070312,-0.4453125 -0.4453125,-0.4453125 H 0.57305469 c -0.17578125,0 -0.4453125,0 -0.4453125,0.3398437 0,0.328125 0.28125,0.328125 0.43359375,0.328125 H 1.0535234 v 5.55468754 c 0,0.2109375 0,0.4453124975 0.3867188,0.4453124975 0.375,0 0.375,-0.2226562475 0.375,-0.4921874975 0.4453125,0.45703125 0.9140625,0.5625 1.265625,0.5625 1.1835937,0 2.2382812,-1.04296875 2.2382812,-2.42578124 0,-1.3476563 -0.9726562,-2.4140625 -2.1210937,-2.4140625 -0.5273438,0 -1.0195313,0.1992187 -1.3828125,0.5390625 z m 0,2.1445312 v -0.796875 c 0,-0.6445312 0.6328125,-1.21875 1.3125,-1.21875 0.8085937,0 1.4414062,0.796875 1.4414062,1.7460938 0,1.0429687 -0.7617187,1.75781249 -1.5234375,1.75781249 -0.8554687,0 -1.2304687,-0.96093749 -1.2304687,-1.48828129 z m 7.8134766,1.73437504 C 9.6404375,9.609375e-4 9.8748125,9.609375e-4 10.074031,9.609375e-4 h 0.796875 c 0.164063,0 0.445313,0 0.445313,-0.3398437475 0,-0.328125 -0.292969,-0.328125 -0.445313,-0.328125 H 10.390438 V -4.2529453 c 0,-0.3398438 -0.07031,-0.4453125 -0.445313,-0.4453125 H 9.14825 c -0.1757812,0 -0.4453125,0 -0.4453125,0.3398437 0,0.328125 0.28125,0.328125 0.4335938,0.328125 h 0.4921875 v 2.3203125 c 0,0.98437504 -0.8789063,1.11328129 -1.2304688,1.11328129 -0.8554687,0 -0.8554687,-0.36328125 -0.8554687,-0.71484379 v -2.9414062 c 0,-0.3398438 -0.070312,-0.4453125 -0.4453125,-0.4453125 h -0.796875 c -0.1757813,0 -0.4453125,0 -0.4453125,0.3398437 0,0.328125 0.28125,0.328125 0.4335937,0.328125 h 0.4921875 v 2.7890625 c 0,1.04296879 0.7617188,1.31250004 1.5585938,1.31250004 0.4453125,0 0.890625,-0.1171875 1.2890625,-0.421875 z M 13.879695,-4.0302891 h 1.78125 c 0.164063,0 0.445313,0 0.445313,-0.328125 0,-0.3398437 -0.269531,-0.3398437 -0.445313,-0.3398437 h -1.78125 v -0.9023438 c 0,-0.1992187 0,-0.4453125 -0.375,-0.4453125 -0.386718,0 -0.386718,0.234375 -0.386718,0.4453125 v 0.9023438 h -0.949219 c -0.164063,0 -0.445313,0 -0.445313,0.3398437 0,0.328125 0.28125,0.328125 0.445313,0.328125 h 0.949219 v 2.6601563 c 0,1.04296874 0.75,1.44140624 1.546875,1.44140624 0.808593,0 1.6875,-0.46875 1.6875,-1.44140624 0,-0.1992188 0,-0.4335938 -0.386719,-0.4335938 -0.351563,0 -0.363281,0.234375 -0.363281,0.421875 -0.01172,0.66796879 -0.632813,0.78515629 -0.890625,0.78515629 -0.832032,0 -0.832032,-0.57421879 -0.832032,-0.84374999 z m 5.727539,0 h 1.78125 c 0.164063,0 0.445313,0 0.445313,-0.328125 0,-0.3398437 -0.269531,-0.3398437 -0.445313,-0.3398437 h -1.78125 v -0.9023438 c 0,-0.1992187 0,-0.4453125 -0.375,-0.4453125 -0.386718,0 -0.386718,0.234375 -0.386718,0.4453125 v 0.9023438 h -0.949219 c -0.164063,0 -0.445313,0 -0.445313,0.3398437 0,0.328125 0.28125,0.328125 0.445313,0.328125 h 0.949219 v 2.6601563 c 0,1.04296874 0.75,1.44140624 1.546875,1.44140624 0.808593,0 1.6875,-0.46875 1.6875,-1.44140624 0,-0.1992188 0,-0.4335938 -0.386719,-0.4335938 -0.351563,0 -0.363281,0.234375 -0.363281,0.421875 -0.01172,0.66796879 -0.632813,0.78515629 -0.890625,0.78515629 -0.832032,0 -0.832032,-0.57421879 -0.832032,-0.84374999 z m 8.399414,1.6757813 c 0,-1.359375 -1.019531,-2.4492188 -2.238281,-2.4492188 -1.21875,0 -2.238281,1.0898438 -2.238281,2.4492188 0,1.38281249 1.042969,2.42578124 2.238281,2.42578124 1.195313,0 2.238281,-1.0546875 2.238281,-2.42578124 z m -2.238281,1.75781249 c -0.808594,0 -1.488281,-0.82031249 -1.488281,-1.83984379 0,-0.984375 0.714844,-1.6992187 1.488281,-1.6992187 0.785156,0 1.488281,0.7148437 1.488281,1.6992187 0,1.0195313 -0.679687,1.83984379 -1.488281,1.83984379 z m 4.68457,-3.59765629 c 0,-0.3398437 0,-0.5039062 -0.445312,-0.5039062 H 29.21075 c -0.175781,0 -0.445313,0 -0.445313,0.3398437 0,0.328125 0.28125,0.328125 0.433594,0.328125 h 0.492188 v 3.36328129 H 29.21075 c -0.175781,0 -0.445313,0 -0.445313,0.33984375 0,0.3281249975 0.28125,0.3281249975 0.433594,0.3281249975 h 1.734375 c 0.152344,0 0.445313,0 0.445313,-0.3281249975 0,-0.33984375 -0.28125,-0.33984375 -0.445313,-0.33984375 H 30.452937 V -2.6006016 c 0,-1.0898437 0.796875,-1.5 1.359375,-1.5 0.574219,0 0.726563,0.3046875 0.726563,0.9609375 v 2.47265629 H 32.117 c -0.175781,0 -0.445313,0 -0.445313,0.33984375 0,0.3281249975 0.292969,0.3281249975 0.445313,0.3281249975 h 1.664063 c 0.152343,0 0.445312,0 0.445312,-0.3281249975 0,-0.33984375 -0.28125,-0.33984375 -0.445312,-0.33984375 H 33.300594 V -3.1982578 c 0,-1.1015625 -0.5625,-1.5703125 -1.417969,-1.5703125 -0.738281,0 -1.230469,0.375 -1.429688,0.5742187 z m 0,0"
       style="fill:#000000;fill-opacity:1;fill-rule:nonzero;stroke:none"
       aria-label="button"
       transform="matrix(1.3333333,0,0,1.3333333,564.97733,164.112)" />
    <path
       id="path21"
       d="m 62.869,-126.52261 h 41.63574 v 13.93878 H 62.869 Z"
       style="fill:none;stroke:#000000;stroke-width:0.3985;stroke-linecap:butt;stroke-linejoin:miter;stroke-miterlimit:10;stroke-dasharray:none;stroke-opacity:1"
       transform="matrix(1.3333333,0,0,-1.3333333,540.06533,0.26533333)" />
    <path
       id="path22"
       d="m 1.8165312,-4.2295078 v -1.9921875 c 0,-0.3398438 -0.070312,-0.4453125 -0.4453125,-0.4453125 H 0.57434375 c -0.17578125,0 -0.4453125,0 -0.4453125,0.3398437 0,0.328125 0.28125,0.328125 0.43359375,0.328125 h 0.4921875 v 5.55468754 c 0,0.2109375 0,0.4453124975 0.3867187,0.4453124975 0.375,0 0.375,-0.2226562475 0.375,-0.4921874975 0.4453125,0.45703125 0.9140625,0.5625 1.265625,0.5625 1.1835938,0 2.2382813,-1.04296875 2.2382813,-2.42578124 0,-1.3476563 -0.9726563,-2.4140625 -2.1210938,-2.4140625 -0.5273437,0 -1.0195312,0.1992187 -1.3828125,0.5390625 z m 0,2.1445312 v -0.796875 c 0,-0.6445312 0.6328125,-1.21875 1.3125,-1.21875 0.8085938,0 1.4414063,0.796875 1.4414063,1.7460938 0,1.0429687 -0.7617188,1.75781249 -1.5234375,1.75781249 -0.8554688,0 -1.2304688,-0.96093749 -1.2304688,-1.48828129 z m 7.8134766,1.73437504 C 9.6417266,9.609375e-4 9.8761016,9.609375e-4 10.07532,9.609375e-4 h 0.796875 c 0.164063,0 0.445313,0 0.445313,-0.3398437475 0,-0.328125 -0.292969,-0.328125 -0.445313,-0.328125 H 10.391727 V -4.2529453 c 0,-0.3398438 -0.07031,-0.4453125 -0.4453129,-0.4453125 h -0.796875 c -0.1757813,0 -0.4453125,0 -0.4453125,0.3398437 0,0.328125 0.28125,0.328125 0.4335937,0.328125 h 0.4921875 v 2.3203125 c 0,0.98437504 -0.8789062,1.11328129 -1.2304687,1.11328129 -0.8554688,0 -0.8554688,-0.36328125 -0.8554688,-0.71484379 v -2.9414062 c 0,-0.3398438 -0.070312,-0.4453125 -0.4453125,-0.4453125 h -0.796875 c -0.1757812,0 -0.4453125,0 -0.4453125,0.3398437 0,0.328125 0.28125,0.328125 0.4335938,0.328125 h 0.4921875 v 2.7890625 c 0,1.04296879 0.7617187,1.31250004 1.5585937,1.31250004 0.4453125,0 0.890625,-0.1171875 1.2890625,-0.421875 z M 13.880984,-4.0302891 h 1.78125 c 0.164063,0 0.445313,0 0.445313,-0.328125 0,-0.3398437 -0.269531,-0.3398437 -0.445313,-0.3398437 h -1.78125 v -0.9023438 c 0,-0.1992187 0,-0.4453125 -0.375,-0.4453125 -0.386718,0 -0.386718,0.234375 -0.386718,0.4453125 v 0.9023438 h -0.949219 c -0.164063,0 -0.445313,0 -0.445313,0.3398437 0,0.328125 0.28125,0.328125 0.445313,0.328125 h 0.949219 v 2.6601563 c 0,1.04296874 0.75,1.44140624 1.546875,1.44140624 0.808593,0 1.6875,-0.46875 1.6875,-1.44140624 0,-0.1992188 0,-0.4335938 -0.386719,-0.4335938 -0.351563,0 -0.363281,0.234375 -0.363281,0.421875 -0.01172,0.66796879 -0.632813,0.78515629 -0.890625,0.78515629 -0.832032,0 -0.832032,-0.57421879 -0.832032,-0.84374999 z m 5.727539,0 h 1.78125 c 0.164063,0 0.445313,0 0.445313,-0.328125 0,-0.3398437 -0.269531,-0.3398437 -0.445313,-0.3398437 h -1.78125 v -0.9023438 c 0,-0.1992187 0,-0.4453125 -0.375,-0.4453125 -0.386718,0 -0.386718,0.234375 -0.386718,0.4453125 v 0.9023438 h -0.949219 c -0.164063,0 -0.445313,0 -0.445313,0.3398437 0,0.328125 0.28125,0.328125 0.445313,0.328125 h 0.949219 v 2.6601563 c 0,1.04296874 0.75,1.44140624 1.546875,1.44140624 0.808593,0 1.6875,-0.46875 1.6875,-1.44140624 0,-0.1992188 0,-0.4335938 -0.386719,-0.4335938 -0.351563,0 -0.363281,0.234375 -0.363281,0.421875 -0.01172,0.66796879 -0.632813,0.78515629 -0.890625,0.78515629 -0.832032,0 -0.832032,-0.57421879 -0.832032,-0.84374999 z m 8.399414,1.6757813 c 0,-1.359375 -1.019531,-2.4492188 -2.238281,-2.4492188 -1.21875,0 -2.238281,1.0898438 -2.238281,2.4492188 0,1.38281249 1.042969,2.42578124 2.238281,2.42578124 1.195313,0 2.238281,-1.0546875 2.238281,-2.42578124 z m -2.238281,1.75781249 c -0.808594,0 -1.488281,-0.82031249 -1.488281,-1.83984379 0,-0.984375 0.714844,-1.6992187 1.488281,-1.6992187 0.785156,0 1.488281,0.7148437 1.488281,1.6992187 0,1.0195313 -0.679687,1.83984379 -1.488281,1.83984379 z m 4.684571,-3.59765629 c 0,-0.3398437 0,-0.5039062 -0.445313,-0.5039062 h -0.796875 c -0.175781,0 -0.445312,0 -0.445312,0.3398437 0,0.328125 0.28125,0.328125 0.433593,0.328125 h 0.492188 v 3.36328129 h -0.480469 c -0.175781,0 -0.445312,0 -0.445312,0.33984375 0,0.3281249975 0.28125,0.3281249975 0.433593,0.3281249975 h 1.734375 c 0.152344,0 0.445313,0 0.445313,-0.3281249975 0,-0.33984375 -0.28125,-0.33984375 -0.445313,-0.33984375 H 30.454227 V -2.6006016 c 0,-1.0898437 0.796875,-1.5 1.359375,-1.5 0.574218,0 0.726562,0.3046875 0.726562,0.9609375 v 2.47265629 h -0.421875 c -0.175781,0 -0.445312,0 -0.445312,0.33984375 0,0.3281249975 0.292968,0.3281249975 0.445312,0.3281249975 h 1.664063 c 0.152343,0 0.445312,0 0.445312,-0.3281249975 0,-0.33984375 -0.28125,-0.33984375 -0.445312,-0.33984375 H 33.301883 V -3.1982578 c 0,-1.1015625 -0.5625,-1.5703125 -1.417969,-1.5703125 -0.738281,0 -1.230469,0.375 -1.429687,0.5742187 z m 0,0"
       style="fill:#000000;fill-opacity:1;fill-rule:nonzero;stroke:none"
       aria-label="button"
       transform="matrix(1.3333333,0,0,1.3333333,628.73733,164.112)" />
    <path
       id="path23"
       d="m 9.96277,-109.59045 v -19.92554 h 99.62768 v 19.92554 z"
       style="fill:none;stroke:#bfbfbf;stroke-width:0.3985;stroke-linecap:butt;stroke-linejoin:miter;stroke-miterlimit:10;stroke-dasharray:none;stroke-opacity:1"
       transform="matrix(1.3333333,0,0,-1.3333333,540.06533,0.26533333)" />
  </g>
</svg>
