<?xml version="1.0" encoding="UTF-8" standalone="no"?>
<!-- Created with Inkscape (http://www.inkscape.org/) -->

<svg
   version="1.1"
   id="svg1"
   width="159.93333"
   height="186.5"
   viewBox="0 0 159.93333 186.5"
   sodipodi:docname="layout-schematic.svg"
   inkscape:version="1.3 (0e150ed6c4, 2023-07-21)"
   xmlns:inkscape="http://www.inkscape.org/namespaces/inkscape"
   xmlns:sodipodi="http://sodipodi.sourceforge.net/DTD/sodipodi-0.dtd"
   xmlns="http://www.w3.org/2000/svg"
   xmlns:svg="http://www.w3.org/2000/svg">
  <defs
     id="defs1" />
  <sodipodi:namedview
     id="namedview1"
     pagecolor="#ffffff"
     bordercolor="#666666"
     borderopacity="1.0"
     inkscape:showpageshadow="2"
     inkscape:pageopacity="0.0"
     inkscape:pagecheckerboard="0"
     inkscape:deskcolor="#d1d1d1"
     inkscape:zoom="6.3324397"
     inkscape:cx="107.77837"
     inkscape:cy="80.616638"
     inkscape:window-width="2560"
     inkscape:window-height="1377"
     inkscape:window-x="1912"
     inkscape:window-y="-8"
     inkscape:window-maximized="1"
     inkscape:current-layer="g1">
    <inkscape:page
       x="0"
       y="0"
       inkscape:label="2"
       id="page2"
       width="159.93333"
       height="186.5"
       margin="0"
       bleed="0" />
  </sodipodi:namedview>
  <g
     id="g2"
     inkscape:groupmode="layer"
     inkscape:label="2"
     transform="translate(-179.93334)">
    <path
       id="path3"
       d="M 0,0 V -139.47876 H 119.55322 V 0 Z"
       style="fill:none;stroke:#000000;stroke-width:0.3985;stroke-linecap:butt;stroke-linejoin:miter;stroke-miterlimit:10;stroke-dasharray:none;stroke-opacity:1"
       transform="matrix(1.3333333,0,0,-1.3333333,180.19867,0.26533333)" />
    <path
       id="path4"
       d="m 4.6876797,-4.0301016 h 0.328125 c 0.1640625,0 0.4335937,0 0.4335937,-0.328125 0,-0.3398437 -0.2578125,-0.3398437 -0.4335937,-0.3398437 H 3.7384609 c -0.1640625,0 -0.4335937,0 -0.4335937,0.328125 0,0.3398437 0.2578125,0.3398437 0.4335937,0.3398437 H 4.0431484 L 2.8595547,-0.52619531 1.6642422,-4.0301016 h 0.3164062 c 0.1523438,0 0.4335938,0 0.4335938,-0.328125 0,-0.3398437 -0.2695313,-0.3398437 -0.4335938,-0.3398437 H 0.70330469 c -0.17578125,0 -0.4453125,0 -0.4453125,0.3398437 0,0.328125 0.28125,0.328125 0.4453125,0.328125 H 1.0314297 l 1.2539062,3.70312504 c 0.1289063,0.375 0.3398438,0.375 0.5742188,0.375 0.2109375,0 0.4570312,0 0.5742187,-0.36328125 z M 7.544125,-4.2293203 v -1.9921875 c 0,-0.3398438 -0.070312,-0.4453125 -0.4453125,-0.4453125 h -0.796875 c -0.1757812,0 -0.4453125,0 -0.4453125,0.3398437 0,0.328125 0.28125,0.328125 0.4335938,0.328125 h 0.4921875 v 5.55468754 c 0,0.2109375 0,0.4453125 0.3867187,0.4453125 0.375,0 0.375,-0.22265625 0.375,-0.4921875 0.4453125,0.45703125 0.9140625,0.5625 1.265625,0.5625 1.1835938,0 2.238281,-1.04296875 2.238281,-2.42578124 0,-1.3476563 -0.972656,-2.4140625 -2.1210935,-2.4140625 -0.5273437,0 -1.0195312,0.1992187 -1.3828125,0.5390625 z m 0,2.1445312 v -0.796875 c 0,-0.6445312 0.6328125,-1.21875 1.3125,-1.21875 0.8085938,0 1.441406,0.796875 1.441406,1.7460938 0,1.0429687 -0.7617185,1.75781249 -1.5234372,1.75781249 -0.8554688,0 -1.2304688,-0.96093749 -1.2304688,-1.48828129 z m 9.008789,-0.2695312 c 0,-1.359375 -1.019531,-2.4492188 -2.238281,-2.4492188 -1.21875,0 -2.238281,1.0898438 -2.238281,2.4492188 0,1.38281249 1.042968,2.42578124 2.238281,2.42578124 1.195312,0 2.238281,-1.0546875 2.238281,-2.42578124 z m -2.238281,1.75781249 c -0.808594,0 -1.488281,-0.82031249 -1.488281,-1.83984379 0,-0.984375 0.714843,-1.6992187 1.488281,-1.6992187 0.785156,0 1.488281,0.7148437 1.488281,1.6992187 0,1.0195313 -0.679687,1.83984379 -1.488281,1.83984379 z m 5.99707,-1.82812499 1.242188,-1.6054688 h 0.445312 c 0.152344,0 0.445313,0 0.445313,-0.328125 0,-0.3398437 -0.28125,-0.3398437 -0.445313,-0.3398437 h -1.277344 c -0.164062,0 -0.445312,0 -0.445312,0.328125 0,0.3398437 0.246094,0.3398437 0.539062,0.3398437 l -0.808593,1.1015625 -0.832032,-1.1015625 c 0.292969,0 0.527344,0 0.527344,-0.3398437 0,-0.328125 -0.269531,-0.328125 -0.433594,-0.328125 h -1.277343 c -0.164063,0 -0.445313,0 -0.445313,0.3398437 0,0.328125 0.292969,0.328125 0.445313,0.328125 h 0.433593 l 1.289063,1.6054688 -1.347656,1.75781249 h -0.445313 c -0.164062,0 -0.445312,0 -0.445312,0.33984375 0,0.328125 0.292968,0.328125 0.445312,0.328125 h 1.277344 c 0.164062,0 0.433594,0 0.433594,-0.328125 0,-0.33984375 -0.222657,-0.33984375 -0.5625,-0.33984375 l 0.9375,-1.33593749 0.972656,1.33593749 c -0.304688,0 -0.550781,0 -0.550781,0.33984375 0,0.328125 0.28125,0.328125 0.445312,0.328125 h 1.277344 c 0.152344,0 0.445312,0 0.445312,-0.328125 0,-0.33984375 -0.28125,-0.33984375 -0.445312,-0.33984375 h -0.445313 z m 0,0"
       style="fill:#000000;fill-opacity:1;fill-rule:nonzero;stroke:none"
       aria-label="vbox"
       transform="matrix(1.3333333,0,0,1.3333333,185.312,14.268)" />
    <path
       id="path5"
       d="m 9.96277,-39.85107 h 99.62768"
       style="fill:none;stroke:#bfbfbf;stroke-width:4.98138;stroke-linecap:round;stroke-linejoin:miter;stroke-miterlimit:10;stroke-dasharray:none;stroke-opacity:1"
       transform="matrix(1.3333333,0,0,-1.3333333,180.19867,0.26533333)" />
    <path
       id="path6"
       d="m 9.96277,-79.70215 h 99.62768"
       style="fill:none;stroke:#bfbfbf;stroke-width:4.98138;stroke-linecap:round;stroke-linejoin:miter;stroke-miterlimit:10;stroke-dasharray:none;stroke-opacity:1"
       transform="matrix(1.3333333,0,0,-1.3333333,180.19867,0.26533333)" />
    <path
       id="path7"
       d="m 9.96277,-119.55322 h 99.62768"
       style="fill:none;stroke:#bfbfbf;stroke-width:4.98138;stroke-linecap:round;stroke-linejoin:miter;stroke-miterlimit:10;stroke-dasharray:none;stroke-opacity:1"
       transform="matrix(1.3333333,0,0,-1.3333333,180.19867,0.26533333)" />
  </g>
</svg>
