<?xml version="1.0" encoding="UTF-8" standalone="no"?>
<!-- Created with Inkscape (http://www.inkscape.org/) -->

<svg
   version="1.1"
   id="svg1"
   width="159.93333"
   height="186.5"
   viewBox="0 0 159.93333 186.5"
   sodipodi:docname="layout-schematic.svg"
   inkscape:version="1.3 (0e150ed6c4, 2023-07-21)"
   xmlns:inkscape="http://www.inkscape.org/namespaces/inkscape"
   xmlns:sodipodi="http://sodipodi.sourceforge.net/DTD/sodipodi-0.dtd"
   xmlns="http://www.w3.org/2000/svg"
   xmlns:svg="http://www.w3.org/2000/svg">
  <defs
     id="defs1" />
  <sodipodi:namedview
     id="namedview1"
     pagecolor="#ffffff"
     bordercolor="#666666"
     borderopacity="1.0"
     inkscape:showpageshadow="2"
     inkscape:pageopacity="0.0"
     inkscape:pagecheckerboard="0"
     inkscape:deskcolor="#d1d1d1"
     inkscape:zoom="6.3324397"
     inkscape:cx="107.77837"
     inkscape:cy="80.616638"
     inkscape:window-width="2560"
     inkscape:window-height="1377"
     inkscape:window-x="1912"
     inkscape:window-y="-8"
     inkscape:window-maximized="1"
     inkscape:current-layer="g1">
    <inkscape:page
       x="0"
       y="0"
       inkscape:label="3"
       id="page7"
       width="159.93333"
       height="186.5"
       margin="0"
       bleed="0" />
  </sodipodi:namedview>
  <g
     id="g7"
     inkscape:groupmode="layer"
     inkscape:label="3"
     transform="translate(-359.86668)">
    <path
       id="path8"
       d="M 0,0 V -139.47876 H 119.55322 V 0 Z"
       style="fill:none;stroke:#bfbfbf;stroke-width:0.3985;stroke-linecap:butt;stroke-linejoin:miter;stroke-miterlimit:10;stroke-dasharray:none;stroke-opacity:1"
       transform="matrix(1.3333333,0,0,-1.3333333,360.132,0.26533333)" />
    <path
       id="path9"
       d="m 9.96277,-9.96277 v -89.66492 h 99.62768 v 89.66492 z"
       style="fill:none;stroke:#000000;stroke-width:0.3985;stroke-linecap:butt;stroke-linejoin:miter;stroke-miterlimit:10;stroke-dasharray:none;stroke-opacity:1"
       transform="matrix(1.3333333,0,0,-1.3333333,360.132,0.26533333)" />
    <path
       id="path10"
       d="m 2.4268281,-4.0311641 h 1.78125 c 0.1640625,0 0.4453125,0 0.4453125,-0.328125 0,-0.3398437 -0.2695312,-0.3398437 -0.4453125,-0.3398437 h -1.78125 v -0.9023438 c 0,-0.1992187 0,-0.4453125 -0.375,-0.4453125 -0.3867187,0 -0.3867187,0.234375 -0.3867187,0.4453125 v 0.9023438 H 0.71589063 c -0.1640625,0 -0.4453125,0 -0.4453125,0.3398437 0,0.328125 0.28125,0.328125 0.4453125,0.328125 H 1.6651094 v 2.6601563 c 0,1.04296874 0.75,1.44140624 1.546875,1.44140624 0.8085937,0 1.6875,-0.46875 1.6875,-1.44140624 0,-0.1992188 0,-0.4335938 -0.3867188,-0.4335938 -0.3515625,0 -0.3632812,0.234375 -0.3632812,0.421875 -0.011719,0.66796879 -0.6328125,0.78515629 -0.890625,0.78515629 -0.8320313,0 -0.8320313,-0.57421879 -0.8320313,-0.84374999 z m 7.9306639,1.9453125 c 0.222656,0 0.433594,0 0.433594,-0.3984375 0,-1.2421875 -0.703125,-2.3203125 -2.1210938,-2.3203125 -1.2890625,0 -2.34375,1.0898438 -2.34375,2.4375 0,1.3359375 1.1015625,2.43750004 2.5078125,2.43750004 1.4414063,0 1.9570313,-0.984375 1.9570313,-1.25390624 0,-0.3164063 -0.316406,-0.3164063 -0.386719,-0.3164063 -0.1875,0 -0.28125,0.035156 -0.351562,0.2460938 -0.2460941,0.55078124 -0.8320316,0.65624999 -1.1367191,0.65624999 -0.8203125,0 -1.640625,-0.55078129 -1.8164062,-1.48828129 z m -3.2460936,-0.65625 c 0.1523438,-0.796875 0.796875,-1.3945312 1.5585938,-1.3945312 0.5742187,0 1.2539062,0.2695312 1.3476558,1.3945312 z m 7.4707036,0.3164063 1.242187,-1.6054688 h 0.445313 c 0.152343,0 0.445312,0 0.445312,-0.328125 0,-0.3398437 -0.28125,-0.3398437 -0.445312,-0.3398437 h -1.277344 c -0.164063,0 -0.445313,0 -0.445313,0.328125 0,0.3398437 0.246094,0.3398437 0.539063,0.3398437 l -0.808594,1.1015625 -0.832031,-1.1015625 c 0.292969,0 0.527344,0 0.527344,-0.3398437 0,-0.328125 -0.269532,-0.328125 -0.433594,-0.328125 h -1.277344 c -0.164062,0 -0.445312,0 -0.445312,0.3398437 0,0.328125 0.292968,0.328125 0.445312,0.328125 h 0.433594 l 1.289062,1.6054688 -1.347656,1.75781249 h -0.445312 c -0.164063,0 -0.445313,0 -0.445313,0.33984375 0,0.3281249975 0.292969,0.3281249975 0.445313,0.3281249975 h 1.277343 c 0.164063,0 0.433594,0 0.433594,-0.3281249975 0,-0.33984375 -0.222656,-0.33984375 -0.5625,-0.33984375 l 0.9375,-1.33593749 0.972656,1.33593749 c -0.304687,0 -0.550781,0 -0.550781,0.33984375 0,0.3281249975 0.28125,0.3281249975 0.445313,0.3281249975 h 1.277343 c 0.152344,0 0.445313,0 0.445313,-0.3281249975 0,-0.33984375 -0.28125,-0.33984375 -0.445313,-0.33984375 h -0.445312 z m 5.024414,-1.6054688 h 1.78125 c 0.164062,0 0.445312,0 0.445312,-0.328125 0,-0.3398437 -0.269531,-0.3398437 -0.445312,-0.3398437 h -1.78125 v -0.9023438 c 0,-0.1992187 0,-0.4453125 -0.375,-0.4453125 -0.386719,0 -0.386719,0.234375 -0.386719,0.4453125 v 0.9023438 h -0.949219 c -0.164062,0 -0.445312,0 -0.445312,0.3398437 0,0.328125 0.28125,0.328125 0.445312,0.328125 h 0.949219 v 2.6601563 c 0,1.04296874 0.75,1.44140624 1.546875,1.44140624 0.808594,0 1.6875,-0.46875 1.6875,-1.44140624 0,-0.1992188 0,-0.4335938 -0.386719,-0.4335938 -0.351562,0 -0.363281,0.234375 -0.363281,0.421875 -0.01172,0.66796879 -0.632813,0.78515629 -0.890625,0.78515629 -0.832031,0 -0.832031,-0.57421879 -0.832031,-0.84374999 z m 5.118164,-0.1992187 v -1.9921875 c 0,-0.3398438 -0.07031,-0.4453125 -0.445313,-0.4453125 h -0.796875 c -0.175781,0 -0.445312,0 -0.445312,0.3398437 0,0.328125 0.28125,0.328125 0.433593,0.328125 h 0.492188 v 5.55468754 c 0,0.2109375 0,0.4453124975 0.386719,0.4453124975 0.375,0 0.375,-0.2226562475 0.375,-0.4921874975 0.445312,0.45703125 0.914062,0.5625 1.265625,0.5625 1.183593,0 2.238281,-1.04296875 2.238281,-2.42578124 0,-1.3476563 -0.972656,-2.4140625 -2.121094,-2.4140625 -0.527344,0 -1.019531,0.1992187 -1.382812,0.5390625 z m 0,2.1445312 v -0.796875 c 0,-0.6445312 0.632812,-1.21875 1.3125,-1.21875 0.808593,0 1.441406,0.796875 1.441406,1.7460938 0,1.0429687 -0.761719,1.75781249 -1.523438,1.75781249 -0.855468,0 -1.230468,-0.96093749 -1.230468,-1.48828129 z m 9.008789,-0.2695312 c 0,-1.359375 -1.019532,-2.4492188 -2.238281,-2.4492188 -1.21875,0 -2.238282,1.0898438 -2.238282,2.4492188 0,1.38281249 1.042969,2.42578124 2.238282,2.42578124 1.195312,0 2.238281,-1.0546875 2.238281,-2.42578124 z m -2.238281,1.75781249 c -0.808594,0 -1.488282,-0.82031249 -1.488282,-1.83984379 0,-0.984375 0.714844,-1.6992187 1.488282,-1.6992187 0.785156,0 1.488281,0.7148437 1.488281,1.6992187 0,1.0195313 -0.679688,1.83984379 -1.488281,1.83984379 z m 5.99707,-1.82812499 1.242187,-1.6054688 h 0.445313 c 0.152344,0 0.445312,0 0.445312,-0.328125 0,-0.3398437 -0.28125,-0.3398437 -0.445312,-0.3398437 h -1.277344 c -0.164062,0 -0.445312,0 -0.445312,0.328125 0,0.3398437 0.246093,0.3398437 0.539062,0.3398437 l -0.808594,1.1015625 -0.832031,-1.1015625 c 0.292969,0 0.527344,0 0.527344,-0.3398437 0,-0.328125 -0.269531,-0.328125 -0.433594,-0.328125 h -1.277344 c -0.164062,0 -0.445312,0 -0.445312,0.3398437 0,0.328125 0.292969,0.328125 0.445312,0.328125 h 0.433594 l 1.289063,1.6054688 -1.347657,1.75781249 h -0.445312 c -0.164063,0 -0.445313,0 -0.445313,0.33984375 0,0.3281249975 0.292969,0.3281249975 0.445313,0.3281249975 h 1.277344 c 0.164062,0 0.433593,0 0.433593,-0.3281249975 0,-0.33984375 -0.222656,-0.33984375 -0.5625,-0.33984375 l 0.9375,-1.33593749 0.972657,1.33593749 c -0.304688,0 -0.550782,0 -0.550782,0.33984375 0,0.3281249975 0.28125,0.3281249975 0.445313,0.3281249975 h 1.277344 c 0.152343,0 0.445312,0 0.445312,-0.3281249975 0,-0.33984375 -0.28125,-0.33984375 -0.445312,-0.33984375 h -0.445313 z m 0,0"
       style="fill:#000000;fill-opacity:1;fill-rule:nonzero;stroke:none"
       aria-label="textbox"
       transform="matrix(1.3333333,0,0,1.3333333,378.52933,27.550667)" />
    <path
       id="path11"
       d="m 26.56737,-114.57184 v -9.96276"
       style="fill:none;stroke:#bfbfbf;stroke-width:4.98138;stroke-linecap:round;stroke-linejoin:miter;stroke-miterlimit:10;stroke-dasharray:none;stroke-opacity:1"
       transform="matrix(1.3333333,0,0,-1.3333333,360.132,0.26533333)" />
    <path
       id="path12"
       d="m 59.77661,-114.57184 v -9.96276"
       style="fill:none;stroke:#bfbfbf;stroke-width:4.98138;stroke-linecap:round;stroke-linejoin:miter;stroke-miterlimit:10;stroke-dasharray:none;stroke-opacity:1"
       transform="matrix(1.3333333,0,0,-1.3333333,360.132,0.26533333)" />
    <path
       id="path13"
       d="m 92.98582,-114.57184 v -9.96276"
       style="fill:none;stroke:#bfbfbf;stroke-width:4.98138;stroke-linecap:round;stroke-linejoin:miter;stroke-miterlimit:10;stroke-dasharray:none;stroke-opacity:1"
       transform="matrix(1.3333333,0,0,-1.3333333,360.132,0.26533333)" />
    <path
       id="path14"
       d="m 9.96277,-109.59045 v -19.92554 h 99.62768 v 19.92554 z"
       style="fill:none;stroke:#000000;stroke-width:0.3985;stroke-linecap:butt;stroke-linejoin:miter;stroke-miterlimit:10;stroke-dasharray:none;stroke-opacity:1"
       transform="matrix(1.3333333,0,0,-1.3333333,360.132,0.26533333)" />
    <path
       id="path15"
       d="M 10.16202,-123.72849 H 40.3432 v 13.93878 H 10.16202 Z"
       style="fill:#ffffff;fill-opacity:1;fill-rule:nonzero;stroke:none"
       transform="matrix(1.3333333,0,0,-1.3333333,360.132,0.26533333)" />
    <path
       id="path16"
       d="m 4.6651094,-3.1991797 c 0,-1.1015625 -0.5625,-1.5703125 -1.4179688,-1.5703125 -0.7382812,0 -1.2304687,0.375 -1.4296875,0.5742188 v -2.0273438 c 0,-0.3398437 -0.070312,-0.4453125 -0.4453125,-0.4453125 H 0.57526563 c -0.17578125,0 -0.4453125,0 -0.4453125,0.3398438 0,0.328125 0.28125,0.328125 0.43359375,0.328125 H 1.0557344 v 5.33203121 H 0.57526563 c -0.17578125,0 -0.4453125,0 -0.4453125,0.33984375 0,0.3281250025 0.28125,0.3281250025 0.43359375,0.3281250025 H 2.2979219 c 0.1523437,0 0.4453125,0 0.4453125,-0.3281250025 0,-0.33984375 -0.28125,-0.33984375 -0.4453125,-0.33984375 H 1.8174531 V -2.6015234 c 0,-1.0898438 0.796875,-1.5 1.359375,-1.5 0.5742188,0 0.7265625,0.3046875 0.7265625,0.9609375 v 2.47265621 h -0.421875 c -0.1757812,0 -0.4453125,0 -0.4453125,0.33984375 0,0.3281250025 0.2929688,0.3281250025 0.4453125,0.3281250025 h 1.6640625 c 0.1523438,0 0.4453125,0 0.4453125,-0.3281250025 0,-0.33984375 -0.28125,-0.33984375 -0.4453125,-0.33984375 H 4.6651094 Z m 2.8798828,-1.03125 v -1.9921875 c 0,-0.3398437 -0.070312,-0.4453125 -0.4453125,-0.4453125 h -0.796875 c -0.1757813,0 -0.4453125,0 -0.4453125,0.3398438 0,0.328125 0.28125,0.328125 0.4335937,0.328125 h 0.4921875 v 5.55468746 c 0,0.2109375 0,0.4453125025 0.3867188,0.4453125025 0.375,0 0.375,-0.2226562525 0.375,-0.4921875025 0.4453125,0.45703125 0.9140625,0.5625 1.265625,0.5625 1.1835937,0 2.2382808,-1.04296875 2.2382808,-2.42578126 0,-1.3476562 -0.972656,-2.4140625 -2.1210933,-2.4140625 -0.5273438,0 -1.0195313,0.1992188 -1.3828125,0.5390625 z m 0,2.1445313 v -0.796875 c 0,-0.6445313 0.6328125,-1.21875 1.3125,-1.21875 0.8085937,0 1.4414058,0.796875 1.4414058,1.7460937 0,1.0429688 -0.7617183,1.75781251 -1.5234371,1.75781251 -0.8554687,0 -1.2304687,-0.96093751 -1.2304687,-1.48828121 z m 9.0058598,-0.2695313 c 0,-1.359375 -1.019532,-2.4492187 -2.238282,-2.4492187 -1.21875,0 -2.238281,1.0898437 -2.238281,2.4492187 0,1.38281251 1.042969,2.42578126 2.238281,2.42578126 1.195313,0 2.238282,-1.0546875 2.238282,-2.42578126 z m -2.238282,1.75781251 c -0.808593,0 -1.488281,-0.82031251 -1.488281,-1.83984371 0,-0.984375 0.714844,-1.6992188 1.488281,-1.6992188 0.785157,0 1.488282,0.7148438 1.488282,1.6992188 0,1.0195312 -0.679688,1.83984371 -1.488282,1.83984371 z m 5.997071,-1.82812501 1.242187,-1.6054687 h 0.445313 c 0.152343,0 0.445312,0 0.445312,-0.328125 0,-0.3398438 -0.28125,-0.3398438 -0.445312,-0.3398438 h -1.277344 c -0.164063,0 -0.445313,0 -0.445313,0.328125 0,0.3398438 0.246094,0.3398438 0.539063,0.3398438 l -0.808594,1.1015625 -0.832031,-1.1015625 c 0.292969,0 0.527344,0 0.527344,-0.3398438 0,-0.328125 -0.269532,-0.328125 -0.433594,-0.328125 h -1.277344 c -0.164062,0 -0.445312,0 -0.445312,0.3398438 0,0.328125 0.292968,0.328125 0.445312,0.328125 h 0.433594 l 1.289062,1.6054687 -1.347656,1.75781251 h -0.445312 c -0.164063,0 -0.445313,0 -0.445313,0.33984375 0,0.3281250025 0.292969,0.3281250025 0.445313,0.3281250025 h 1.277343 c 0.164063,0 0.433594,0 0.433594,-0.3281250025 0,-0.33984375 -0.222656,-0.33984375 -0.5625,-0.33984375 l 0.9375,-1.33593751 0.972656,1.33593751 c -0.304687,0 -0.550781,0 -0.550781,0.33984375 0,0.3281250025 0.28125,0.3281250025 0.445313,0.3281250025 h 1.277343 c 0.152344,0 0.445313,0 0.445313,-0.3281250025 0,-0.33984375 -0.28125,-0.33984375 -0.445313,-0.33984375 h -0.445312 z m 0,0"
       style="fill:#000000;fill-opacity:1;fill-rule:nonzero;stroke:none"
       aria-label="hbox"
       transform="matrix(1.3333333,0,0,1.3333333,378.52933,160.38667)" />
  </g>
</svg>
