<?xml version="1.0" encoding="UTF-8" standalone="no"?>
<!-- Created with Inkscape (http://www.inkscape.org/) -->

<svg
   version="1.1"
   id="svg1"
   width="159.93333"
   height="186.5"
   viewBox="0 0 159.93333 186.5"
   sodipodi:docname="layout-schematic.svg"
   inkscape:version="1.3 (0e150ed6c4, 2023-07-21)"
   xmlns:inkscape="http://www.inkscape.org/namespaces/inkscape"
   xmlns:sodipodi="http://sodipodi.sourceforge.net/DTD/sodipodi-0.dtd"
   xmlns="http://www.w3.org/2000/svg"
   xmlns:svg="http://www.w3.org/2000/svg">
  <defs
     id="defs1" />
  <sodipodi:namedview
     id="namedview1"
     pagecolor="#ffffff"
     bordercolor="#666666"
     borderopacity="1.0"
     inkscape:showpageshadow="2"
     inkscape:pageopacity="0.0"
     inkscape:pagecheckerboard="0"
     inkscape:deskcolor="#d1d1d1"
     inkscape:zoom="6.3324397"
     inkscape:cx="107.77837"
     inkscape:cy="80.616638"
     inkscape:window-width="2560"
     inkscape:window-height="1377"
     inkscape:window-x="1912"
     inkscape:window-y="-8"
     inkscape:window-maximized="1"
     inkscape:current-layer="g1">
    <inkscape:page
       x="0"
       y="0"
       inkscape:label="4"
       id="page16"
       width="159.93333"
       height="186.5"
       margin="0"
       bleed="0" />
  </sodipodi:namedview>
  <g
     id="g16"
     inkscape:groupmode="layer"
     inkscape:label="4"
     transform="translate(-539.79999)">
    <path
       id="path17"
       d="M 0,0 V -139.47876 H 119.55322 V 0 Z"
       style="fill:none;stroke:#bfbfbf;stroke-width:0.3985;stroke-linecap:butt;stroke-linejoin:miter;stroke-miterlimit:10;stroke-dasharray:none;stroke-opacity:1"
       transform="matrix(1.3333333,0,0,-1.3333333,540.06533,0.26533333)" />
    <path
       id="path18"
       d="m 9.96277,-9.96277 v -89.66492 h 99.62768 v 89.66492 z"
       style="fill:none;stroke:#bfbfbf;stroke-width:0.3985;stroke-linecap:butt;stroke-linejoin:miter;stroke-miterlimit:10;stroke-dasharray:none;stroke-opacity:1"
       transform="matrix(1.3333333,0,0,-1.3333333,540.06533,0.26533333)" />
    <path
       id="path19"
       d="m 15.04845,-126.52261 h 41.63574 v 13.93878 H 15.04845 Z"
       style="fill:none;stroke:#000000;stroke-width:0.3985;stroke-linecap:butt;stroke-linejoin:miter;stroke-miterlimit:10;stroke-dasharray:none;stroke-opacity:1"
       transform="matrix(1.3333333,0,0,-1.3333333,540.06533,0.26533333)" />
    <path
       id="path20"
       d="m 1.8152422,-4.2295078 v -1.9921875 c 0,-0.3398438 -0.070312,-0.4453125 -0.4453125,-0.4453125 H 0.57305469 c -0.17578125,0 -0.4453125,0 -0.4453125,0.3398437 0,0.328125 0.28125,0.328125 0.43359375,0.328125 H 1.0535234 v 5.55468754 c 0,0.2109375 0,0.4453124975 0.3867188,0.4453124975 0.375,0 0.375,-0.2226562475 0.375,-0.4921874975 0.4453125,0.45703125 0.9140625,0.5625 1.265625,0.5625 1.1835937,0 2.2382812,-1.04296875 2.2382812,-2.42578124 0,-1.3476563 -0.9726562,-2.4140625 -2.1210937,-2.4140625 -0.5273438,0 -1.0195313,0.1992187 -1.3828125,0.5390625 z m 0,2.1445312 v -0.796875 c 0,-0.6445312 0.6328125,-1.21875 1.3125,-1.21875 0.8085937,0 1.4414062,0.796875 1.4414062,1.7460938 0,1.0429687 -0.7617187,1.75781249 -1.5234375,1.75781249 -0.8554687,0 -1.2304687,-0.96093749 -1.2304687,-1.48828129 z m 7.8134766,1.73437504 C 9.6404375,9.609375e-4 9.8748125,9.609375e-4 10.074031,9.609375e-4 h 0.796875 c 0.164063,0 0.445313,0 0.445313,-0.3398437475 0,-0.328125 -0.292969,-0.328125 -0.445313,-0.328125 H 10.390438 V -4.2529453 c 0,-0.3398438 -0.07031,-0.4453125 -0.445313,-0.4453125 H 9.14825 c -0.1757812,0 -0.4453125,0 -0.4453125,0.3398437 0,0.328125 0.28125,0.328125 0.4335938,0.328125 h 0.4921875 v 2.3203125 c 0,0.98437504 -0.8789063,1.11328129 -1.2304688,1.11328129 -0.8554687,0 -0.8554687,-0.36328125 -0.8554687,-0.71484379 v -2.9414062 c 0,-0.3398438 -0.070312,-0.4453125 -0.4453125,-0.4453125 h -0.796875 c -0.1757813,0 -0.4453125,0 -0.4453125,0.3398437 0,0.328125 0.28125,0.328125 0.4335937,0.328125 h 0.4921875 v 2.7890625 c 0,1.04296879 0.7617188,1.31250004 1.5585938,1.31250004 0.4453125,0 0.890625,-0.1171875 1.2890625,-0.421875 z M 13.879695,-4.0302891 h 1.78125 c 0.164063,0 0.445313,0 0.445313,-0.328125 0,-0.3398437 -0.269531,-0.3398437 -0.445313,-0.3398437 h -1.78125 v -0.9023438 c 0,-0.1992187 0,-0.4453125 -0.375,-0.4453125 -0.386718,0 -0.386718,0.234375 -0.386718,0.4453125 v 0.9023438 h -0.949219 c -0.164063,0 -0.445313,0 -0.445313,0.3398437 0,0.328125 0.28125,0.328125 0.445313,0.328125 h 0.949219 v 2.6601563 c 0,1.04296874 0.75,1.44140624 1.546875,1.44140624 0.808593,0 1.6875,-0.46875 1.6875,-1.44140624 0,-0.1992188 0,-0.4335938 -0.386719,-0.4335938 -0.351563,0 -0.363281,0.234375 -0.363281,0.421875 -0.01172,0.66796879 -0.632813,0.78515629 -0.890625,0.78515629 -0.832032,0 -0.832032,-0.57421879 -0.832032,-0.84374999 z m 5.727539,0 h 1.78125 c 0.164063,0 0.445313,0 0.445313,-0.328125 0,-0.3398437 -0.269531,-0.3398437 -0.445313,-0.3398437 h -1.78125 v -0.9023438 c 0,-0.1992187 0,-0.4453125 -0.375,-0.4453125 -0.386718,0 -0.386718,0.234375 -0.386718,0.4453125 v 0.9023438 h -0.949219 c -0.164063,0 -0.445313,0 -0.445313,0.3398437 0,0.328125 0.28125,0.328125 0.445313,0.328125 h 0.949219 v 2.6601563 c 0,1.04296874 0.75,1.44140624 1.546875,1.44140624 0.808593,0 1.6875,-0.46875 1.6875,-1.44140624 0,-0.1992188 0,-0.4335938 -0.386719,-0.4335938 -0.351563,0 -0.363281,0.234375 -0.363281,0.421875 -0.01172,0.66796879 -0.632813,0.78515629 -0.890625,0.78515629 -0.832032,0 -0.832032,-0.57421879 -0.832032,-0.84374999 z m 8.399414,1.6757813 c 0,-1.359375 -1.019531,-2.4492188 -2.238281,-2.4492188 -1.21875,0 -2.238281,1.0898438 -2.238281,2.4492188 0,1.38281249 1.042969,2.42578124 2.238281,2.42578124 1.195313,0 2.238281,-1.0546875 2.238281,-2.42578124 z m -2.238281,1.75781249 c -0.808594,0 -1.488281,-0.82031249 -1.488281,-1.83984379 0,-0.984375 0.714844,-1.6992187 1.488281,-1.6992187 0.785156,0 1.488281,0.7148437 1.488281,1.6992187 0,1.0195313 -0.679687,1.83984379 -1.488281,1.83984379 z m 4.68457,-3.59765629 c 0,-0.3398437 0,-0.5039062 -0.445312,-0.5039062 H 29.21075 c -0.175781,0 -0.445313,0 -0.445313,0.3398437 0,0.328125 0.28125,0.328125 0.433594,0.328125 h 0.492188 v 3.36328129 H 29.21075 c -0.175781,0 -0.445313,0 -0.445313,0.33984375 0,0.3281249975 0.28125,0.3281249975 0.433594,0.3281249975 h 1.734375 c 0.152344,0 0.445313,0 0.445313,-0.3281249975 0,-0.33984375 -0.28125,-0.33984375 -0.445313,-0.33984375 H 30.452937 V -2.6006016 c 0,-1.0898437 0.796875,-1.5 1.359375,-1.5 0.574219,0 0.726563,0.3046875 0.726563,0.9609375 v 2.47265629 H 32.117 c -0.175781,0 -0.445313,0 -0.445313,0.33984375 0,0.3281249975 0.292969,0.3281249975 0.445313,0.3281249975 h 1.664063 c 0.152343,0 0.445312,0 0.445312,-0.3281249975 0,-0.33984375 -0.28125,-0.33984375 -0.445312,-0.33984375 H 33.300594 V -3.1982578 c 0,-1.1015625 -0.5625,-1.5703125 -1.417969,-1.5703125 -0.738281,0 -1.230469,0.375 -1.429688,0.5742187 z m 0,0"
       style="fill:#000000;fill-opacity:1;fill-rule:nonzero;stroke:none"
       aria-label="button"
       transform="matrix(1.3333333,0,0,1.3333333,564.97733,164.112)" />
    <path
       id="path21"
       d="m 62.869,-126.52261 h 41.63574 v 13.93878 H 62.869 Z"
       style="fill:none;stroke:#000000;stroke-width:0.3985;stroke-linecap:butt;stroke-linejoin:miter;stroke-miterlimit:10;stroke-dasharray:none;stroke-opacity:1"
       transform="matrix(1.3333333,0,0,-1.3333333,540.06533,0.26533333)" />
    <path
       id="path22"
       d="m 1.8165312,-4.2295078 v -1.9921875 c 0,-0.3398438 -0.070312,-0.4453125 -0.4453125,-0.4453125 H 0.57434375 c -0.17578125,0 -0.4453125,0 -0.4453125,0.3398437 0,0.328125 0.28125,0.328125 0.43359375,0.328125 h 0.4921875 v 5.55468754 c 0,0.2109375 0,0.4453124975 0.3867187,0.4453124975 0.375,0 0.375,-0.2226562475 0.375,-0.4921874975 0.4453125,0.45703125 0.9140625,0.5625 1.265625,0.5625 1.1835938,0 2.2382813,-1.04296875 2.2382813,-2.42578124 0,-1.3476563 -0.9726563,-2.4140625 -2.1210938,-2.4140625 -0.5273437,0 -1.0195312,0.1992187 -1.3828125,0.5390625 z m 0,2.1445312 v -0.796875 c 0,-0.6445312 0.6328125,-1.21875 1.3125,-1.21875 0.8085938,0 1.4414063,0.796875 1.4414063,1.7460938 0,1.0429687 -0.7617188,1.75781249 -1.5234375,1.75781249 -0.8554688,0 -1.2304688,-0.96093749 -1.2304688,-1.48828129 z m 7.8134766,1.73437504 C 9.6417266,9.609375e-4 9.8761016,9.609375e-4 10.07532,9.609375e-4 h 0.796875 c 0.164063,0 0.445313,0 0.445313,-0.3398437475 0,-0.328125 -0.292969,-0.328125 -0.445313,-0.328125 H 10.391727 V -4.2529453 c 0,-0.3398438 -0.07031,-0.4453125 -0.4453129,-0.4453125 h -0.796875 c -0.1757813,0 -0.4453125,0 -0.4453125,0.3398437 0,0.328125 0.28125,0.328125 0.4335937,0.328125 h 0.4921875 v 2.3203125 c 0,0.98437504 -0.8789062,1.11328129 -1.2304687,1.11328129 -0.8554688,0 -0.8554688,-0.36328125 -0.8554688,-0.71484379 v -2.9414062 c 0,-0.3398438 -0.070312,-0.4453125 -0.4453125,-0.4453125 h -0.796875 c -0.1757812,0 -0.4453125,0 -0.4453125,0.3398437 0,0.328125 0.28125,0.328125 0.4335938,0.328125 h 0.4921875 v 2.7890625 c 0,1.04296879 0.7617187,1.31250004 1.5585937,1.31250004 0.4453125,0 0.890625,-0.1171875 1.2890625,-0.421875 z M 13.880984,-4.0302891 h 1.78125 c 0.164063,0 0.445313,0 0.445313,-0.328125 0,-0.3398437 -0.269531,-0.3398437 -0.445313,-0.3398437 h -1.78125 v -0.9023438 c 0,-0.1992187 0,-0.4453125 -0.375,-0.4453125 -0.386718,0 -0.386718,0.234375 -0.386718,0.4453125 v 0.9023438 h -0.949219 c -0.164063,0 -0.445313,0 -0.445313,0.3398437 0,0.328125 0.28125,0.328125 0.445313,0.328125 h 0.949219 v 2.6601563 c 0,1.04296874 0.75,1.44140624 1.546875,1.44140624 0.808593,0 1.6875,-0.46875 1.6875,-1.44140624 0,-0.1992188 0,-0.4335938 -0.386719,-0.4335938 -0.351563,0 -0.363281,0.234375 -0.363281,0.421875 -0.01172,0.66796879 -0.632813,0.78515629 -0.890625,0.78515629 -0.832032,0 -0.832032,-0.57421879 -0.832032,-0.84374999 z m 5.727539,0 h 1.78125 c 0.164063,0 0.445313,0 0.445313,-0.328125 0,-0.3398437 -0.269531,-0.3398437 -0.445313,-0.3398437 h -1.78125 v -0.9023438 c 0,-0.1992187 0,-0.4453125 -0.375,-0.4453125 -0.386718,0 -0.386718,0.234375 -0.386718,0.4453125 v 0.9023438 h -0.949219 c -0.164063,0 -0.445313,0 -0.445313,0.3398437 0,0.328125 0.28125,0.328125 0.445313,0.328125 h 0.949219 v 2.6601563 c 0,1.04296874 0.75,1.44140624 1.546875,1.44140624 0.808593,0 1.6875,-0.46875 1.6875,-1.44140624 0,-0.1992188 0,-0.4335938 -0.386719,-0.4335938 -0.351563,0 -0.363281,0.234375 -0.363281,0.421875 -0.01172,0.66796879 -0.632813,0.78515629 -0.890625,0.78515629 -0.832032,0 -0.832032,-0.57421879 -0.832032,-0.84374999 z m 8.399414,1.6757813 c 0,-1.359375 -1.019531,-2.4492188 -2.238281,-2.4492188 -1.21875,0 -2.238281,1.0898438 -2.238281,2.4492188 0,1.38281249 1.042969,2.42578124 2.238281,2.42578124 1.195313,0 2.238281,-1.0546875 2.238281,-2.42578124 z m -2.238281,1.75781249 c -0.808594,0 -1.488281,-0.82031249 -1.488281,-1.83984379 0,-0.984375 0.714844,-1.6992187 1.488281,-1.6992187 0.785156,0 1.488281,0.7148437 1.488281,1.6992187 0,1.0195313 -0.679687,1.83984379 -1.488281,1.83984379 z m 4.684571,-3.59765629 c 0,-0.3398437 0,-0.5039062 -0.445313,-0.5039062 h -0.796875 c -0.175781,0 -0.445312,0 -0.445312,0.3398437 0,0.328125 0.28125,0.328125 0.433593,0.328125 h 0.492188 v 3.36328129 h -0.480469 c -0.175781,0 -0.445312,0 -0.445312,0.33984375 0,0.3281249975 0.28125,0.3281249975 0.433593,0.3281249975 h 1.734375 c 0.152344,0 0.445313,0 0.445313,-0.3281249975 0,-0.33984375 -0.28125,-0.33984375 -0.445313,-0.33984375 H 30.454227 V -2.6006016 c 0,-1.0898437 0.796875,-1.5 1.359375,-1.5 0.574218,0 0.726562,0.3046875 0.726562,0.9609375 v 2.47265629 h -0.421875 c -0.175781,0 -0.445312,0 -0.445312,0.33984375 0,0.3281249975 0.292968,0.3281249975 0.445312,0.3281249975 h 1.664063 c 0.152343,0 0.445312,0 0.445312,-0.3281249975 0,-0.33984375 -0.28125,-0.33984375 -0.445312,-0.33984375 H 33.301883 V -3.1982578 c 0,-1.1015625 -0.5625,-1.5703125 -1.417969,-1.5703125 -0.738281,0 -1.230469,0.375 -1.429687,0.5742187 z m 0,0"
       style="fill:#000000;fill-opacity:1;fill-rule:nonzero;stroke:none"
       aria-label="button"
       transform="matrix(1.3333333,0,0,1.3333333,628.73733,164.112)" />
    <path
       id="path23"
       d="m 9.96277,-109.59045 v -19.92554 h 99.62768 v 19.92554 z"
       style="fill:none;stroke:#bfbfbf;stroke-width:0.3985;stroke-linecap:butt;stroke-linejoin:miter;stroke-miterlimit:10;stroke-dasharray:none;stroke-opacity:1"
       transform="matrix(1.3333333,0,0,-1.3333333,540.06533,0.26533333)" />
  </g>
</svg>
