<?xml version="1.0" encoding="UTF-8" standalone="no"?>
<!-- Created with Inkscape (http://www.inkscape.org/) -->

<svg
   version="1.1"
   id="svg1"
   width="277.14932"
   height="186.42667"
   viewBox="0 0 277.14932 186.42667"
   sodipodi:docname="LED-schakeling.svg"
   inkscape:version="1.3 (0e150ed6c4, 2023-07-21)"
   xmlns:inkscape="http://www.inkscape.org/namespaces/inkscape"
   xmlns:sodipodi="http://sodipodi.sourceforge.net/DTD/sodipodi-0.dtd"
   xmlns="http://www.w3.org/2000/svg"
   xmlns:svg="http://www.w3.org/2000/svg">
  <defs
     id="defs1">
    <clipPath
       clipPathUnits="userSpaceOnUse"
       id="clipPath22">
      <path
         d="m 117.92259,-80.50505 h 47.62286 v 47.62286 h -47.62286 z m 23.81143,30.95494 c -3.94529,0 -7.14349,-3.19821 -7.14349,-7.14351 0,-3.94528 3.1982,-7.14349 7.14349,-7.14349 3.9453,0 7.14351,3.19821 7.14351,7.14349 0,3.9453 -3.19821,7.14351 -7.14351,7.14351 z"
         clip-rule="evenodd"
         id="path22" />
    </clipPath>
    <clipPath
       clipPathUnits="userSpaceOnUse"
       id="clipPath24">
      <path
         d="m 117.92259,-80.50505 h 47.62286 v 47.62286 h -47.62286 z m 23.81143,30.95494 c -3.94529,0 -7.14349,-3.19821 -7.14349,-7.14351 0,-3.94528 3.1982,-7.14349 7.14349,-7.14349 3.9453,0 7.14351,3.19821 7.14351,7.14349 0,3.9453 -3.19821,7.14351 -7.14351,7.14351 z"
         transform="matrix(0.55471655,-0.83208982,0.83208982,0.55471655,-46.228385,149.3845)"
         clip-rule="evenodd"
         id="path24" />
    </clipPath>
    <clipPath
       clipPathUnits="userSpaceOnUse"
       id="clipPath30">
      <path
         d="m 75.40239,-108.85184 h 47.62286 v 47.62286 H 75.40239 Z m 23.81143,30.95493 c -3.9453,0 -7.14351,-3.1982 -7.14351,-7.14349 0,-3.9453 3.19821,-7.14351 7.14351,-7.14351 3.9453,0 7.1435,3.19821 7.1435,7.14351 0,3.94529 -3.1982,7.14349 -7.1435,7.14349 z"
         clip-rule="evenodd"
         id="path30" />
    </clipPath>
    <clipPath
       clipPathUnits="userSpaceOnUse"
       id="clipPath32">
      <path
         d="m 75.40239,-108.85184 h 47.62286 v 47.62286 H 75.40239 Z m 23.81143,30.95493 c -3.9453,0 -7.14351,-3.1982 -7.14351,-7.14349 0,-3.9453 3.19821,-7.14351 7.14351,-7.14351 3.9453,0 7.1435,3.19821 7.1435,7.14351 0,3.94529 -3.1982,7.14349 -7.1435,7.14349 z"
         transform="matrix(0.55471655,-0.83208982,0.83208982,0.55471655,0.94536372,129.72832)"
         clip-rule="evenodd"
         id="path32" />
    </clipPath>
  </defs>
  <sodipodi:namedview
     id="namedview1"
     pagecolor="#ffffff"
     bordercolor="#666666"
     borderopacity="1.0"
     inkscape:showpageshadow="2"
     inkscape:pageopacity="0.0"
     inkscape:pagecheckerboard="0"
     inkscape:deskcolor="#d1d1d1"
     inkscape:zoom="6.3349308"
     inkscape:cx="138.51769"
     inkscape:cy="93.213331"
     inkscape:window-width="2560"
     inkscape:window-height="1377"
     inkscape:window-x="1912"
     inkscape:window-y="-8"
     inkscape:window-maximized="1"
     inkscape:current-layer="g1">
    <inkscape:page
       x="0"
       y="0"
       inkscape:label="1"
       id="page1"
       width="277.14932"
       height="186.42667"
       margin="0"
       bleed="0" />
  </sodipodi:namedview>
  <g
     id="g1"
     inkscape:groupmode="layer"
     inkscape:label="1">
    <path
       id="path1"
       d="m 0,-113.38724 v 50.74077 m -13.61008,-1.90489 v 15.71553 M 0,-50.74075 V 0"
       style="fill:none;stroke:#000000;stroke-width:0.3985;stroke-linecap:butt;stroke-linejoin:miter;stroke-miterlimit:10;stroke-dasharray:none;stroke-opacity:1"
       transform="matrix(1.3333333,0,0,-1.3333333,49.782667,6.9066667)" />
    <path
       id="path2"
       d="m 0,-113.38724 v -11.90558"
       style="fill:none;stroke:#000000;stroke-width:0.3985;stroke-linecap:butt;stroke-linejoin:miter;stroke-miterlimit:10;stroke-dasharray:none;stroke-opacity:1"
       transform="matrix(1.3333333,0,0,-1.3333333,49.782667,6.9066667)" />
    <path
       id="path3"
       d="m -5.95285,-125.29282 h 11.9057 m -9.92133,-1.98423 h 7.93696 m -6.4488,-1.98438 h 4.96064"
       style="fill:none;stroke:#000000;stroke-width:0.797;stroke-linecap:butt;stroke-linejoin:miter;stroke-miterlimit:10;stroke-dasharray:none;stroke-opacity:1"
       transform="matrix(1.3333333,0,0,-1.3333333,49.782667,6.9066667)" />
    <path
       id="path4"
       d="m 0,-54.72917 v 3.98842 m 0,-7.9173 v -3.98842"
       style="fill:none;stroke:#000000;stroke-width:0.3985;stroke-linecap:butt;stroke-linejoin:miter;stroke-miterlimit:10;stroke-dasharray:none;stroke-opacity:1"
       transform="matrix(1.3333333,0,0,-1.3333333,49.782667,6.9066667)" />
    <path
       id="path5"
       d="M -11.90572,-54.72917 H 11.90572"
       style="fill:none;stroke:#000000;stroke-width:0.797;stroke-linecap:butt;stroke-linejoin:miter;stroke-miterlimit:10;stroke-dasharray:none;stroke-opacity:1"
       transform="matrix(1.3333333,0,0,-1.3333333,49.782667,6.9066667)" />
    <path
       id="path6"
       d="M -5.95285,-58.65805 H 5.95285"
       style="fill:none;stroke:#000000;stroke-width:2.39102;stroke-linecap:butt;stroke-linejoin:miter;stroke-miterlimit:10;stroke-dasharray:none;stroke-opacity:1"
       transform="matrix(1.3333333,0,0,-1.3333333,49.782667,6.9066667)" />
    <path
       id="path7"
       d="m -13.61008,-53.05237 h 1.98426 l -1.98426,4.21654 -1.98425,-4.21654 h 1.98425"
       style="fill:#000000;fill-opacity:1;fill-rule:nonzero;stroke:#000000;stroke-width:0.3985;stroke-linecap:butt;stroke-linejoin:miter;stroke-miterlimit:10;stroke-dasharray:none;stroke-opacity:1"
       transform="matrix(1.3333333,0,0,-1.3333333,49.782667,6.9066667)" />
    <g
       id="g7"
       aria-label="U&#10;0"
       transform="matrix(1.3333333,0,0,1.3333333,9.2986667,86.376)">
      <path
         id="path8"
         d="M 6.9244375,-6.3054375 C 7.0299063,-6.75075 7.229125,-7.078875 8.1080313,-7.1140313 c 0.046875,0 0.1875,-0.011719 0.1875,-0.2226562 0,-0.011719 0,-0.1171875 -0.1523438,-0.1171875 -0.3515625,0 -0.7382812,0.035156 -1.1132812,0.035156 -0.3632813,0 -0.7734375,-0.035156 -1.125,-0.035156 -0.070312,0 -0.1992188,0 -0.1992188,0.2226562 0,0.1171875 0.1054688,0.1171875 0.1992188,0.1171875 0.6210937,0.011719 0.7382812,0.234375 0.7382812,0.4804688 0,0.035156 -0.023437,0.1992187 -0.035156,0.234375 l -0.984375,3.890625 C 5.260375,-1.0437188 4.0064688,-0.0945 2.916625,-0.0945 c -0.75,0 -1.3359375,-0.48046875 -1.3359375,-1.4179688 0,-0.023437 0,-0.375 0.1171875,-0.8554687 L 2.7642813,-6.610125 c 0.09375,-0.3984375 0.1171875,-0.5039063 0.9140625,-0.5039063 0.28125,0 0.3632812,0 0.3632812,-0.2226562 0,-0.1171875 -0.1171875,-0.1171875 -0.1523437,-0.1171875 -0.3046875,0 -1.0898438,0.035156 -1.3945313,0.035156 -0.3164062,0 -1.0898437,-0.035156 -1.40625,-0.035156 -0.082031,0 -0.2109375,0 -0.2109375,0.2226562 0,0.1171875 0.10546875,0.1171875 0.3046875,0.1171875 0.023437,0 0.234375,0 0.421875,0.023437 0.1992188,0.023437 0.2929688,0.035156 0.2929688,0.1757813 0,0.058594 -0.1171875,0.515625 -0.1875,0.7734375 L 1.4752188,-5.180438 C 1.36975,-4.7585625 0.854125,-2.6960625 0.80725,-2.485125 c -0.0820313,0.3046875 -0.0820313,0.46875 -0.0820313,0.6328125 0,1.32421875 0.9960937,2.0859375 2.1445313,2.0859375 1.3710937,0 2.7304687,-1.23046875 3.0820312,-2.671875 z m 0,0"
         style="fill:#000000;fill-opacity:1;fill-rule:nonzero;stroke:none" />
      <path
         id="path9"
         d="m 11.351195,-0.90602344 c 0,-0.85546876 -0.09375,-1.37109376 -0.351562,-1.87499996 -0.351563,-0.703125 -0.996094,-0.8789063 -1.4414064,-0.8789063 -0.9960938,0 -1.3710938,0.75 -1.4765625,0.9726563 -0.2929688,0.5742187 -0.3046875,1.3710937 -0.3046875,1.78124996 0,0.52734375 0.023437,1.3359375 0.4101562,1.96875004 0.3632813,0.5859375 0.9492188,0.7382812 1.3710938,0.7382812 0.3867187,0 1.0664064,-0.1171875 1.4648434,-0.90234374 0.292969,-0.57421875 0.328125,-1.2890625 0.328125,-1.8046875 z M 9.5582266,1.5783516 c -0.2695313,0 -0.8203125,-0.1289063 -0.984375,-0.96093754 -0.09375,-0.45703125 -0.09375,-1.20703125 -0.09375,-1.6171875 0,-0.55078126 0,-1.11328126 0.09375,-1.54687496 0.1640625,-0.8085938 0.7851562,-0.890625 0.984375,-0.890625 0.2695312,0 0.8203124,0.1289062 0.9843754,0.8554687 0.09375,0.4453125 0.09375,1.0429688 0.09375,1.58203126 0,0.46875 0,1.18359375 -0.09375,1.62890625 C 10.378539,1.4728828 9.8277578,1.5783516 9.5582266,1.5783516 Z m 0,0"
         style="fill:#000000;fill-opacity:1;fill-rule:nonzero;stroke:none" />
    </g>
    <path
       id="path10"
       d="m 0,0 h 56.69362 v -20.40984 m 0,-15.8739 V -56.69362 -69.1662 m 0,-31.74838 v -12.47266 H 0"
       style="fill:none;stroke:#000000;stroke-width:0.3985;stroke-linecap:butt;stroke-linejoin:miter;stroke-miterlimit:10;stroke-dasharray:none;stroke-opacity:1"
       transform="matrix(1.3333333,0,0,-1.3333333,49.782667,6.9066667)" />
    <path
       id="path11"
       d="m 56.69362,-36.28374 9.92134,15.8739 h -19.8427 z"
       style="fill:none;stroke:#000000;stroke-width:0.797;stroke-linecap:butt;stroke-linejoin:miter;stroke-miterlimit:10;stroke-dasharray:none;stroke-opacity:1"
       transform="matrix(1.3333333,0,0,-1.3333333,49.782667,6.9066667)" />
    <path
       id="path12"
       d="m 46.77226,-36.28374 h 19.8427"
       style="fill:none;stroke:#000000;stroke-width:0.797;stroke-linecap:butt;stroke-linejoin:miter;stroke-miterlimit:10;stroke-dasharray:none;stroke-opacity:1"
       transform="matrix(1.3333333,0,0,-1.3333333,49.782667,6.9066667)" />
    <path
       id="path13"
       d="m 66.61496,-25.17207 8.05438,-6.44338"
       style="fill:none;stroke:#000000;stroke-width:0.3985;stroke-linecap:butt;stroke-linejoin:miter;stroke-miterlimit:10;stroke-dasharray:none;stroke-opacity:1"
       transform="matrix(1.3333333,0,0,-1.3333333,49.782667,6.9066667)" />
    <path
       id="path14"
       d="m 2.39102,0 c -0.99626,0.19925 -2.78952,0.59775 -3.98503,1.49438 0.99626,-1.09588 0.99626,-1.89288 0,-2.98876 C -0.3985,-0.59775 1.39476,-0.19925 2.39102,0 Z"
       style="fill:#000000;fill-opacity:1;fill-rule:nonzero;stroke:none"
       transform="matrix(1.0410933,0.83286667,0.83286667,-1.0410933,149.34177,49.0606)" />
    <path
       id="path15"
       d="m 64.6307,-29.93414 8.05439,-6.44341"
       style="fill:none;stroke:#000000;stroke-width:0.3985;stroke-linecap:butt;stroke-linejoin:miter;stroke-miterlimit:10;stroke-dasharray:none;stroke-opacity:1"
       transform="matrix(1.3333333,0,0,-1.3333333,49.782667,6.9066667)" />
    <path
       id="path16"
       d="m 2.39102,0 c -0.99626,0.19925 -2.78952,0.59775 -3.98503,1.49438 0.99626,-1.09588 0.99626,-1.89288 0,-2.98876 C -0.3985,-0.59775 1.39476,-0.19925 2.39102,0 Z"
       style="fill:#000000;fill-opacity:1;fill-rule:nonzero;stroke:none"
       transform="matrix(1.0410933,0.83286667,0.83286667,-1.0410933,146.69609,55.410067)" />
    <path
       id="path17"
       d="m 50.74075,-100.9146 v 31.74839 h 11.90572 v -31.74839 z"
       style="fill:none;stroke:#000000;stroke-width:0.797;stroke-linecap:butt;stroke-linejoin:miter;stroke-miterlimit:10;stroke-dasharray:none;stroke-opacity:1"
       transform="matrix(1.3333333,0,0,-1.3333333,49.782667,6.9066667)" />
    <path
       id="path18"
       d="M 1.3825938,-0.84241406 2.54275,-1.9674141 c 1.6992188,-1.5 2.3554688,-2.0859375 2.3554688,-3.1757812 0,-1.2539063 -0.984375,-2.1210938 -2.3085938,-2.1210938 -1.2421875,0 -2.0390625,1.0078125 -2.0390625,1.96875 0,0.6210938 0.5390625,0.6210938 0.5742188,0.6210938 0.1875,0 0.5625,-0.140625 0.5625,-0.5859375 0,-0.28125 -0.1875,-0.5625 -0.5742188,-0.5625 -0.082031,0 -0.1054687,0 -0.140625,0.011719 0.2460938,-0.7148437 0.84375,-1.1132812 1.4765625,-1.1132812 0.984375,0 1.453125,0.8789062 1.453125,1.78125 0,0.8671875 -0.5390625,1.734375 -1.1367187,2.4023437 L 0.66775,-0.39710156 c -0.1171875,0.1171875 -0.1171875,0.140625 -0.1171875,0.3984375 H 4.5935313 L 4.8982188,-1.8971016 H 4.6286875 c -0.058594,0.328125 -0.1289062,0.8085938 -0.2460937,0.97265629 -0.070312,0.0820313 -0.796875,0.0820313 -1.03125,0.0820313 z m 5.4550781,0 1.1601562,-1.12500004 c 1.6992188,-1.5 2.3554689,-2.0859375 2.3554689,-3.1757812 0,-1.2539063 -0.9843751,-2.1210938 -2.3085939,-2.1210938 -1.2421875,0 -2.0390625,1.0078125 -2.0390625,1.96875 0,0.6210938 0.5390625,0.6210938 0.5742188,0.6210938 0.1875,0 0.5625,-0.140625 0.5625,-0.5859375 0,-0.28125 -0.1875,-0.5625 -0.5742188,-0.5625 -0.082031,0 -0.1054687,0 -0.140625,0.011719 0.2460938,-0.7148437 0.84375,-1.1132812 1.4765625,-1.1132812 0.984375,0 1.453125,0.8789062 1.453125,1.78125 0,0.8671875 -0.5390625,1.734375 -1.1367187,2.4023437 l -2.0976563,2.34375004 c -0.1171875,0.1171875 -0.1171875,0.140625 -0.1171875,0.3984375 h 4.0429684 l 0.304688,-1.89843754 h -0.269531 c -0.05859,0.328125 -0.1289066,0.8085938 -0.2460941,0.97265629 -0.070312,0.0820313 -0.796875,0.0820313 -1.03125,0.0820313 z M 15.925563,-3.4908516 c 0,-0.8671875 -0.04687,-1.7460937 -0.433594,-2.5546875 -0.503906,-1.0429687 -1.394531,-1.21875 -1.851563,-1.21875 -0.65625,0 -1.453125,0.28125 -1.898437,1.3007813 -0.351563,0.75 -0.410156,1.6054687 -0.410156,2.4726562 0,0.8203125 0.04687,1.8046875 0.492187,2.62500004 0.46875,0.890625 1.265625,1.1015625 1.804688,1.1015625 0.585937,0 1.417968,-0.22265625 1.898437,-1.26562504 0.351563,-0.75 0.398438,-1.59375 0.398438,-2.4609375 z m -2.296875,3.49218754 c -0.421875,0 -1.066407,-0.26953125 -1.265625,-1.32421874 -0.117188,-0.65625 -0.117188,-1.6523438 -0.117188,-2.296875 0,-0.703125 0,-1.4179688 0.08203,-2.0039063 0.210938,-1.3007812 1.03125,-1.40625 1.300782,-1.40625 0.363281,0 1.078125,0.1992188 1.289062,1.2773438 0.105469,0.609375 0.105469,1.4414062 0.105469,2.1328125 0,0.8203125 0,1.5585937 -0.117188,2.2617187 -0.164062,1.03125004 -0.785156,1.35937504 -1.277343,1.35937504 z M 25.567164,-1.7681953 h -0.269531 c -0.05859,0.28125 -0.09375,0.5390625 -0.199219,0.79687499 -0.04687,0.17578125 -0.08203,0.2578125 -0.714844,0.2578125 h -0.878906 c 0.140625,-0.60937499 0.480469,-1.12499999 0.972656,-1.85156249 0.515625,-0.7734375 0.960938,-1.5234375 0.960938,-2.390625 0,-1.5117188 -1.476563,-2.7304688 -3.316406,-2.7304688 -1.875,0 -3.328125,1.2421875 -3.328125,2.7304688 0,0.8671875 0.445312,1.6171875 0.960937,2.390625 0.480469,0.7265625 0.832031,1.2421875 0.972656,1.85156249 h -0.878906 c -0.632812,0 -0.65625,-0.0820313 -0.714844,-0.24609375 C 19.051539,-1.2056953 18.992945,-1.4986641 18.934352,-1.7681953 H 18.66482 l 0.363282,1.76953124 h 1.746093 c 0.234375,0 0.269532,0 0.269532,-0.234375 0,-0.76171875 -0.339844,-1.72265624 -0.585938,-2.41406254 -0.234375,-0.6328125 -0.539062,-1.5 -0.539062,-2.3203125 0,-1.7460937 1.195312,-2.484375 2.191406,-2.484375 1.054687,0 2.203125,0.7851563 2.203125,2.484375 0,0.8203125 -0.292969,1.6523438 -0.609375,2.5429688 -0.164063,0.4570312 -0.515625,1.44140624 -0.515625,2.19140624 0,0.234375 0.03516,0.234375 0.292969,0.234375 h 1.734375 z m 0,0"
       style="fill:#000000;fill-opacity:1;fill-rule:nonzero;stroke:none"
       aria-label="220Ω"
       transform="matrix(1.3333333,0,0,1.3333333,80.234667,123.424)" />
    <path
       id="path19"
       d="m 56.69362,0 h 85.04042 l -2e-5,-44.78787 m 0,-23.81145 2e-5,-44.78792 H 56.69362"
       style="fill:none;stroke:#000000;stroke-width:0.3985;stroke-linecap:butt;stroke-linejoin:miter;stroke-miterlimit:10;stroke-dasharray:none;stroke-opacity:1"
       transform="matrix(1.3333333,0,0,-1.3333333,49.782667,6.9066667)" />
    <path
       id="path20"
       d="m 153.63974,-56.69362 c 0,6.57542 -5.33029,11.90573 -11.90572,11.90573 -6.5754,0 -11.90571,-5.33031 -11.90571,-11.90573 0,-6.57541 5.33031,-11.90571 11.90571,-11.90571 6.57543,0 11.90572,5.3303 11.90572,11.90571 z"
       style="fill:none;stroke:#000000;stroke-width:0.797;stroke-linecap:butt;stroke-linejoin:miter;stroke-miterlimit:10;stroke-dasharray:none;stroke-opacity:1"
       transform="matrix(1.3333333,0,0,-1.3333333,49.782667,6.9066667)" />
    <path
       id="path21"
       d="m 132.20943,-70.98044 17.72296,26.58429"
       style="fill:none;stroke:#000000;stroke-width:0.3985;stroke-linecap:butt;stroke-linejoin:miter;stroke-miterlimit:10;stroke-dasharray:none;stroke-opacity:1"
       transform="matrix(1.3333333,0,0,-1.3333333,49.782667,6.9066667)"
       clip-path="url(#clipPath22)" />
    <path
       id="path23"
       d="m 2.39102,0 c -0.99626,0.19925 -2.78952,0.59775 -3.98503,1.49438 0.99626,-1.09588 0.99626,-1.89288 0,-2.98876 C -0.3985,-0.59775 1.39476,-0.19925 2.39102,0 Z"
       style="fill:#000000;fill-opacity:1;fill-rule:nonzero;stroke:none"
       transform="matrix(0.73956,-1.10936,-1.10936,-0.73956,249.69252,66.101547)"
       clip-path="url(#clipPath24)" />
    <g
       id="g24"
       aria-label="U&#10;1"
       transform="matrix(1.3333333,0,0,1.3333333,230.63867,86.376)">
      <path
         id="path25"
         d="M 6.9243203,-6.3054375 C 7.0297891,-6.75075 7.2290078,-7.078875 8.1079141,-7.1140313 c 0.046875,0 0.1875,-0.011719 0.1875,-0.2226562 0,-0.011719 0,-0.1171875 -0.1523438,-0.1171875 -0.3515625,0 -0.7382812,0.035156 -1.1132812,0.035156 -0.3632813,0 -0.7734375,-0.035156 -1.125,-0.035156 -0.070312,0 -0.1992188,0 -0.1992188,0.2226562 0,0.1171875 0.1054688,0.1171875 0.1992188,0.1171875 0.6210937,0.011719 0.7382812,0.234375 0.7382812,0.4804688 0,0.035156 -0.023437,0.1992187 -0.035156,0.234375 l -0.984375,3.890625 C 5.2602578,-1.0437188 4.0063516,-0.0945 2.9165078,-0.0945 c -0.75,0 -1.3359375,-0.48046875 -1.3359375,-1.4179688 0,-0.023437 0,-0.375 0.1171875,-0.8554687 L 2.7641641,-6.610125 c 0.09375,-0.3984375 0.1171875,-0.5039063 0.9140625,-0.5039063 0.28125,0 0.3632812,0 0.3632812,-0.2226562 0,-0.1171875 -0.1171875,-0.1171875 -0.1523437,-0.1171875 -0.3046875,0 -1.0898438,0.035156 -1.3945313,0.035156 -0.3164062,0 -1.0898437,-0.035156 -1.40625,-0.035156 -0.082031,0 -0.21093749,0 -0.21093749,0.2226562 0,0.1171875 0.10546875,0.1171875 0.30468749,0.1171875 0.023437,0 0.234375,0 0.421875,0.023437 0.1992188,0.023437 0.2929688,0.035156 0.2929688,0.1757813 0,0.058594 -0.1171875,0.515625 -0.1875,0.7734375 l -0.234375,0.9609375 c -0.1054688,0.421875 -0.62109379,2.484375 -0.66796879,2.6953125 -0.0820313,0.3046875 -0.0820313,0.46875 -0.0820313,0.6328125 0,1.32421875 0.99609369,2.0859375 2.14453119,2.0859375 1.3710938,0 2.7304688,-1.23046875 3.0820313,-2.671875 z m 0,0"
         style="fill:#000000;fill-opacity:1;fill-rule:nonzero;stroke:none" />
      <path
         id="path26"
         d="m 9.9565469,-3.4372734 c 0,-0.2226563 -0.023437,-0.2226563 -0.234375,-0.2226563 -0.328125,0.3164063 -0.75,0.5039063 -1.5117188,0.5039063 v 0.2695312 c 0.2226563,0 0.6445313,0 1.1132813,-0.2226562 v 4.08984371 c 0,0.29296879 -0.023437,0.39843749 -0.7851563,0.39843749 h -0.28125 v 0.2578125 c 0.328125,-0.023437 1.0195313,-0.023437 1.3710938,-0.023437 0.3632812,0 1.0546871,0 1.3828121,0.023437 V 1.3791328 h -0.28125 c -0.7499996,0 -0.7734371,-0.1054687 -0.7734371,-0.39843749 z m 0,0"
         style="fill:#000000;fill-opacity:1;fill-rule:nonzero;stroke:none" />
    </g>
    <path
       id="path27"
       d="m 56.69362,-56.69362 h 42.5202 v -16.44105 m 0,-23.81143 v -16.44114 h -42.5202"
       style="fill:none;stroke:#000000;stroke-width:0.3985;stroke-linecap:butt;stroke-linejoin:miter;stroke-miterlimit:10;stroke-dasharray:none;stroke-opacity:1"
       transform="matrix(1.3333333,0,0,-1.3333333,49.782667,6.9066667)" />
    <path
       id="path28"
       d="m 111.11954,-85.0404 c 0,6.57542 -5.33031,11.90571 -11.90572,11.90571 -6.57542,0 -11.90572,-5.33029 -11.90572,-11.90571 0,-6.57543 5.3303,-11.90572 11.90572,-11.90572 6.57541,0 11.90572,5.33029 11.90572,11.90572 z"
       style="fill:none;stroke:#000000;stroke-width:0.797;stroke-linecap:butt;stroke-linejoin:miter;stroke-miterlimit:10;stroke-dasharray:none;stroke-opacity:1"
       transform="matrix(1.3333333,0,0,-1.3333333,49.782667,6.9066667)" />
    <path
       id="path29"
       d="m 89.68922,-99.32722 17.72297,26.58427"
       style="fill:none;stroke:#000000;stroke-width:0.3985;stroke-linecap:butt;stroke-linejoin:miter;stroke-miterlimit:10;stroke-dasharray:none;stroke-opacity:1"
       transform="matrix(1.3333333,0,0,-1.3333333,49.782667,6.9066667)"
       clip-path="url(#clipPath30)" />
    <path
       id="path31"
       d="m 2.39102,0 c -0.99626,0.19925 -2.78952,0.59775 -3.98503,1.49438 0.99626,-1.09588 0.99626,-1.89288 0,-2.98876 C -0.3985,-0.59775 1.39476,-0.19925 2.39102,0 Z"
       style="fill:#000000;fill-opacity:1;fill-rule:nonzero;stroke:none"
       transform="matrix(0.73956,-1.10936,-1.10936,-0.73956,192.99892,103.89729)"
       clip-path="url(#clipPath32)" />
    <g
       id="g32"
       aria-label="U&#10;2"
       transform="matrix(1.3333333,0,0,1.3333333,173.94533,124.172)">
      <path
         id="path33"
         d="m 6.9257656,-6.3047813 c 0.1054688,-0.4453125 0.3046875,-0.7734375 1.1835938,-0.8085937 0.046875,0 0.1875,-0.011719 0.1875,-0.2226563 0,-0.011719 0,-0.1171875 -0.1523438,-0.1171875 -0.3515625,0 -0.7382812,0.035156 -1.1132812,0.035156 -0.3632813,0 -0.7734375,-0.035156 -1.125,-0.035156 -0.070312,0 -0.1992188,0 -0.1992188,0.2226563 0,0.1171875 0.1054688,0.1171875 0.1992188,0.1171875 0.6210937,0.011719 0.7382812,0.234375 0.7382812,0.4804687 0,0.035156 -0.023437,0.1992188 -0.035156,0.234375 l -0.984375,3.890625 c -0.3632813,1.4648438 -1.6171875,2.41406255 -2.7070313,2.41406255 -0.75,0 -1.3359375,-0.48046875 -1.3359375,-1.41796875 0,-0.023437 0,-0.375 0.1171875,-0.8554688 l 1.0664063,-4.2421875 c 0.09375,-0.3984375 0.1171875,-0.5039062 0.9140625,-0.5039062 0.28125,0 0.3632812,0 0.3632812,-0.2226563 0,-0.1171875 -0.1171875,-0.1171875 -0.1523437,-0.1171875 -0.3046875,0 -1.0898438,0.035156 -1.3945313,0.035156 -0.3164062,0 -1.0898437,-0.035156 -1.40625,-0.035156 -0.082031,0 -0.21093747,0 -0.21093747,0.2226563 0,0.1171875 0.10546875,0.1171875 0.30468747,0.1171875 0.023437,0 0.234375,0 0.421875,0.023437 0.1992188,0.023437 0.2929688,0.035156 0.2929688,0.1757812 0,0.058594 -0.1171875,0.515625 -0.1875,0.7734375 l -0.234375,0.9609375 c -0.1054688,0.421875 -0.62109377,2.484375 -0.66796877,2.6953125 -0.0820313,0.3046875 -0.0820313,0.46875 -0.0820313,0.6328125 0,1.3242188 0.99609377,2.08593755 2.14453127,2.08593755 1.3710938,0 2.7304688,-1.23046875 3.0820313,-2.67187505 z m 0,0"
         style="fill:#000000;fill-opacity:1;fill-rule:nonzero;stroke:none" />
      <path
         id="path34"
         d="m 9.7001797,0.00576562 c 0.1289062,-0.1171875 0.4570313,-0.375 0.5859373,-0.4921875 0.492188,-0.45703125 0.960938,-0.89062502 0.960938,-1.61718752 0,-0.9492187 -0.796875,-1.5585937 -1.7929691,-1.5585937 -0.9492187,0 -1.5820312,0.7265625 -1.5820312,1.4296875 0,0.3984375 0.3164062,0.4453125 0.421875,0.4453125 0.1640625,0 0.4101562,-0.1171875 0.4101562,-0.421875 0,-0.4101563 -0.3984375,-0.4101563 -0.4921875,-0.4101563 0.234375,-0.5859375 0.7734375,-0.7851562 1.1601563,-0.7851562 0.7382813,0 1.1250003,0.6328125 1.1250003,1.3007812 0,0.8320313 -0.5859378,1.42968752 -1.5234378,2.40234377 L 7.9658047,1.3299844 c -0.09375,0.09375 -0.09375,0.1054687 -0.09375,0.3046875 h 3.1523433 l 0.222657,-1.42968753 h -0.246094 c -0.02344,0.1640625 -0.08203,0.5625 -0.175781,0.71484375 -0.04687,0.0585938 -0.65625,0.0585938 -0.785157,0.0585938 H 8.6220547 Z m 0,0"
         style="fill:#000000;fill-opacity:1;fill-rule:nonzero;stroke:none" />
    </g>
  </g>
</svg>
