<?xml version="1.0" encoding="UTF-8" standalone="no"?>
<!-- Created with Inkscape (http://www.inkscape.org/) -->

<svg
   version="1.1"
   id="svg1"
   width="256.71201"
   height="300.88266"
   viewBox="0 0 256.71201 300.88266"
   sodipodi:docname="mvc-model.svg"
   inkscape:version="1.3 (0e150ed6c4, 2023-07-21)"
   xmlns:inkscape="http://www.inkscape.org/namespaces/inkscape"
   xmlns:sodipodi="http://sodipodi.sourceforge.net/DTD/sodipodi-0.dtd"
   xmlns="http://www.w3.org/2000/svg"
   xmlns:svg="http://www.w3.org/2000/svg">
  <defs
     id="defs1" />
  <sodipodi:namedview
     id="namedview1"
     pagecolor="#ffffff"
     bordercolor="#666666"
     borderopacity="1.0"
     inkscape:showpageshadow="2"
     inkscape:pageopacity="0.0"
     inkscape:pagecheckerboard="0"
     inkscape:deskcolor="#d1d1d1"
     inkscape:zoom="3.9251182"
     inkscape:cx="128.27639"
     inkscape:cy="150.44133"
     inkscape:window-width="2560"
     inkscape:window-height="1377"
     inkscape:window-x="1912"
     inkscape:window-y="-8"
     inkscape:window-maximized="1"
     inkscape:current-layer="g1">
    <inkscape:page
       x="0"
       y="0"
       inkscape:label="1"
       id="page1"
       width="256.71201"
       height="300.88266"
       margin="0"
       bleed="0" />
  </sodipodi:namedview>
  <g
     id="g1"
     inkscape:groupmode="layer"
     inkscape:label="1">
    <path
       id="path1"
       d="m 0,10.63004 h 24.7108 c 5.87088,0 10.63004,-4.75916 10.63004,-10.63004 0,-5.87088 -4.75916,-10.63004 -10.63004,-10.63004 h -49.4216 c -5.87088,0 -10.63004,4.75916 -10.63004,10.63004 0,5.87088 4.75916,10.63004 10.63004,10.63004 z"
       style="fill:#fff2e6;fill-opacity:1;fill-rule:nonzero;stroke:#000000;stroke-width:1.19553;stroke-linecap:butt;stroke-linejoin:miter;stroke-miterlimit:10;stroke-dasharray:none;stroke-opacity:1"
       transform="matrix(1.3333333,0,0,-1.3333333,128.356,14.969333)" />
    <path
       id="path2"
       d="m 5.1458281,-2.3323828 c 0,-1.3945313 -1.1015625,-2.5546875 -2.4140625,-2.5546875 -1.3710937,0 -2.42578122,1.1835937 -2.42578122,2.5546875 0,1.40624999 1.13671872,2.44921874 2.41406252,2.44921874 1.3125,0 2.4257812,-1.06640625 2.4257812,-2.44921874 z m -2.4140625,2.17968749 c -0.46875,0 -0.9492187,-0.234375 -1.2421875,-0.7265625 -0.28125,-0.48046879 -0.28125,-1.14843749 -0.28125,-1.54687499 0,-0.421875 0,-1.0078125 0.2695313,-1.4882813 0.2929687,-0.5039062 0.8085937,-0.7382812 1.2421875,-0.7382812 0.4804687,0 0.9492187,0.2460937 1.2304687,0.7148437 0.28125,0.46875 0.28125,1.1015625 0.28125,1.5117188 0,0.3984375 0,0.984375 -0.234375,1.46484374 -0.2460937,0.4921875 -0.7265625,0.80859375 -1.265625,0.80859375 z M 6.6487578,-3.7503516 v 2.91796879 c 0,0.4921875 -0.1171875,0.4921875 -0.84375,0.4921875 v 0.3398437475 c 0.375,-0.0117187475 0.9375,-0.0351562475 1.2304688,-0.0351562475 0.28125,0 0.8554687,0.0234375 1.21875,0.0351562475 V -0.34019531 c -0.7265625,0 -0.84375,0 -0.84375,-0.4921875 V -2.8362891 c 0,-1.1367187 0.7734375,-1.7460937 1.4648437,-1.7460937 0.6914063,0 0.8085938,0.5859375 0.8085938,1.2070312 v 2.54296879 c 0,0.4921875 -0.1171875,0.4921875 -0.84375,0.4921875 v 0.3398437475 c 0.375,-0.0117187475 0.9375,-0.0351562475 1.2304689,-0.0351562475 0.28125,0 0.84375,0.0234375 1.21875,0.0351562475 V -0.34019531 c -0.5625,0 -0.84375,0 -0.855469,-0.328125 V -2.7542578 c 0,-0.9375 0,-1.2773438 -0.328125,-1.6640625 -0.1523437,-0.1875 -0.5156249,-0.4101563 -1.1484374,-0.4101563 -0.796875,0 -1.3125,0.4804688 -1.6171875,1.1484375 v -1.1484375 l -1.5351563,0.1289063 v 0.3398437 c 0.7617188,0 0.84375,0.070312 0.84375,0.609375 z m 9.0146482,3.15234379 V 0.11683594 L 17.268875,-3.515625e-4 V -0.34019531 c -0.773437,0 -0.855469,-0.0703125 -0.855469,-0.609375 V -7.5706641 l -1.570312,0.1171875 v 0.3398438 c 0.761719,0 0.855469,0.082031 0.855469,0.609375 v 2.3554687 c -0.316407,-0.3867187 -0.785157,-0.6796875 -1.382813,-0.6796875 -1.289062,0 -2.425781,1.078125 -2.425781,2.484375 0,1.38281254 1.066406,2.46093754 2.308594,2.46093754 0.703125,0 1.195312,-0.36328125 1.464843,-0.71484375 z m 0,-2.92968749 v 2.2382812 c 0,0.1992188 0,0.2226563 -0.117187,0.41015629 -0.328125,0.515625 -0.820313,0.76171875 -1.289063,0.76171875 -0.492187,0 -0.890625,-0.28125 -1.148437,-0.703125 -0.28125,-0.44531254 -0.316406,-1.06640624 -0.316406,-1.51171874 0,-0.4101563 0.02344,-1.0664063 0.339843,-1.546875 0.222657,-0.3398438 0.644532,-0.703125 1.230469,-0.703125 0.386719,0 0.84375,0.1640625 1.183594,0.65625 0.117187,0.1875 0.117187,0.2109375 0.117187,0.3984375 z m 3.131836,0.7734375 c 0.07031,-1.6171875 0.984375,-1.8984375 1.359375,-1.8984375 1.125,0 1.230469,1.4765625 1.230469,1.8984375 z m -0.01172,0.234375 h 3.046875 c 0.246094,0 0.269532,0 0.269532,-0.234375 0,-1.078125 -0.585938,-2.1328125 -1.945313,-2.1328125 -1.265625,0 -2.273437,1.125 -2.273437,2.484375 0,1.46484374 1.148437,2.51953124 2.402343,2.51953124 1.324219,0 1.816407,-1.20703124 1.816407,-1.41796874 0,-0.1054688 -0.08203,-0.1289063 -0.140625,-0.1289063 -0.09375,0 -0.117188,0.070312 -0.140625,0.1523438 -0.375,1.12499999 -1.359375,1.12499999 -1.476563,1.12499999 -0.539062,0 -0.972656,-0.328125 -1.230469,-0.7265625 C 18.783523,-1.4066016 18.783523,-2.1331641 18.783522,-2.5198828 Z m 5.458008,-1.1015625 v -1.2070313 l -1.511718,0.1289063 v 0.3398437 c 0.761718,0 0.855468,0.070312 0.855468,0.609375 v 2.91796879 c 0,0.4921875 -0.128906,0.4921875 -0.855468,0.4921875 V -3.515625e-4 C 23.151688,-0.01207031 23.667313,-0.03550781 23.972,-0.03550781 c 0.433594,0 0.949219,0 1.382813,0.0351562475 V -0.34019531 h -0.222657 c -0.808593,0 -0.832031,-0.1171875 -0.832031,-0.515625 V -2.5316016 c 0,-1.078125 0.457031,-2.0507812 1.289063,-2.0507812 0.08203,0 0.09375,0 0.117187,0.011719 -0.03516,0.011719 -0.246094,0.140625 -0.246094,0.421875 0,0.3046875 0.222657,0.46875 0.46875,0.46875 0.199219,0 0.46875,-0.1289062 0.46875,-0.4804687 0,-0.3515625 -0.339843,-0.6679688 -0.808593,-0.6679688 -0.796875,0 -1.183594,0.7382813 -1.347657,1.2070313 z m 6.708985,-0.75 c 0.09375,-0.1289063 0.09375,-0.140625 0.09375,-0.1875 0,-0.140625 -0.08203,-0.140625 -0.28125,-0.140625 h -3.492188 l -0.117187,1.7578125 h 0.269531 c 0.07031,-1.1132813 0.28125,-1.5234375 1.476562,-1.5234375 h 1.242188 l -3.046875,4.11328124 c -0.09375,0.1171875 -0.09375,0.140625 -0.09375,0.19921875 0,0.1523437475 0.08203,0.1523437475 0.28125,0.1523437475 h 3.609375 L 31.067703,-2.0394141 h -0.269531 c -0.09375,1.28906254 -0.328125,1.76953129 -1.59375,1.76953129 h -1.289063 z m 5.739257,2.0390625 c 0,-1.3945313 -1.101562,-2.5546875 -2.414062,-2.5546875 -1.371094,0 -2.425781,1.1835937 -2.425781,2.5546875 0,1.40624999 1.136718,2.44921874 2.414062,2.44921874 1.3125,0 2.425781,-1.06640625 2.425781,-2.44921874 z m -2.414062,2.17968749 c -0.46875,0 -0.949219,-0.234375 -1.242188,-0.7265625 -0.28125,-0.48046879 -0.28125,-1.14843749 -0.28125,-1.54687499 0,-0.421875 0,-1.0078125 0.269532,-1.4882813 0.292968,-0.5039062 0.808593,-0.7382812 1.242187,-0.7382812 0.480469,0 0.949219,0.2460937 1.230469,0.7148437 0.28125,0.46875 0.28125,1.1015625 0.28125,1.5117188 0,0.3984375 0,0.984375 -0.234375,1.46484374 -0.246094,0.4921875 -0.726563,0.80859375 -1.265625,0.80859375 z m 4.248047,-2.60156249 c 0.07031,-1.6171875 0.984375,-1.8984375 1.359375,-1.8984375 1.125,0 1.230469,1.4765625 1.230469,1.8984375 z m -0.01172,0.234375 h 3.046875 c 0.246094,0 0.269531,0 0.269531,-0.234375 0,-1.078125 -0.585937,-2.1328125 -1.945312,-2.1328125 -1.265625,0 -2.273438,1.125 -2.273438,2.484375 0,1.46484374 1.148438,2.51953124 2.402344,2.51953124 1.324219,0 1.816406,-1.20703124 1.816406,-1.41796874 0,-0.1054688 -0.08203,-0.1289063 -0.140625,-0.1289063 -0.09375,0 -0.117187,0.070312 -0.140625,0.1523438 -0.375,1.12499999 -1.359375,1.12499999 -1.476562,1.12499999 -0.539063,0 -0.972656,-0.328125 -1.230469,-0.7265625 C 38.512039,-1.4066016 38.512039,-2.1331641 38.512039,-2.5198828 Z m 4.801758,1.68749999 c 0,0.4921875 -0.128906,0.4921875 -0.855469,0.4921875 V -3.515625e-4 C 42.821609,-0.01207031 43.337234,-0.03550781 43.653641,-0.03550781 c 0.316406,0 0.761718,0.01171875 1.195312,0.0351562475 V -0.34019531 c -0.726562,0 -0.855469,0 -0.855469,-0.4921875 V -1.9573828 l 0.703125,-0.5976563 c 0.84375,1.1601563 1.300782,1.76953129 1.300782,1.96875004 0,0.19921875 -0.1875,0.24609375 -0.398438,0.24609375 V -3.515625e-4 C 45.903641,-0.01207031 46.548172,-0.03550781 46.782547,-0.03550781 c 0.316406,0 0.632812,0.01171875 0.949219,0.0351562475 V -0.34019531 c -0.410157,0 -0.644532,0 -1.066407,-0.57421875 L 45.282547,-2.8714453 c -0.01172,-0.023437 -0.05859,-0.082031 -0.05859,-0.1171875 0,-0.046875 0.773438,-0.703125 0.878906,-0.7851563 0.691407,-0.5625 1.148438,-0.5742187 1.371094,-0.5859375 v -0.3398437 c -0.316406,0.035156 -0.457031,0.035156 -0.761719,0.035156 -0.386718,0 -1.066406,-0.023437 -1.21875,-0.035156 v 0.3398437 c 0.210938,0.011719 0.316407,0.1289063 0.316407,0.2695313 0,0.2109375 -0.152344,0.3515625 -0.246094,0.421875 l -1.535156,1.3359375 v -5.2382813 l -1.570313,0.1171875 v 0.3398438 c 0.761719,0 0.855469,0.082031 0.855469,0.609375 z m 5.510742,-1.92187499 c 0.07031,-1.6171875 0.984375,-1.8984375 1.359375,-1.8984375 1.125,0 1.230469,1.4765625 1.230469,1.8984375 z m -0.01172,0.234375 h 3.046875 c 0.246094,0 0.269532,0 0.269532,-0.234375 0,-1.078125 -0.585938,-2.1328125 -1.945313,-2.1328125 -1.265625,0 -2.273437,1.125 -2.273437,2.484375 0,1.46484374 1.148437,2.51953124 2.402343,2.51953124 1.324219,0 1.816407,-1.20703124 1.816407,-1.41796874 0,-0.1054688 -0.08203,-0.1289063 -0.140625,-0.1289063 -0.09375,0 -0.117188,0.070312 -0.140625,0.1523438 -0.375,1.12499999 -1.359375,1.12499999 -1.476563,1.12499999 -0.539062,0 -0.972656,-0.328125 -1.230469,-0.7265625 C 48.81282,-1.4066016 48.81282,-2.1331641 48.81282,-2.5198828 Z m 5.458008,-1.1015625 v -1.2070313 l -1.511719,0.1289063 v 0.3398437 c 0.761719,0 0.855469,0.070312 0.855469,0.609375 v 2.91796879 c 0,0.4921875 -0.128906,0.4921875 -0.855469,0.4921875 v 0.3398437475 c 0.421875,-0.0117187475 0.9375,-0.0351562475 1.242188,-0.0351562475 0.433594,0 0.949219,0 1.382812,0.0351562475 V -0.34019531 H 55.16145 c -0.808594,0 -0.832031,-0.1171875 -0.832031,-0.515625 V -2.5316016 c 0,-1.078125 0.457031,-2.0507812 1.289062,-2.0507812 0.08203,0 0.09375,0 0.117188,0.011719 -0.03516,0.011719 -0.246094,0.140625 -0.246094,0.421875 0,0.3046875 0.222656,0.46875 0.46875,0.46875 0.199219,0 0.46875,-0.1289062 0.46875,-0.4804687 0,-0.3515625 -0.339844,-0.6679688 -0.808594,-0.6679688 -0.796875,0 -1.183593,0.7382813 -1.347656,1.207031 z m 0,0"
       style="fill:#000000;fill-opacity:1;fill-rule:nonzero;stroke:none"
       aria-label="onderzoeker"
       transform="matrix(1.3333333,0,0,1.3333333,90.537333,20.02)" />
    <path
       id="path3"
       d="m 34.99176,-40.17236 h -69.98352 c -2.20094,0 -3.98511,-1.78417 -3.98511,-3.98511 v -13.28987 c 0,-2.20094 1.78417,-3.98511 3.98511,-3.98511 h 69.98352 c 2.20094,0 3.98511,1.78417 3.98511,3.98511 v 13.28987 c 0,2.20094 -1.78417,3.98511 -3.98511,3.98511 z"
       style="fill:#e6e6ff;fill-opacity:1;fill-rule:nonzero;stroke:#000000;stroke-width:1.19553;stroke-linecap:butt;stroke-linejoin:miter;stroke-miterlimit:10;stroke-dasharray:none;stroke-opacity:1"
       transform="matrix(1.3333333,0,0,-1.3333333,128.356,14.969333)" />
    <path
       id="path4"
       d="M 4.5349453,-3.6329375 C 4.6404141,-3.8790312 4.8279141,-4.3477812 5.5427578,-4.3595 v -0.3398437 c -0.2460937,0.023437 -0.5625,0.035156 -0.8203125,0.035156 -0.2578125,0 -0.7617187,-0.023437 -0.9492187,-0.035156 V -4.3595 c 0.4101562,0.011719 0.5273437,0.2578125 0.5273437,0.46875 0,0.09375 -0.023437,0.140625 -0.070312,0.2578125 L 3.1169766,-0.85559375 1.8982266,-3.89075 c -0.070312,-0.140625 -0.070312,-0.1640625 -0.070312,-0.1875 0,-0.28125 0.4335937,-0.28125 0.6210937,-0.28125 v -0.3398437 c -0.3164062,0.011719 -0.9375,0.035156 -1.1835937,0.035156 -0.29296879,0 -0.72656254,-0.011719 -1.05468754,-0.035156 V -4.3595 c 0.6796875,0 0.7265625,0.058594 0.86718754,0.3984375 l 1.5703125,3.87890625 c 0.070312,0.15234375 0.09375,0.19921875 0.234375,0.19921875 0.140625,0 0.1875,-0.09375 0.2226562,-0.19921875 z M 7.6902187,-4.82825 6.1550625,-4.6993437 V -4.3595 c 0.7148437,0 0.8085937,0.058594 0.8085937,0.5976563 v 2.92968745 c 0,0.4921875 -0.1171875,0.4921875 -0.84375,0.4921875 V -1.25e-4 c 0.3515625,-0.01171875 0.9375,-0.03515625 1.1953125,-0.03515625 0.3867188,0 0.7617188,0.0234375 1.1367188,0.03515625 v -0.33984375 c -0.7148438,0 -0.7617188,-0.0585938 -0.7617188,-0.48046875 z m 0.046875,-1.8867187 c 0,-0.3515625 -0.28125,-0.5859375 -0.5859375,-0.5859375 -0.3398437,0 -0.5742187,0.2929687 -0.5742187,0.5859375 0,0.2929687 0.234375,0.5742187 0.5742187,0.5742187 0.3046875,0 0.5859375,-0.234375 0.5859375,-0.5742187 z m 2.2705083,3.9609375 c 0.07031,-1.6171875 0.984375,-1.8984375 1.359375,-1.8984375 1.125,0 1.230468,1.4765625 1.230468,1.8984375 z m -0.011719,0.234375 h 3.046875 c 0.246094,0 0.269531,0 0.269531,-0.234375 0,-1.078125 -0.585937,-2.1328125 -1.945312,-2.1328125 -1.265625,0 -2.2734377,1.125 -2.2734377,2.484375 0,1.4648437 1.1484377,2.5195312 2.4023437,2.5195312 1.324219,0 1.816406,-1.2070312 1.816406,-1.4179687 0,-0.1054688 -0.08203,-0.1289063 -0.140625,-0.1289063 -0.09375,0 -0.117187,0.070312 -0.140625,0.1523438 -0.375,1.12499995 -1.359375,1.12499995 -1.476562,1.12499995 -0.539063,0 -0.972657,-0.328125 -1.230469,-0.7265625 C 9.9958828,-1.406375 9.9958828,-2.1329375 9.995883,-2.5196562 Z m 10.391601,-1.1484375 c 0.199219,-0.5390625 0.539063,-0.6796875 0.914063,-0.6914063 v -0.3398437 c -0.234375,0.023437 -0.550781,0.035156 -0.785156,0.035156 -0.316407,0 -0.808594,-0.023437 -1.019532,-0.035156 V -4.3595 c 0.386719,0.011719 0.632813,0.1992188 0.632813,0.515625 0,0.070312 0,0.09375 -0.05859,0.234375 l -0.984375,2.7890625 -1.089844,-3.046875 c -0.03516,-0.1289062 -0.04687,-0.1523437 -0.04687,-0.1992187 0,-0.2929688 0.421875,-0.2929688 0.644532,-0.2929688 v -0.3398437 c -0.316407,0.011719 -0.878907,0.035156 -1.136719,0.035156 -0.328125,0 -0.644531,-0.011719 -0.972656,-0.035156 V -4.3595 c 0.398437,0 0.574218,0.011719 0.691406,0.1640625 0.04687,0.058594 0.175781,0.3867188 0.246094,0.5976563 l -0.9375,2.6367187 -1.03125,-2.9179687 c -0.05859,-0.1289063 -0.05859,-0.1523438 -0.05859,-0.1875 0,-0.2929688 0.421875,-0.2929688 0.644531,-0.2929688 v -0.3398437 c -0.328125,0.011719 -0.9375,0.035156 -1.195312,0.035156 -0.03516,0 -0.621094,-0.011719 -1.007813,-0.035156 V -4.3595 c 0.539063,0 0.667969,0.023437 0.808594,0.375 l 1.371094,3.8671875 c 0.05859,0.15234375 0.08203,0.234375 0.234375,0.234375 0.140625,0 0.152343,-0.05859375 0.210937,-0.2109375 l 1.101563,-3.09375 1.113281,3.10546875 c 0.04687,0.1171875 0.08203,0.19921875 0.222656,0.19921875 0.140625,0 0.175781,-0.09375 0.210938,-0.19921875 z m 0,0"
       style="fill:#000000;fill-opacity:1;fill-rule:nonzero;stroke:none"
       aria-label="view"
       transform="matrix(1.3333333,0,0,1.3333333,114.012,87.562667)" />
    <path
       id="path5"
       d="m 34.99176,-90.97478 h -69.98352 c -2.20094,0 -3.98511,-1.78416 -3.98511,-3.9851 v -13.28988 c 0,-2.20094 1.78417,-3.9851 3.98511,-3.9851 h 69.98352 c 2.20094,0 3.98511,1.78416 3.98511,3.9851 v 13.28988 c 0,2.20094 -1.78417,3.9851 -3.98511,3.9851 z"
       style="fill:#e6e6ff;fill-opacity:1;fill-rule:nonzero;stroke:#000000;stroke-width:1.19553;stroke-linecap:butt;stroke-linejoin:miter;stroke-miterlimit:10;stroke-dasharray:none;stroke-opacity:1"
       transform="matrix(1.3333333,0,0,-1.3333333,128.356,14.969333)" />
    <path
       id="path6"
       d="m 1.1953594,-3.7498594 v 2.91796878 c 0,0.4921875 -0.1171875,0.4921875 -0.84375002,0.4921875 V 1.40625e-4 c 0.375,-0.011718745 0.93750002,-0.035156245 1.23046872,-0.035156245 0.28125,0 0.8554688,0.0234375 1.21875,0.035156245 V -0.33970312 c -0.7265625,0 -0.84375,0 -0.84375,-0.4921875 V -2.8357969 c 0,-1.1367187 0.7734375,-1.7460937 1.4648438,-1.7460937 0.6914062,0 0.8085937,0.5859375 0.8085937,1.2070312 v 2.54296878 c 0,0.4921875 -0.1171875,0.4921875 -0.84375,0.4921875 V 1.40625e-4 c 0.375,-0.011718745 0.9375,-0.035156245 1.2304688,-0.035156245 0.28125,0 0.84375,0.0234375 1.21875,0.035156245 V -0.33970312 c -0.7265625,0 -0.8554688,0 -0.8554688,-0.4921875 V -2.8357969 c 0,-1.1367187 0.7851563,-1.7460937 1.4765625,-1.7460937 0.6914063,0 0.8085938,0.5859375 0.8085938,1.2070312 v 2.54296878 c 0,0.4921875 -0.1171875,0.4921875 -0.8554688,0.4921875 V 1.40625e-4 c 0.3867188,-0.011718745 0.9375,-0.035156245 1.2421875,-0.035156245 0.28125,0 0.84375,0.0234375 1.21875,0.035156245 V -0.33970312 c -0.5742187,0 -0.84375,0 -0.8554687,-0.328125 V -2.7537656 c 0,-0.9375 0,-1.2773438 -0.3398438,-1.6640625 -0.1523437,-0.1875 -0.5039062,-0.4101563 -1.1367187,-0.4101563 -0.9257813,0 -1.3945313,0.65625 -1.5820313,1.078125 -0.1523437,-0.9492187 -0.9609375,-1.078125 -1.453125,-1.078125 -0.796875,0 -1.3125,0.4804688 -1.6171875,1.1484375 v -1.1484375 l -1.53515622,0.1289063 v 0.3398437 c 0.76171872,0 0.84375002,0.070312 0.84375002,0.609375 z m 13.0400386,1.4179688 c 0,-1.3945313 -1.101562,-2.5546875 -2.414062,-2.5546875 -1.371094,0 -2.4257813,1.1835937 -2.4257813,2.5546875 0,1.40624998 1.1367183,2.44921873 2.4140623,2.44921873 1.3125,0 2.425781,-1.06640625 2.425781,-2.44921873 z m -2.414062,2.17968748 c -0.46875,0 -0.949219,-0.234375 -1.242188,-0.7265625 -0.28125,-0.48046878 -0.28125,-1.14843748 -0.28125,-1.54687498 0,-0.421875 0,-1.0078125 0.269532,-1.4882813 0.292968,-0.5039062 0.808593,-0.7382812 1.242187,-0.7382812 0.480469,0 0.949219,0.2460937 1.230469,0.7148437 0.28125,0.46875 0.28125,1.1015625 0.28125,1.5117188 0,0.3984375 0,0.984375 -0.234375,1.46484373 -0.246094,0.4921875 -0.726563,0.80859375 -1.265625,0.80859375 z m 7.177734,-0.4453125 V 0.11732813 L 20.604539,1.40625e-4 V -0.33970312 c -0.773437,0 -0.855469,-0.0703125 -0.855469,-0.609375 V -7.5701719 l -1.570312,0.1171875 v 0.3398438 c 0.761719,0 0.855469,0.082031 0.855469,0.609375 v 2.3554687 c -0.316407,-0.3867187 -0.785157,-0.6796875 -1.382813,-0.6796875 -1.289062,0 -2.425781,1.078125 -2.425781,2.484375 0,1.38281253 1.066406,2.46093753 2.308594,2.46093753 0.703125,0 1.195312,-0.36328125 1.464843,-0.71484375 z m 0,-2.92968748 v 2.2382812 c 0,0.1992188 0,0.2226563 -0.117187,0.41015628 -0.328125,0.515625 -0.820313,0.76171875 -1.289063,0.76171875 -0.492187,0 -0.890625,-0.28125 -1.148437,-0.703125 -0.28125,-0.44531253 -0.316406,-1.06640623 -0.316406,-1.51171873 0,-0.4101563 0.02344,-1.0664063 0.339843,-1.546875 0.222657,-0.3398438 0.644532,-0.703125 1.230469,-0.703125 0.386719,0 0.84375,0.1640625 1.183594,0.65625 0.117187,0.1875 0.117187,0.2109375 0.117187,0.3984375 z m 3.131836,0.7734375 c 0.07031,-1.6171875 0.984375,-1.8984375 1.359375,-1.8984375 1.125,0 1.230469,1.4765625 1.230469,1.8984375 z m -0.01172,0.234375 h 3.046875 c 0.246093,0 0.269531,0 0.269531,-0.234375 0,-1.078125 -0.585938,-2.1328125 -1.945313,-2.1328125 -1.265625,0 -2.273437,1.125 -2.273437,2.484375 0,1.46484373 1.148437,2.51953123 2.402344,2.51953123 1.324218,0 1.816406,-1.20703123 1.816406,-1.41796873 0,-0.1054688 -0.08203,-0.1289063 -0.140625,-0.1289063 -0.09375,0 -0.117188,0.070312 -0.140625,0.1523438 -0.375,1.12499998 -1.359375,1.12499998 -1.476563,1.12499998 -0.539062,0 -0.972656,-0.328125 -1.230468,-0.7265625 C 22.119188,-1.4061094 22.119188,-2.1326719 22.119188,-2.5193906 Z m 5.575195,-5.0507813 -1.570313,0.1171875 v 0.3398438 c 0.761719,0 0.84375,0.082031 0.84375,0.609375 v 5.67187498 c 0,0.4921875 -0.117187,0.4921875 -0.84375,0.4921875 V 1.40625e-4 c 0.351563,-0.011718745 0.9375,-0.035156245 1.207032,-0.035156245 0.269531,0 0.808593,0.0234375 1.207031,0.035156245 V -0.33970312 c -0.726563,0 -0.84375,0 -0.84375,-0.4921875 z m 0,0"
       style="fill:#000000;fill-opacity:1;fill-rule:nonzero;stroke:none"
       aria-label="model"
       transform="matrix(1.3333333,0,0,1.3333333,109.164,155.492)" />
    <path
       id="path7"
       d="M -21.70186,-141.77719 H -91.6854 c -2.20094,0 -3.9851,-1.78417 -3.9851,-3.98511 v -13.28987 c 0,-2.20094 1.78416,-3.98511 3.9851,-3.98511 h 69.98354 c 2.20094,0 3.98511,1.78417 3.98511,3.98511 v 13.28987 c 0,2.20094 -1.78417,3.98511 -3.98511,3.98511 z"
       style="fill:#e6e6ff;fill-opacity:1;fill-rule:nonzero;stroke:#000000;stroke-width:1.19553;stroke-linecap:butt;stroke-linejoin:miter;stroke-miterlimit:10;stroke-dasharray:none;stroke-opacity:1"
       transform="matrix(1.3333333,0,0,-1.3333333,128.356,14.969333)" />
    <path
       id="path8"
       d="m 1.2780938,-2.3789844 c 0,-1.78125 0.890625,-2.2382812 1.4765625,-2.2382812 0.09375,0 0.7851562,0.011719 1.1601562,0.4101562 -0.4453125,0.023437 -0.515625,0.3515625 -0.515625,0.4921875 0,0.2929688 0.1992188,0.5039063 0.5039063,0.5039063 0.2929687,0 0.5039062,-0.1875 0.5039062,-0.5039063 0,-0.75 -0.8320312,-1.171875 -1.6640625,-1.171875 -1.3710937,0 -2.3671875,1.171875 -2.3671875,2.53125 0,1.39453128 1.078125,2.47265628 2.34375,2.47265628 1.4648438,0 1.8046875,-1.30078128 1.8046875,-1.41796878 0,-0.1054687 -0.1054687,-0.1054687 -0.140625,-0.1054687 -0.09375,0 -0.1171875,0.046875 -0.140625,0.1054687 -0.3164062,1.01953128 -1.0195312,1.14843753 -1.4296875,1.14843753 -0.5742187,0 -1.5351562,-0.46875 -1.5351562,-2.22656253 z m 8.7158203,0.046875 c 0,-1.3945312 -1.1015625,-2.5546875 -2.4140625,-2.5546875 -1.3710938,0 -2.4257813,1.1835938 -2.4257813,2.5546875 0,1.40625003 1.1367188,2.44921878 2.4140625,2.44921878 1.3125,0 2.4257813,-1.06640625 2.4257813,-2.44921878 z m -2.4140625,2.17968753 c -0.46875,0 -0.9492188,-0.234375 -1.2421875,-0.7265625 -0.28125,-0.48046873 -0.28125,-1.14843753 -0.28125,-1.54687503 0,-0.421875 0,-1.0078125 0.2695312,-1.4882812 0.2929688,-0.5039063 0.8085938,-0.7382813 1.2421875,-0.7382813 0.4804688,0 0.9492188,0.2460938 1.2304688,0.7148438 0.28125,0.46875 0.28125,1.1015625 0.28125,1.5117187 0,0.3984375 0,0.984375 -0.234375,1.46484378 -0.2460938,0.4921875 -0.7265625,0.80859375 -1.265625,0.80859375 z M 11.496844,-3.7500781 v 2.91796873 c 0,0.4921875 -0.117188,0.4921875 -0.84375,0.4921875 V -7.8125e-5 c 0.375,-0.011718745 0.9375,-0.035156245 1.230469,-0.035156245 0.28125,0 0.855468,0.0234375 1.21875,0.035156245 V -0.33992187 c -0.726563,0 -0.84375,0 -0.84375,-0.4921875 V -2.8360156 c 0,-1.1367188 0.773437,-1.7460938 1.464843,-1.7460938 0.691407,0 0.808594,0.5859375 0.808594,1.2070313 v 2.54296873 c 0,0.4921875 -0.117187,0.4921875 -0.84375,0.4921875 V -7.8125e-5 c 0.375,-0.011718745 0.9375,-0.035156245 1.230469,-0.035156245 0.28125,0 0.84375,0.0234375 1.21875,0.035156245 V -0.33992187 c -0.5625,0 -0.84375,0 -0.855469,-0.328125 V -2.7539844 c 0,-0.9375 0,-1.2773437 -0.328125,-1.6640625 -0.152344,-0.1875 -0.515625,-0.4101562 -1.148437,-0.4101562 -0.796875,0 -1.3125,0.4804687 -1.617188,1.1484375 v -1.1484375 l -1.535156,0.1289062 v 0.3398438 c 0.761719,0 0.84375,0.070312 0.84375,0.609375 z m 6.448242,-0.609375 h 1.558594 v -0.3398438 h -1.558594 v -2.015625 h -0.269531 c -0.01172,0.9023438 -0.339844,2.0625 -1.40625,2.109375 v 0.2460938 h 0.925781 v 3.0117187 c 0,1.33593753 1.007812,1.46484378 1.40625,1.46484378 0.773437,0 1.078125,-0.7734375 1.078125,-1.46484378 V -1.9805469 H 19.40993 v 0.609375 c 0,0.80859378 -0.328125,1.21875003 -0.738282,1.21875003 -0.726562,0 -0.726562,-0.99609373 -0.726562,-1.18359373 z m 4.171875,0.7382812 v -1.2070312 l -1.511719,0.1289062 v 0.3398438 c 0.761719,0 0.855469,0.070312 0.855469,0.609375 v 2.91796873 c 0,0.4921875 -0.128906,0.4921875 -0.855469,0.4921875 V -7.8125e-5 c 0.421875,-0.011718745 0.9375,-0.035156245 1.242188,-0.035156245 0.433593,0 0.949218,0 1.382812,0.035156245 V -0.33992187 h -0.222656 c -0.808594,0 -0.832031,-0.1171875 -0.832031,-0.515625 V -2.5313281 c 0,-1.078125 0.457031,-2.0507813 1.289062,-2.0507813 0.08203,0 0.09375,0 0.117188,0.011719 -0.03516,0.011719 -0.246094,0.140625 -0.246094,0.421875 0,0.3046875 0.222656,0.46875 0.46875,0.46875 0.199219,0 0.46875,-0.1289063 0.46875,-0.4804688 0,-0.3515625 -0.339844,-0.6679687 -0.808594,-0.6679687 -0.796875,0 -1.183594,0.7382812 -1.347656,1.207031 z m 7.602539,1.2890625 c 0,-1.3945312 -1.101562,-2.5546875 -2.414062,-2.5546875 -1.371094,0 -2.425782,1.1835938 -2.425782,2.5546875 0,1.40625003 1.136719,2.44921878 2.414063,2.44921878 1.3125,0 2.425781,-1.06640625 2.425781,-2.44921878 z m -2.414062,2.17968753 c -0.46875,0 -0.949219,-0.234375 -1.242188,-0.7265625 C 25.782,-1.3594531 25.782,-2.0274219 25.782,-2.4258594 c 0,-0.421875 0,-1.0078125 0.269531,-1.4882812 0.292969,-0.5039063 0.808594,-0.7382813 1.242188,-0.7382813 0.480469,0 0.949219,0.2460938 1.230469,0.7148438 0.28125,0.46875 0.28125,1.1015625 0.28125,1.5117187 0,0.3984375 0,0.984375 -0.234375,1.46484378 -0.246094,0.4921875 -0.726563,0.80859375 -1.265625,0.80859375 z m 4.655273,-7.41796873 -1.570313,0.1171875 v 0.3398437 c 0.761719,0 0.84375,0.082031 0.84375,0.609375 v 5.67187503 c 0,0.4921875 -0.117187,0.4921875 -0.84375,0.4921875 V -7.8125e-5 c 0.351563,-0.011718745 0.9375,-0.035156245 1.207032,-0.035156245 0.269531,0 0.808593,0.0234375 1.207031,0.035156245 V -0.33992187 c -0.726563,0 -0.84375,0 -0.84375,-0.4921875 z m 3.032227,0 -1.570313,0.1171875 v 0.3398437 c 0.761719,0 0.84375,0.082031 0.84375,0.609375 v 5.67187503 c 0,0.4921875 -0.117187,0.4921875 -0.84375,0.4921875 V -7.8125e-5 c 0.351563,-0.011718745 0.9375,-0.035156245 1.207031,-0.035156245 0.269532,0 0.808594,0.0234375 1.207032,0.035156245 V -0.33992187 c -0.726563,0 -0.84375,0 -0.84375,-0.4921875 z m 2.314453,4.8164062 c 0.07031,-1.6171875 0.984375,-1.8984375 1.359375,-1.8984375 1.125,0 1.230468,1.4765625 1.230468,1.8984375 z m -0.01172,0.234375 h 3.046875 c 0.246094,0 0.269531,0 0.269531,-0.234375 0,-1.078125 -0.585937,-2.1328125 -1.945312,-2.1328125 -1.265625,0 -2.273438,1.125 -2.273438,2.484375 0,1.46484378 1.148438,2.51953128 2.402344,2.51953128 1.324219,0 1.816406,-1.20703128 1.816406,-1.41796878 0,-0.1054687 -0.08203,-0.1289062 -0.140625,-0.1289062 -0.09375,0 -0.117187,0.070312 -0.140625,0.1523437 -0.375,1.12500003 -1.359375,1.12500003 -1.476562,1.12500003 -0.539063,0 -0.972657,-0.328125 -1.230469,-0.7265625 C 37.295672,-1.4063281 37.295672,-2.1328906 37.295671,-2.5196094 Z m 5.458008,-1.1015625 v -1.2070312 l -1.511719,0.1289062 v 0.3398438 c 0.761719,0 0.855469,0.070312 0.855469,0.609375 v 2.91796873 c 0,0.4921875 -0.128907,0.4921875 -0.855469,0.4921875 V -7.8125e-5 c 0.421875,-0.011718745 0.9375,-0.035156245 1.242187,-0.035156245 0.433594,0 0.949219,0 1.382813,0.035156245 V -0.33992187 h -0.222656 c -0.808594,0 -0.832032,-0.1171875 -0.832032,-0.515625 V -2.5313281 c 0,-1.078125 0.457032,-2.0507813 1.289063,-2.0507813 0.08203,0 0.09375,0 0.117187,0.011719 -0.03516,0.011719 -0.246093,0.140625 -0.246093,0.421875 0,0.3046875 0.222656,0.46875 0.46875,0.46875 0.199218,0 0.46875,-0.1289063 0.46875,-0.4804688 0,-0.3515625 -0.339844,-0.6679687 -0.808594,-0.6679687 -0.796875,0 -1.183594,0.7382812 -1.347656,1.207031 z m 0,0"
       style="fill:#000000;fill-opacity:1;fill-rule:nonzero;stroke:none"
       aria-label="controller"
       transform="matrix(1.3333333,0,0,1.3333333,22.624,223.22667)" />
    <path
       id="path9"
       d="M 91.6854,-141.77719 H 21.70186 c -2.20094,0 -3.98511,-1.78417 -3.98511,-3.98511 v -13.28987 c 0,-2.20094 1.78417,-3.98511 3.98511,-3.98511 H 91.6854 c 2.20094,0 3.9851,1.78417 3.9851,3.98511 v 13.28987 c 0,2.20094 -1.78416,3.98511 -3.9851,3.98511 z"
       style="fill:#e6e6ff;fill-opacity:1;fill-rule:nonzero;stroke:#000000;stroke-width:1.19553;stroke-linecap:butt;stroke-linejoin:miter;stroke-miterlimit:10;stroke-dasharray:none;stroke-opacity:1"
       transform="matrix(1.3333333,0,0,-1.3333333,128.356,14.969333)" />
    <path
       id="path10"
       d="m 1.2768594,-2.3789844 c 0,-1.78125 0.890625,-2.2382812 1.4765625,-2.2382812 0.09375,0 0.7851562,0.011719 1.1601562,0.4101562 -0.4453125,0.023437 -0.515625,0.3515625 -0.515625,0.4921875 0,0.2929688 0.1992188,0.5039063 0.5039063,0.5039063 0.2929687,0 0.5039062,-0.1875 0.5039062,-0.5039063 0,-0.75 -0.8320312,-1.171875 -1.6640625,-1.171875 -1.3710937,0 -2.36718747,1.171875 -2.36718747,2.53125 0,1.39453128 1.07812497,2.47265628 2.34374997,2.47265628 1.4648438,0 1.8046875,-1.30078128 1.8046875,-1.41796878 0,-0.1054687 -0.1054687,-0.1054687 -0.140625,-0.1054687 -0.09375,0 -0.1171875,0.046875 -0.140625,0.1054687 -0.3164062,1.01953128 -1.0195312,1.14843753 -1.4296875,1.14843753 -0.5742187,0 -1.5351562,-0.46875 -1.5351562,-2.22656253 z m 8.7158203,0.046875 c 0,-1.3945312 -1.1015625,-2.5546875 -2.4140625,-2.5546875 -1.3710938,0 -2.4257813,1.1835938 -2.4257813,2.5546875 0,1.40625003 1.1367188,2.44921878 2.4140625,2.44921878 1.3125,0 2.4257813,-1.06640625 2.4257813,-2.44921878 z m -2.4140625,2.17968753 c -0.46875,0 -0.9492188,-0.234375 -1.2421875,-0.7265625 -0.28125,-0.48046873 -0.28125,-1.14843753 -0.28125,-1.54687503 0,-0.421875 0,-1.0078125 0.2695312,-1.4882812 0.2929688,-0.5039063 0.8085938,-0.7382813 1.2421875,-0.7382813 0.4804688,0 0.9492188,0.2460938 1.2304688,0.7148438 0.28125,0.46875 0.28125,1.1015625 0.28125,1.5117187 0,0.3984375 0,0.984375 -0.234375,1.46484378 -0.2460938,0.4921875 -0.7265625,0.80859375 -1.265625,0.80859375 z M 11.498539,-3.7500781 v 2.91796873 c 0,0.4921875 -0.117187,0.4921875 -0.84375,0.4921875 V -7.8125e-5 c 0.375,-0.011718745 0.9375,-0.035156245 1.230469,-0.035156245 0.28125,0 0.855469,0.0234375 1.21875,0.035156245 V -0.33992187 c -0.726563,0 -0.84375,0 -0.84375,-0.4921875 V -2.8360156 c 0,-1.1367188 0.773437,-1.7460938 1.464844,-1.7460938 0.691406,0 0.808593,0.5859375 0.808593,1.2070313 v 2.54296873 c 0,0.4921875 -0.117187,0.4921875 -0.84375,0.4921875 V -7.8125e-5 c 0.375,-0.011718745 0.9375,-0.035156245 1.230469,-0.035156245 0.28125,0 0.84375,0.0234375 1.21875,0.035156245 V -0.33992187 c -0.5625,0 -0.84375,0 -0.855469,-0.328125 V -2.7539844 c 0,-0.9375 0,-1.2773437 -0.328125,-1.6640625 -0.152343,-0.1875 -0.515625,-0.4101562 -1.148437,-0.4101562 -0.796875,0 -1.3125,0.4804687 -1.617188,1.1484375 v -1.1484375 l -1.535156,0.1289062 v 0.3398438 c 0.761719,0 0.84375,0.070312 0.84375,0.609375 z m 6.445313,-0.609375 h 1.558593 v -0.3398438 h -1.558593 v -2.015625 H 17.67432 c -0.01172,0.9023438 -0.339843,2.0625 -1.40625,2.109375 v 0.2460938 h 0.925782 v 3.0117187 c 0,1.33593753 1.007812,1.46484378 1.40625,1.46484378 0.773437,0 1.078125,-0.7734375 1.078125,-1.46484378 v -0.6328125 h -0.269532 v 0.609375 c 0,0.80859378 -0.328125,1.21875003 -0.738281,1.21875003 -0.726562,0 -0.726562,-0.99609373 -0.726562,-1.18359373 z m 4.171875,0.7382812 v -1.2070312 l -1.511719,0.1289062 v 0.3398438 c 0.761719,0 0.855469,0.070312 0.855469,0.609375 v 2.91796873 c 0,0.4921875 -0.128907,0.4921875 -0.855469,0.4921875 V -7.8125e-5 c 0.421875,-0.011718745 0.9375,-0.035156245 1.242187,-0.035156245 0.433594,0 0.949219,0 1.382813,0.035156245 V -0.33992187 h -0.222656 c -0.808594,0 -0.832032,-0.1171875 -0.832032,-0.515625 V -2.5313281 c 0,-1.078125 0.457032,-2.0507813 1.289063,-2.0507813 0.08203,0 0.09375,0 0.117187,0.011719 -0.03516,0.011719 -0.246093,0.140625 -0.246093,0.421875 0,0.3046875 0.222656,0.46875 0.46875,0.46875 0.199218,0 0.46875,-0.1289063 0.46875,-0.4804688 0,-0.3515625 -0.339844,-0.6679687 -0.808594,-0.6679687 -0.796875,0 -1.183594,0.7382812 -1.347656,1.207031 z m 7.602539,1.2890625 c 0,-1.3945312 -1.101563,-2.5546875 -2.414063,-2.5546875 -1.371094,0 -2.425781,1.1835938 -2.425781,2.5546875 0,1.40625003 1.136719,2.44921878 2.414062,2.44921878 1.3125,0 2.425782,-1.06640625 2.425782,-2.44921878 z m -2.414063,2.17968753 c -0.46875,0 -0.949219,-0.234375 -1.242187,-0.7265625 -0.28125,-0.48046873 -0.28125,-1.14843753 -0.28125,-1.54687503 0,-0.421875 0,-1.0078125 0.269531,-1.4882812 0.292969,-0.5039063 0.808594,-0.7382813 1.242187,-0.7382813 0.480469,0 0.949219,0.2460938 1.230469,0.7148438 0.28125,0.46875 0.28125,1.1015625 0.28125,1.5117187 0,0.3984375 0,0.984375 -0.234375,1.46484378 -0.246094,0.4921875 -0.726562,0.80859375 -1.265625,0.80859375 z m 4.658203,-7.41796873 -1.570312,0.1171875 v 0.3398437 c 0.761719,0 0.84375,0.082031 0.84375,0.609375 v 5.67187503 c 0,0.4921875 -0.117188,0.4921875 -0.84375,0.4921875 V -7.8125e-5 c 0.351562,-0.011718745 0.9375,-0.035156245 1.207031,-0.035156245 0.269531,0 0.808594,0.0234375 1.207031,0.035156245 V -0.33992187 c -0.726562,0 -0.84375,0 -0.84375,-0.4921875 z m 3.029297,0 -1.570312,0.1171875 v 0.3398437 c 0.761718,0 0.84375,0.082031 0.84375,0.609375 v 5.67187503 c 0,0.4921875 -0.117188,0.4921875 -0.84375,0.4921875 V -7.8125e-5 c 0.351562,-0.011718745 0.9375,-0.035156245 1.207031,-0.035156245 0.269531,0 0.808594,0.0234375 1.207031,0.035156245 V -0.33992187 c -0.726562,0 -0.84375,0 -0.84375,-0.4921875 z m 2.317383,4.8164062 c 0.07031,-1.6171875 0.984375,-1.8984375 1.359375,-1.8984375 1.125,0 1.230469,1.4765625 1.230469,1.8984375 z m -0.01172,0.234375 h 3.046875 c 0.246094,0 0.269531,0 0.269531,-0.234375 0,-1.078125 -0.585937,-2.1328125 -1.945312,-2.1328125 -1.265625,0 -2.273438,1.125 -2.273438,2.484375 0,1.46484378 1.148438,2.51953128 2.402344,2.51953128 1.324219,0 1.816406,-1.20703128 1.816406,-1.41796878 0,-0.1054687 -0.08203,-0.1289062 -0.140625,-0.1289062 -0.09375,0 -0.117187,0.070312 -0.140625,0.1523437 -0.375,1.12500003 -1.359375,1.12500003 -1.476562,1.12500003 -0.539063,0 -0.972656,-0.328125 -1.230469,-0.7265625 C 37.297367,-1.4063281 37.297367,-2.1328906 37.297366,-2.5196094 Z m 5.455078,-1.1015625 v -1.2070312 l -1.511718,0.1289062 v 0.3398438 c 0.761718,0 0.855468,0.070312 0.855468,0.609375 v 2.91796873 c 0,0.4921875 -0.128906,0.4921875 -0.855468,0.4921875 V -7.8125e-5 c 0.421875,-0.011718745 0.9375,-0.035156245 1.242187,-0.035156245 0.433594,0 0.949219,0 1.382813,0.035156245 V -0.33992187 H 43.64307 c -0.808593,0 -0.832031,-0.1171875 -0.832031,-0.515625 V -2.5313281 c 0,-1.078125 0.457031,-2.0507813 1.289063,-2.0507813 0.08203,0 0.09375,0 0.117187,0.011719 -0.03516,0.011719 -0.246094,0.140625 -0.246094,0.421875 0,0.3046875 0.222657,0.46875 0.46875,0.46875 0.199219,0 0.46875,-0.1289063 0.46875,-0.4804688 0,-0.3515625 -0.339843,-0.6679687 -0.808593,-0.6679687 -0.796875,0 -1.183594,0.7382812 -1.347657,1.2070312 z m 0,0"
       style="fill:#000000;fill-opacity:1;fill-rule:nonzero;stroke:none"
       aria-label="controller"
       transform="matrix(1.3333333,0,0,1.3333333,173.80533,223.22667)" />
    <path
       id="path11"
       d="M -21.70186,-192.57959 H -91.6854 c -2.20094,0 -3.9851,-1.78418 -3.9851,-3.98511 v -13.28988 c 0,-2.20095 1.78416,-3.98511 3.9851,-3.98511 h 69.98354 c 2.20094,0 3.98511,1.78416 3.98511,3.98511 v 13.28988 c 0,2.20093 -1.78417,3.98511 -3.98511,3.98511 z"
       style="fill:#fff2e6;fill-opacity:1;fill-rule:nonzero;stroke:#000000;stroke-width:1.19553;stroke-linecap:butt;stroke-linejoin:miter;stroke-miterlimit:10;stroke-dasharray:none;stroke-opacity:1"
       transform="matrix(1.3333333,0,0,-1.3333333,128.356,14.969333)" />
    <path
       id="path12"
       d="m 1.9337109,-4.8279766 -1.53515621,0.1289063 v 0.3398437 c 0.71484371,0 0.80859371,0.058594 0.80859371,0.5976563 v 2.92968749 c 0,0.4921875 -0.1171875,0.4921875 -0.84374996,0.4921875 V 1.484375e-4 C 0.71496094,-0.01157031 1.3008984,-0.03500781 1.5587109,-0.03500781 c 0.3867188,0 0.7617188,0.0234375 1.1367188,0.0351562475 V -0.33969531 c -0.7148438,0 -0.7617188,-0.0585938 -0.7617188,-0.48046875 z m 0.046875,-1.8867187 c 0,-0.3515625 -0.28125,-0.5859375 -0.5859375,-0.5859375 -0.3398437,0 -0.57421871,0.2929687 -0.57421871,0.5859375 0,0.2929687 0.23437501,0.5742187 0.57421871,0.5742187 0.3046875,0 0.5859375,-0.234375 0.5859375,-0.5742187 z m 2.2441407,2.9648437 v 2.91796879 c 0,0.4921875 -0.1171875,0.4921875 -0.84375,0.4921875 V 1.484375e-4 c 0.375,-0.0117187475 0.9375,-0.0351562475 1.2304687,-0.0351562475 0.28125,0 0.8554688,0.0234375 1.21875,0.0351562475 V -0.33969531 c -0.7265625,0 -0.84375,0 -0.84375,-0.4921875 V -2.8357891 c 0,-1.1367187 0.7734375,-1.7460937 1.4648438,-1.7460937 0.6914062,0 0.8085937,0.5859375 0.8085937,1.2070312 v 2.54296879 c 0,0.4921875 -0.1171875,0.4921875 -0.84375,0.4921875 V 1.484375e-4 c 0.375,-0.0117187475 0.9375,-0.0351562475 1.2304688,-0.0351562475 0.28125,0 0.84375,0.0234375 1.21875,0.0351562475 V -0.33969531 c -0.5625,0 -0.84375,0 -0.8554688,-0.328125 V -2.7537578 c 0,-0.9375 0,-1.2773438 -0.328125,-1.6640625 -0.1523437,-0.1875 -0.515625,-0.4101563 -1.1484375,-0.4101563 -0.796875,0 -1.3125,0.4804688 -1.6171875,1.1484375 v -1.1484375 l -1.5351562,0.1289063 v 0.3398437 c 0.7617187,0 0.84375,0.070312 0.84375,0.609375 z m 7.1396484,1.6289063 c 0.234375,0.046875 1.125,0.2226562 1.125,1.0078125 0,0.56249999 -0.375,0.99609374 -1.230469,0.99609374 -0.914062,0 -1.300781,-0.62109375 -1.5117185,-1.54687504 -0.035156,-0.1523437 -0.046875,-0.1875 -0.1523437,-0.1875 -0.140625,0 -0.140625,0.070312 -0.140625,0.2695313 v 1.44140624 c 0,0.1875 0,0.2578125 0.1171875,0.2578125 0.058594,0 0.070312,-0.0117188 0.2695312,-0.2109375 0.023437,-0.0234375 0.023437,-0.046875 0.2226565,-0.2578125 0.480469,0.45703125 0.972656,0.46875 1.195312,0.46875 1.253907,0 1.757813,-0.7265625 1.757813,-1.51171874 0,-0.5859375 -0.328125,-0.9023438 -0.457031,-1.0429688 -0.363282,-0.3398437 -0.785157,-0.4335937 -1.242188,-0.515625 -0.609375,-0.1289062 -1.3476562,-0.2695312 -1.3476562,-0.9023437 0,-0.375 0.2929692,-0.8203125 1.2304692,-0.8203125 1.195312,0 1.253906,0.9726562 1.277343,1.3125 0.01172,0.1054687 0.105469,0.1054687 0.128907,0.1054687 0.140625,0 0.140625,-0.058594 0.140625,-0.2695312 v -1.1015625 c 0,-0.1875 0,-0.2578125 -0.117188,-0.2578125 -0.05859,0 -0.08203,0 -0.222656,0.1289062 -0.03516,0.046875 -0.140625,0.140625 -0.1875,0.1757813 -0.410156,-0.3046875 -0.855469,-0.3046875 -1.019531,-0.3046875 -1.335938,0 -1.7460942,0.7265625 -1.7460942,1.3359375 0,0.3867187 0.1757812,0.6914062 0.46875,0.9375 0.3515622,0.28125 0.6562502,0.3398437 1.4414062,0.4921875 z m 3.916992,-2.2382813 h 1.558594 v -0.3398437 h -1.558594 v -2.015625 h -0.269531 c -0.01172,0.9023437 -0.339844,2.0625 -1.40625,2.109375 v 0.2460937 h 0.925781 v 3.0117188 c 0,1.33593749 1.007813,1.46484374 1.40625,1.46484374 0.773438,0 1.078125,-0.7734375 1.078125,-1.46484374 v -0.6328125 h -0.269531 v 0.609375 c 0,0.80859374 -0.328125,1.21874999 -0.738281,1.21874999 -0.726563,0 -0.726563,-0.99609379 -0.726563,-1.18359379 z m 4.171875,0.7382813 v -1.2070313 l -1.511719,0.1289063 v 0.3398437 c 0.761719,0 0.855469,0.070312 0.855469,0.609375 v 2.91796879 c 0,0.4921875 -0.128906,0.4921875 -0.855469,0.4921875 V 1.484375e-4 c 0.421875,-0.0117187475 0.9375,-0.0351562475 1.242188,-0.0351562475 0.433594,0 0.949219,0 1.382812,0.0351562475 V -0.33969531 h -0.222656 c -0.808594,0 -0.832031,-0.1171875 -0.832031,-0.515625 V -2.5311016 c 0,-1.078125 0.457031,-2.0507812 1.289062,-2.0507812 0.08203,0 0.09375,0 0.117188,0.011719 -0.03516,0.011719 -0.246094,0.140625 -0.246094,0.421875 0,0.3046875 0.222656,0.46875 0.46875,0.46875 0.199219,0 0.46875,-0.1289062 0.46875,-0.4804687 0,-0.3515625 -0.339844,-0.6679688 -0.808594,-0.6679688 -0.796875,0 -1.183593,0.7382813 -1.347656,1.207031 z m 6.723633,2.75390624 v 0.984375 L 27.747188,1.484375e-4 V -0.33969531 c -0.761719,0 -0.855469,-0.0703125 -0.855469,-0.609375 V -4.8279766 l -1.59375,0.1289063 v 0.3398437 c 0.761719,0 0.84375,0.070312 0.84375,0.609375 v 1.9335938 c 0,0.94921874 -0.515625,1.69921874 -1.3125,1.69921874 -0.925781,0 -0.960938,-0.515625 -0.960938,-1.07812504 v -3.6328125 l -1.605468,0.1289063 v 0.3398437 c 0.84375,0 0.84375,0.023437 0.84375,0.9960938 v 1.640625 c 0,0.85546874 0,1.83984374 1.664062,1.83984374 0.609375,0 1.089844,-0.3046875 1.40625,-0.984375 z m 2.988281,-2.88281254 v 2.91796879 c 0,0.4921875 -0.117187,0.4921875 -0.84375,0.4921875 V 1.484375e-4 c 0.375,-0.0117187475 0.9375,-0.0351562475 1.230469,-0.0351562475 0.28125,0 0.855469,0.0234375 1.21875,0.0351562475 V -0.33969531 c -0.726562,0 -0.84375,0 -0.84375,-0.4921875 V -2.8357891 c 0,-1.1367187 0.773438,-1.7460937 1.464844,-1.7460937 0.691406,0 0.808594,0.5859375 0.808594,1.2070312 v 2.54296879 c 0,0.4921875 -0.117188,0.4921875 -0.84375,0.4921875 V 1.484375e-4 c 0.375,-0.0117187475 0.9375,-0.0351562475 1.230468,-0.0351562475 0.28125,0 0.84375,0.0234375 1.21875,0.0351562475 V -0.33969531 c -0.726562,0 -0.855468,0 -0.855468,-0.4921875 V -2.8357891 c 0,-1.1367187 0.785156,-1.7460937 1.476562,-1.7460937 0.691406,0 0.808594,0.5859375 0.808594,1.2070312 v 2.54296879 c 0,0.4921875 -0.117188,0.4921875 -0.855469,0.4921875 V 1.484375e-4 C 34.766719,-0.01157031 35.3175,-0.03500781 35.622188,-0.03500781 c 0.28125,0 0.84375,0.0234375 1.21875,0.0351562475 V -0.33969531 c -0.574219,0 -0.84375,0 -0.855469,-0.328125 V -2.7537578 c 0,-0.9375 0,-1.2773438 -0.339844,-1.6640625 -0.152344,-0.1875 -0.503906,-0.4101563 -1.136719,-0.4101563 -0.925781,0 -1.394531,0.65625 -1.582031,1.078125 -0.152344,-0.9492187 -0.960937,-1.078125 -1.453125,-1.078125 -0.796875,0 -1.3125,0.4804688 -1.617187,1.1484375 v -1.1484375 l -1.535157,0.1289063 v 0.3398437 c 0.761719,0 0.84375,0.070312 0.84375,0.609375 z m 9.114258,0.9960938 c 0.07031,-1.6171875 0.984375,-1.8984375 1.359375,-1.8984375 1.125,0 1.230469,1.4765625 1.230469,1.8984375 z m -0.01172,0.234375 h 3.046875 c 0.246094,0 0.269532,0 0.269532,-0.234375 0,-1.078125 -0.585938,-2.1328125 -1.945313,-2.1328125 -1.265625,0 -2.273437,1.125 -2.273437,2.484375 0,1.46484374 1.148437,2.51953124 2.402343,2.51953124 1.324219,0 1.816407,-1.20703124 1.816407,-1.41796874 0,-0.1054688 -0.08203,-0.1289063 -0.140625,-0.1289063 -0.09375,0 -0.117188,0.070312 -0.140625,0.1523438 -0.375,1.12499999 -1.359375,1.12499999 -1.476563,1.12499999 -0.539062,0 -0.972656,-0.328125 -1.230469,-0.7265625 C 38.267695,-1.4061016 38.267695,-2.1326641 38.267694,-2.5193828 Z m 4.836914,-1.2304688 v 2.91796879 c 0,0.4921875 -0.117187,0.4921875 -0.84375,0.4921875 V 1.484375e-4 c 0.375,-0.0117187475 0.9375,-0.0351562475 1.230469,-0.0351562475 0.28125,0 0.855469,0.0234375 1.21875,0.0351562475 V -0.33969531 c -0.726562,0 -0.84375,0 -0.84375,-0.4921875 V -2.8357891 c 0,-1.1367187 0.773438,-1.7460937 1.464844,-1.7460937 0.691406,0 0.808594,0.5859375 0.808594,1.2070312 v 2.54296879 c 0,0.4921875 -0.117188,0.4921875 -0.84375,0.4921875 V 1.484375e-4 c 0.375,-0.0117187475 0.9375,-0.0351562475 1.230468,-0.0351562475 0.28125,0 0.84375,0.0234375 1.21875,0.0351562475 V -0.33969531 c -0.5625,0 -0.84375,0 -0.855468,-0.328125 V -2.7537578 c 0,-0.9375 0,-1.2773438 -0.328125,-1.6640625 -0.152344,-0.1875 -0.515625,-0.4101563 -1.148438,-0.4101563 -0.796875,0 -1.3125,0.4804688 -1.617187,1.1484375 v -1.1484375 l -1.535157,0.1289063 v 0.3398437 c 0.761719,0 0.84375,0.070312 0.84375,0.609375 z m 6.448243,-0.609375 h 1.558593 v -0.3398437 h -1.558593 v -2.015625 H 49.28332 c -0.01172,0.9023437 -0.339843,2.0625 -1.40625,2.109375 v 0.2460937 h 0.925782 v 3.0117188 c 0,1.33593749 1.007812,1.46484374 1.40625,1.46484374 0.773437,0 1.078125,-0.7734375 1.078125,-1.46484374 v -0.6328125 h -0.269532 v 0.609375 c 0,0.80859374 -0.328125,1.21874999 -0.738281,1.21874999 -0.726562,0 -0.726562,-0.99609379 -0.726562,-1.18359379 z m 0,0"
       style="fill:#000000;fill-opacity:1;fill-rule:nonzero;stroke:none"
       aria-label="instrument"
       transform="matrix(1.3333333,0,0,1.3333333,18.16,290.76933)" />
    <path
       id="path13"
       d="M 91.6854,-192.57959 H 21.70186 c -2.20094,0 -3.98511,-1.78418 -3.98511,-3.98511 v -13.28988 c 0,-2.20095 1.78417,-3.98511 3.98511,-3.98511 H 91.6854 c 2.20094,0 3.9851,1.78416 3.9851,3.98511 v 13.28988 c 0,2.20093 -1.78416,3.98511 -3.9851,3.98511 z"
       style="fill:#fff2e6;fill-opacity:1;fill-rule:nonzero;stroke:#000000;stroke-width:1.19553;stroke-linecap:butt;stroke-linejoin:miter;stroke-miterlimit:10;stroke-dasharray:none;stroke-opacity:1"
       transform="matrix(1.3333333,0,0,-1.3333333,128.356,14.969333)" />
    <path
       id="path14"
       d="m 1.9334766,-4.8279766 -1.53515629,0.1289063 v 0.3398437 c 0.71484379,0 0.80859379,0.058594 0.80859379,0.5976563 v 2.92968749 c 0,0.4921875 -0.1171875,0.4921875 -0.84375004,0.4921875 V 1.484375e-4 C 0.71472656,-0.01157031 1.3006641,-0.03500781 1.5584766,-0.03500781 c 0.3867187,0 0.7617187,0.0234375 1.1367187,0.0351562475 V -0.33969531 c -0.7148437,0 -0.7617187,-0.0585938 -0.7617187,-0.48046875 z m 0.046875,-1.8867187 c 0,-0.3515625 -0.28125,-0.5859375 -0.5859375,-0.5859375 -0.3398438,0 -0.57421879,0.2929687 -0.57421879,0.5859375 0,0.2929687 0.23437499,0.5742187 0.57421879,0.5742187 0.3046875,0 0.5859375,-0.234375 0.5859375,-0.5742187 z m 2.2441406,2.9648437 v 2.91796879 c 0,0.4921875 -0.1171875,0.4921875 -0.84375,0.4921875 V 1.484375e-4 c 0.375,-0.0117187475 0.9375,-0.0351562475 1.2304687,-0.0351562475 0.28125,0 0.8554688,0.0234375 1.21875,0.0351562475 V -0.33969531 c -0.7265625,0 -0.84375,0 -0.84375,-0.4921875 V -2.8357891 c 0,-1.1367187 0.7734375,-1.7460937 1.4648438,-1.7460937 0.6914062,0 0.8085937,0.5859375 0.8085937,1.2070312 v 2.54296879 c 0,0.4921875 -0.1171875,0.4921875 -0.84375,0.4921875 V 1.484375e-4 c 0.375,-0.0117187475 0.9375,-0.0351562475 1.2304688,-0.0351562475 0.28125,0 0.84375,0.0234375 1.21875,0.0351562475 V -0.33969531 c -0.5625,0 -0.84375,0 -0.8554688,-0.328125 V -2.7537578 c 0,-0.9375 0,-1.2773438 -0.328125,-1.6640625 -0.1523437,-0.1875 -0.515625,-0.4101563 -1.1484375,-0.4101563 -0.796875,0 -1.3125,0.4804688 -1.6171875,1.1484375 v -1.1484375 l -1.5351562,0.1289063 v 0.3398437 c 0.7617187,0 0.84375,0.070312 0.84375,0.609375 z m 7.1396488,1.6289063 c 0.234375,0.046875 1.125,0.2226562 1.125,1.0078125 0,0.56249999 -0.375,0.99609374 -1.230469,0.99609374 -0.914063,0 -1.3007814,-0.62109375 -1.5117189,-1.54687504 -0.035156,-0.1523437 -0.046875,-0.1875 -0.1523437,-0.1875 -0.140625,0 -0.140625,0.070312 -0.140625,0.2695313 v 1.44140624 c 0,0.1875 0,0.2578125 0.1171875,0.2578125 0.058594,0 0.070312,-0.0117188 0.2695312,-0.2109375 0.023437,-0.0234375 0.023437,-0.046875 0.2226559,-0.2578125 0.480469,0.45703125 0.972657,0.46875 1.195313,0.46875 1.253906,0 1.757812,-0.7265625 1.757812,-1.51171874 0,-0.5859375 -0.328125,-0.9023438 -0.457031,-1.0429688 -0.363281,-0.3398437 -0.785156,-0.4335937 -1.242187,-0.515625 -0.609375,-0.1289062 -1.3476566,-0.2695312 -1.3476566,-0.9023437 0,-0.375 0.2929686,-0.8203125 1.2304686,-0.8203125 1.195313,0 1.253906,0.9726562 1.277344,1.3125 0.01172,0.1054687 0.105469,0.1054687 0.128906,0.1054687 0.140625,0 0.140625,-0.058594 0.140625,-0.2695312 v -1.1015625 c 0,-0.1875 0,-0.2578125 -0.117187,-0.2578125 -0.05859,0 -0.08203,0 -0.222657,0.1289062 -0.03516,0.046875 -0.140625,0.140625 -0.1875,0.1757813 -0.410156,-0.3046875 -0.855468,-0.3046875 -1.019531,-0.3046875 -1.3359374,0 -1.7460936,0.7265625 -1.7460936,1.3359375 0,0.3867187 0.1757812,0.6914062 0.46875,0.9375 0.3515626,0.28125 0.6562496,0.3398437 1.4414066,0.4921875 z m 3.916992,-2.2382813 h 1.558594 v -0.3398437 h -1.558594 v -2.015625 h -0.269531 c -0.01172,0.9023437 -0.339844,2.0625 -1.40625,2.109375 v 0.2460937 h 0.925781 v 3.0117188 c 0,1.33593749 1.007812,1.46484374 1.40625,1.46484374 0.773437,0 1.078125,-0.7734375 1.078125,-1.46484374 v -0.6328125 h -0.269531 v 0.609375 c 0,0.80859374 -0.328125,1.21874999 -0.738282,1.21874999 -0.726562,0 -0.726562,-0.99609379 -0.726562,-1.18359379 z m 4.171875,0.7382813 v -1.2070313 l -1.511719,0.1289063 v 0.3398437 c 0.761719,0 0.855469,0.070312 0.855469,0.609375 v 2.91796879 c 0,0.4921875 -0.128906,0.4921875 -0.855469,0.4921875 V 1.484375e-4 c 0.421875,-0.0117187475 0.9375,-0.0351562475 1.242188,-0.0351562475 0.433593,0 0.949218,0 1.382812,0.0351562475 V -0.33969531 h -0.222656 c -0.808594,0 -0.832031,-0.1171875 -0.832031,-0.515625 V -2.5311016 c 0,-1.078125 0.457031,-2.0507812 1.289062,-2.0507812 0.08203,0 0.09375,0 0.117188,0.011719 -0.03516,0.011719 -0.246094,0.140625 -0.246094,0.421875 0,0.3046875 0.222656,0.46875 0.46875,0.46875 0.199219,0 0.46875,-0.1289062 0.46875,-0.4804687 0,-0.3515625 -0.339844,-0.6679688 -0.808594,-0.6679688 -0.796875,0 -1.183594,0.7382813 -1.347656,1.207031 z m 6.723633,2.75390624 v 0.984375 L 27.746953,1.484375e-4 V -0.33969531 c -0.761719,0 -0.855469,-0.0703125 -0.855469,-0.609375 V -4.8279766 l -1.59375,0.1289063 v 0.3398437 c 0.761719,0 0.84375,0.070312 0.84375,0.609375 v 1.9335938 c 0,0.94921874 -0.515625,1.69921874 -1.3125,1.69921874 -0.925781,0 -0.960937,-0.515625 -0.960937,-1.07812504 v -3.6328125 l -1.605469,0.1289063 v 0.3398437 c 0.84375,0 0.84375,0.023437 0.84375,0.9960938 v 1.640625 c 0,0.85546874 0,1.83984374 1.664063,1.83984374 0.609375,0 1.089843,-0.3046875 1.40625,-0.984375 z m 2.988281,-2.88281254 v 2.91796879 c 0,0.4921875 -0.117188,0.4921875 -0.84375,0.4921875 V 1.484375e-4 c 0.375,-0.0117187475 0.9375,-0.0351562475 1.230469,-0.0351562475 0.28125,0 0.855468,0.0234375 1.21875,0.0351562475 V -0.33969531 c -0.726563,0 -0.84375,0 -0.84375,-0.4921875 V -2.8357891 c 0,-1.1367187 0.773437,-1.7460937 1.464843,-1.7460937 0.691407,0 0.808594,0.5859375 0.808594,1.2070312 v 2.54296879 c 0,0.4921875 -0.117187,0.4921875 -0.84375,0.4921875 V 1.484375e-4 c 0.375,-0.0117187475 0.9375,-0.0351562475 1.230469,-0.0351562475 0.28125,0 0.84375,0.0234375 1.21875,0.0351562475 V -0.33969531 c -0.726563,0 -0.855469,0 -0.855469,-0.4921875 V -2.8357891 c 0,-1.1367187 0.785156,-1.7460937 1.476563,-1.7460937 0.691406,0 0.808593,0.5859375 0.808593,1.2070312 v 2.54296879 c 0,0.4921875 -0.117187,0.4921875 -0.855468,0.4921875 V 1.484375e-4 c 0.386718,-0.0117187475 0.9375,-0.0351562475 1.242187,-0.0351562475 0.28125,0 0.84375,0.0234375 1.21875,0.0351562475 V -0.33969531 c -0.574219,0 -0.84375,0 -0.855469,-0.328125 V -2.7537578 c 0,-0.9375 0,-1.2773438 -0.339843,-1.6640625 -0.152344,-0.1875 -0.503907,-0.4101563 -1.136719,-0.4101563 -0.925781,0 -1.394531,0.65625 -1.582031,1.078125 -0.152344,-0.9492187 -0.960938,-1.078125 -1.453125,-1.078125 -0.796875,0 -1.3125,0.4804688 -1.617188,1.1484375 v -1.1484375 l -1.535156,0.1289063 v 0.3398437 c 0.761719,0 0.84375,0.070312 0.84375,0.609375 z m 9.114258,0.9960938 c 0.07031,-1.6171875 0.984375,-1.8984375 1.359375,-1.8984375 1.125,0 1.230468,1.4765625 1.230468,1.8984375 z m -0.01172,0.234375 h 3.046875 c 0.246094,0 0.269531,0 0.269531,-0.234375 0,-1.078125 -0.585937,-2.1328125 -1.945312,-2.1328125 -1.265625,0 -2.273438,1.125 -2.273438,2.484375 0,1.46484374 1.148438,2.51953124 2.402344,2.51953124 1.324219,0 1.816406,-1.20703124 1.816406,-1.41796874 0,-0.1054688 -0.08203,-0.1289063 -0.140625,-0.1289063 -0.09375,0 -0.117187,0.070312 -0.140625,0.1523438 -0.375,1.12499999 -1.359375,1.12499999 -1.476562,1.12499999 -0.539063,0 -0.972657,-0.328125 -1.230469,-0.7265625 C 38.267461,-1.4061016 38.267461,-2.1326641 38.26746,-2.5193828 Z m 4.836914,-1.2304688 v 2.91796879 c 0,0.4921875 -0.117187,0.4921875 -0.84375,0.4921875 V 1.484375e-4 c 0.375,-0.0117187475 0.9375,-0.0351562475 1.230469,-0.0351562475 0.28125,0 0.855469,0.0234375 1.21875,0.0351562475 V -0.33969531 c -0.726563,0 -0.84375,0 -0.84375,-0.4921875 V -2.8357891 c 0,-1.1367187 0.773437,-1.7460937 1.464844,-1.7460937 0.691406,0 0.808593,0.5859375 0.808593,1.2070312 v 2.54296879 c 0,0.4921875 -0.117187,0.4921875 -0.84375,0.4921875 V 1.484375e-4 c 0.375,-0.0117187475 0.9375,-0.0351562475 1.230469,-0.0351562475 0.28125,0 0.84375,0.0234375 1.21875,0.0351562475 V -0.33969531 c -0.5625,0 -0.84375,0 -0.855469,-0.328125 V -2.7537578 c 0,-0.9375 0,-1.2773438 -0.328125,-1.6640625 -0.152343,-0.1875 -0.515625,-0.4101563 -1.148437,-0.4101563 -0.796875,0 -1.3125,0.4804688 -1.617188,1.1484375 v -1.1484375 l -1.535156,0.1289063 v 0.3398437 c 0.761719,0 0.84375,0.070312 0.84375,0.609375 z m 6.448242,-0.609375 h 1.558594 v -0.3398437 h -1.558594 v -2.015625 h -0.269531 c -0.01172,0.9023437 -0.339844,2.0625 -1.40625,2.109375 v 0.2460937 h 0.925781 v 3.0117188 c 0,1.33593749 1.007813,1.46484374 1.40625,1.46484374 0.773438,0 1.078125,-0.7734375 1.078125,-1.46484374 V -1.9803203 H 51.01746 v 0.609375 c 0,0.80859374 -0.328125,1.21874999 -0.738281,1.21874999 -0.726563,0 -0.726563,-0.99609379 -0.726563,-1.18359379 z m 0,0"
       style="fill:#000000;fill-opacity:1;fill-rule:nonzero;stroke:none"
       aria-label="instrument"
       transform="matrix(1.3333333,0,0,1.3333333,169.34,290.76933)" />
    <path
       id="path15"
       d="M 0.00488,-15.28131 7.8e-4,-35.52258"
       style="fill:none;stroke:#000000;stroke-width:1.19553;stroke-linecap:butt;stroke-linejoin:miter;stroke-miterlimit:10;stroke-dasharray:none;stroke-opacity:1"
       transform="matrix(1.3333333,0,0,-1.3333333,128.356,14.969333)" />
    <path
       id="path16"
       d="M 6.66628,0 1.93044,1.79556 3.5108,0 1.93044,-1.79556 Z"
       style="fill:#000000;fill-opacity:1;fill-rule:nonzero;stroke:#000000;stroke-width:1.19553;stroke-linecap:butt;stroke-linejoin:round;stroke-miterlimit:10;stroke-dasharray:none;stroke-opacity:1"
       transform="matrix(2.6666667e-4,-1.3333067,-1.3333067,-2.6666667e-4,128.36165,39.626933)" />
    <path
       id="path17"
       d="M 6.66628,0 1.93044,1.79556 3.5108,0 1.93044,-1.79556 Z"
       style="fill:#000000;fill-opacity:1;fill-rule:nonzero;stroke:#000000;stroke-width:1.19553;stroke-linecap:butt;stroke-linejoin:round;stroke-miterlimit:10;stroke-dasharray:none;stroke-opacity:1"
       transform="matrix(-2.6666667e-4,1.3333067,1.3333067,2.6666667e-4,128.35789,58.05024)" />
    <path
       id="path18"
       d="M 0,-66.0823 V -86.32492"
       style="fill:none;stroke:#000000;stroke-width:1.19553;stroke-linecap:butt;stroke-linejoin:miter;stroke-miterlimit:10;stroke-dasharray:none;stroke-opacity:1"
       transform="matrix(1.3333333,0,0,-1.3333333,128.356,14.969333)" />
    <path
       id="path19"
       d="M 6.66628,0 1.93044,1.79556 3.5108,0 1.93044,-1.79556 Z"
       style="fill:#000000;fill-opacity:1;fill-rule:nonzero;stroke:#000000;stroke-width:1.19553;stroke-linecap:butt;stroke-linejoin:round;stroke-miterlimit:10;stroke-dasharray:none;stroke-opacity:1"
       transform="matrix(0,-1.3333333,-1.3333333,0,128.356,107.36167)" />
    <path
       id="path20"
       d="M 6.66628,0 1.93044,1.79556 3.5108,0 1.93044,-1.79556 Z"
       style="fill:#000000;fill-opacity:1;fill-rule:nonzero;stroke:#000000;stroke-width:1.19553;stroke-linecap:butt;stroke-linejoin:round;stroke-miterlimit:10;stroke-dasharray:none;stroke-opacity:1"
       transform="matrix(0,1.3333333,1.3333333,0,128.356,125.78664)" />
    <path
       id="path21"
       d="m -15.54182,-115.53632 -25.60621,-22.9394"
       style="fill:none;stroke:#000000;stroke-width:1.19553;stroke-linecap:butt;stroke-linejoin:miter;stroke-miterlimit:10;stroke-dasharray:none;stroke-opacity:1"
       transform="matrix(1.3333333,0,0,-1.3333333,128.356,14.969333)" />
    <path
       id="path22"
       d="M 6.66628,0 1.93044,1.79556 3.5108,0 1.93044,-1.79556 Z"
       style="fill:#000000;fill-opacity:1;fill-rule:nonzero;stroke:#000000;stroke-width:1.19553;stroke-linecap:butt;stroke-linejoin:round;stroke-miterlimit:10;stroke-dasharray:none;stroke-opacity:1"
       transform="matrix(0.99306667,-0.88965333,-0.88965333,-0.99306667,104.44393,171.87524)" />
    <path
       id="path23"
       d="M 6.66628,0 1.93044,1.79556 3.5108,0 1.93044,-1.79556 Z"
       style="fill:#000000;fill-opacity:1;fill-rule:nonzero;stroke:#000000;stroke-width:1.19553;stroke-linecap:butt;stroke-linejoin:round;stroke-miterlimit:10;stroke-dasharray:none;stroke-opacity:1"
       transform="matrix(-0.99306667,0.88965333,0.88965333,0.99306667,76.6816,196.74615)" />
    <path
       id="path24"
       d="m 15.54182,-115.53632 25.60621,-22.9394"
       style="fill:none;stroke:#000000;stroke-width:1.19553;stroke-linecap:butt;stroke-linejoin:miter;stroke-miterlimit:10;stroke-dasharray:none;stroke-opacity:1"
       transform="matrix(1.3333333,0,0,-1.3333333,128.356,14.969333)" />
    <path
       id="path25"
       d="M 6.66628,0 1.93044,1.79556 3.5108,0 1.93044,-1.79556 Z"
       style="fill:#000000;fill-opacity:1;fill-rule:nonzero;stroke:#000000;stroke-width:1.19553;stroke-linecap:butt;stroke-linejoin:round;stroke-miterlimit:10;stroke-dasharray:none;stroke-opacity:1"
       transform="matrix(-0.99306667,-0.88965333,-0.88965333,0.99306667,152.26807,171.87524)" />
    <path
       id="path26"
       d="M 6.66628,0 1.93044,1.79556 3.5108,0 1.93044,-1.79556 Z"
       style="fill:#000000;fill-opacity:1;fill-rule:nonzero;stroke:#000000;stroke-width:1.19553;stroke-linecap:butt;stroke-linejoin:round;stroke-miterlimit:10;stroke-dasharray:none;stroke-opacity:1"
       transform="matrix(0.99306667,0.88965333,0.88965333,-0.99306667,180.0304,196.74615)" />
    <path
       id="path27"
       d="m -56.69363,-167.68713 v -20.2426"
       style="fill:none;stroke:#000000;stroke-width:1.19553;stroke-linecap:butt;stroke-linejoin:miter;stroke-miterlimit:10;stroke-dasharray:none;stroke-opacity:1"
       transform="matrix(1.3333333,0,0,-1.3333333,128.356,14.969333)" />
    <path
       id="path28"
       d="M 6.66628,0 1.93044,1.79556 3.5108,0 1.93044,-1.79556 Z"
       style="fill:#000000;fill-opacity:1;fill-rule:nonzero;stroke:#000000;stroke-width:1.19553;stroke-linecap:butt;stroke-linejoin:round;stroke-miterlimit:10;stroke-dasharray:none;stroke-opacity:1"
       transform="matrix(0,-1.3333333,-1.3333333,0,52.764493,242.83475)" />
    <path
       id="path29"
       d="M 6.66628,0 1.93044,1.79556 3.5108,0 1.93044,-1.79556 Z"
       style="fill:#000000;fill-opacity:1;fill-rule:nonzero;stroke:#000000;stroke-width:1.19553;stroke-linecap:butt;stroke-linejoin:round;stroke-miterlimit:10;stroke-dasharray:none;stroke-opacity:1"
       transform="matrix(0,1.3333333,1.3333333,0,52.764493,261.25973)" />
    <path
       id="path30"
       d="m 56.69363,-167.68713 v -20.2426"
       style="fill:none;stroke:#000000;stroke-width:1.19553;stroke-linecap:butt;stroke-linejoin:miter;stroke-miterlimit:10;stroke-dasharray:none;stroke-opacity:1"
       transform="matrix(1.3333333,0,0,-1.3333333,128.356,14.969333)" />
    <path
       id="path31"
       d="M 6.66628,0 1.93044,1.79556 3.5108,0 1.93044,-1.79556 Z"
       style="fill:#000000;fill-opacity:1;fill-rule:nonzero;stroke:#000000;stroke-width:1.19553;stroke-linecap:butt;stroke-linejoin:round;stroke-miterlimit:10;stroke-dasharray:none;stroke-opacity:1"
       transform="matrix(0,-1.3333333,-1.3333333,0,203.94751,242.83475)" />
    <path
       id="path32"
       d="M 6.66628,0 1.93044,1.79556 3.5108,0 1.93044,-1.79556 Z"
       style="fill:#000000;fill-opacity:1;fill-rule:nonzero;stroke:#000000;stroke-width:1.19553;stroke-linecap:butt;stroke-linejoin:round;stroke-miterlimit:10;stroke-dasharray:none;stroke-opacity:1"
       transform="matrix(0,1.3333333,1.3333333,0,203.94751,261.25973)" />
  </g>
</svg>
