<?xml version="1.0" encoding="UTF-8" standalone="no"?>
<svg
   viewBox="0 0 500 500"
   version="1.1"
   id="svg7"
   sodipodi:docname="ECPC_logo_plain-text-as-object.svg"
   inkscape:version="1.4 (e7c3feb1, 2024-10-09)"
   xmlns:inkscape="http://www.inkscape.org/namespaces/inkscape"
   xmlns:sodipodi="http://sodipodi.sourceforge.net/DTD/sodipodi-0.dtd"
   xmlns="http://www.w3.org/2000/svg"
   xmlns:svg="http://www.w3.org/2000/svg">
  <sodipodi:namedview
     id="namedview7"
     pagecolor="#ffffff"
     bordercolor="#000000"
     borderopacity="0.25"
     inkscape:showpageshadow="2"
     inkscape:pageopacity="0.0"
     inkscape:pagecheckerboard="0"
     inkscape:deskcolor="#d1d1d1"
     inkscape:zoom="0.97065988"
     inkscape:cx="273.52526"
     inkscape:cy="269.91947"
     inkscape:window-width="1512"
     inkscape:window-height="831"
     inkscape:window-x="0"
     inkscape:window-y="38"
     inkscape:window-maximized="1"
     inkscape:current-layer="svg7" />
  <defs
     id="defs1">
    <style
       id="style1">
      .cls-1 {
        fill:rgb(40, 170, 70);
        stroke-width: 0px;
      }

      .cls-2 {
        fill: #fff;
        font-family: FiraCodeRoman-Bold, 'Fira Code';
        font-size: 226.53px;
        font-variation-settings: 'wght' 700;
        font-weight: 700;
      }
    </style>
  </defs>
  <g
     id="front">
    <rect
       class="cls-1"
       x="247.14"
       y="9.23"
       width="210.3"
       height="210.3"
       rx="28"
       ry="28"
       id="rect1" />
    <rect
       class="cls-1"
       x="1.83"
       y="8.81"
       width="210.3"
       height="210.3"
       rx="28"
       ry="28"
       id="rect2" />
    <rect
       class="cls-1"
       x="29.64"
       y="258.13"
       width="210.3"
       height="210.3"
       rx="28"
       ry="28"
       id="rect3" />
    <rect
       class="cls-1"
       x="278.13"
       y="258.13"
       width="210.3"
       height="210.3"
       rx="28"
       ry="28"
       id="rect4" />
  </g>
  <g
     id="Letters">
    <path
       d="M 140.14331,0 H 21.015967 V -164.69881 H 140.14331 v 31.85578 H 63.269121 v 28.42686 H 134.6128 v 31.85578 H 63.269121 v 40.704609 h 76.874189 z"
       id="text4"
       class="cls-2"
       style="font-weight:700;font-size:226.53px;font-family:FiraCodeRoman-Bold, 'Fira Code';font-variation-settings:'wght' 700;fill:#ffffff"
       transform="translate(33.43 195.31)"
       aria-label="E" />
    <path
       d="m 95.456733,3.2077002 q -18.361318,0 -33.957378,-5.4199072 -15.485449,-5.4199072 -26.657094,-16.149111 -11.171646,-10.729204 -17.365826,-26.767705 -6.083569,-16.038501 -6.083569,-37.054468 0,-19.578029 5.862349,-35.505919 5.862348,-15.92789 17.033994,-27.32076 10.729204,-10.95042 26.546484,-16.92338 15.927891,-5.97296 34.73165,-5.97296 10.397377,0 18.693147,1.21671 8.40639,1.1061 15.48545,2.98648 7.4109,2.1016 13.38385,4.75625 6.08357,2.54403 10.6186,4.75624 v 39.93034 h -4.86686 q -3.09709,-2.65465 -7.85333,-6.30479 -4.64564,-3.65014 -10.6186,-7.18968 -6.08357,-3.53953 -13.16263,-5.97295 -7.07906,-2.43343 -15.15362,-2.43343 -8.959434,0 -17.03399,2.87587 -8.074556,2.76526 -14.932397,9.29127 -6.526011,6.30479 -10.618594,16.70216 -3.981973,10.397373 -3.981973,25.21916 0,15.485449 4.313804,25.882822 4.424414,10.397373 11.061035,16.370332 6.747231,6.083569 15.043008,8.738217 8.295776,2.544038 16.370327,2.544038 7.74273,0 15.26423,-2.322817 7.63212,-2.322817 14.04752,-6.30479 5.4199,-3.2077 10.06554,-6.857842 4.64563,-3.650141 7.63211,-6.30479 h 4.42442 v 39.377285 q -6.19418,2.765259 -11.83531,5.1986867 -5.64113,2.4334278 -11.83531,4.2031934 -8.07455,2.32281736 -15.15362,3.5395312 -7.07906,1.2167139 -19.467417,1.2167139 z"
       id="text5"
       class="cls-2"
       style="font-weight:700;font-size:226.53px;font-family:FiraCodeRoman-Bold, 'Fira Code';font-variation-settings:'wght' 700;fill:#ffffff"
       transform="translate(278.07 192.46)"
       aria-label="C" />
    <path
       d="m 95.456733,3.2077002 q -18.361318,0 -33.957378,-5.4199072 -15.485449,-5.4199072 -26.657094,-16.149111 -11.171646,-10.729204 -17.365826,-26.767705 -6.083569,-16.038501 -6.083569,-37.054468 0,-19.578029 5.862349,-35.505919 5.862348,-15.92789 17.033994,-27.32076 10.729204,-10.95042 26.546484,-16.92338 15.927891,-5.97296 34.73165,-5.97296 10.397377,0 18.693147,1.21671 8.40639,1.1061 15.48545,2.98648 7.4109,2.1016 13.38385,4.75625 6.08357,2.54403 10.6186,4.75624 v 39.93034 h -4.86686 q -3.09709,-2.65465 -7.85333,-6.30479 -4.64564,-3.65014 -10.6186,-7.18968 -6.08357,-3.53953 -13.16263,-5.97295 -7.07906,-2.43343 -15.15362,-2.43343 -8.959434,0 -17.03399,2.87587 -8.074556,2.76526 -14.932397,9.29127 -6.526011,6.30479 -10.618594,16.70216 -3.981973,10.397373 -3.981973,25.21916 0,15.485449 4.313804,25.882822 4.424414,10.397373 11.061035,16.370332 6.747231,6.083569 15.043008,8.738217 8.295776,2.544038 16.370327,2.544038 7.74273,0 15.26423,-2.322817 7.63212,-2.322817 14.04752,-6.30479 5.4199,-3.2077 10.06554,-6.857842 4.64563,-3.650141 7.63211,-6.30479 h 4.42442 v 39.377285 q -6.19418,2.765259 -11.83531,5.1986867 -5.64113,2.4334278 -11.83531,4.2031934 -8.07455,2.32281736 -15.15362,3.5395312 -7.07906,1.2167139 -19.467417,1.2167139 z"
       id="text6"
       class="cls-2"
       style="font-weight:700;font-size:226.53px;font-family:FiraCodeRoman-Bold, 'Fira Code';font-variation-settings:'wght' 700;fill:#ffffff"
       transform="translate(308.27 446.19)"
       aria-label="C" />
    <path
       d="m 156.95609,-112.71195 q 0,11.06104 -3.87136,21.679631 -3.87137,10.507983 -11.06104,17.697656 -9.84432,9.733711 -22.01146,14.711177 -12.05653,4.977466 -30.086015,4.977466 H 63.490341 V 0 H 21.015967 v -164.69881 h 69.905741 q 15.706672,0 26.435872,2.76526 10.83982,2.65464 19.13559,8.07455 9.95493,6.52601 15.15362,16.70216 5.3093,10.17616 5.3093,24.44489 z m -43.91231,0.9955 q 0,-6.96846 -3.76075,-11.94592 -3.76076,-5.08808 -8.73822,-7.07906 -6.636622,-2.65465 -12.941412,-2.87587 -6.30479,-0.33184 -16.812773,-0.33184 h -7.300284 v 49.332222 H 75.65748 q 10.839814,0 17.808267,-1.327325 7.079063,-1.327324 11.835303,-5.309297 4.09259,-3.539531 5.86235,-8.406386 1.88038,-4.977464 1.88038,-12.056524 z"
       id="text7"
       class="cls-2"
       style="font-weight:700;font-size:226.53px;font-family:FiraCodeRoman-Bold, 'Fira Code';font-variation-settings:'wght' 700;fill:#ffffff"
       transform="translate(71.69 445.38)"
       aria-label="P" />
  </g>
</svg>
